<?xml version="1.0" encoding="utf-8"?>
<!-- Generator: Adobe Illustrator 17.0.2, SVG Export Plug-In . SVG Version: 6.00 Build 0)  -->
<!DOCTYPE svg PUBLIC "-//W3C//DTD SVG 1.1//EN" "http://www.w3.org/Graphics/SVG/1.1/DTD/svg11.dtd">
<svg version="1.1" id="Layer_1" xmlns="http://www.w3.org/2000/svg" xmlns:xlink="http://www.w3.org/1999/xlink" x="0px" y="0px"
	 width="1024px" height="425.882px" viewBox="0 0 1024 425.882" enable-background="new 0 0 1024 425.882" xml:space="preserve">
<g>
	<g>
		<path fill="#AE9B80" d="M414.241,191.903c0.057,0,0.111-0.013,0.167-0.017v0.017l23.064,0.008c2.501,0,4.529,2.104,4.529,4.7
			c0,4.313-4.529,4.919-4.529,4.919h-8.241v0.016c-1.177,0.078-2.118,1.091-2.118,2.334c0,1.248,0.941,2.256,2.118,2.334v0.016
			h27.323c1.253,0,2.264-1.05,2.264-2.35c0-1.295-1.011-2.35-2.264-2.35h-11.373c0.85-1.431,1.349-3.112,1.349-4.919
			c0-5.191-4.056-9.399-9.058-9.399l-23.064-0.008v0.017c-0.056-0.004-0.11-0.017-0.167-0.017c-1.251,0-2.264,1.052-2.264,2.35
			C411.976,190.851,412.99,191.903,414.241,191.903z"/>
		<path fill="#AE9B80" d="M500.814,206.001c-0.057,0-0.111-0.013-0.167-0.017v0.017l-25.14,0.008c-2.501,0-4.529,2.104-4.529,4.7
			c0,4.313,4.529,4.919,4.529,4.919h8.241v0.016c1.177,0.078,2.118,1.091,2.118,2.334c0,1.248-0.941,2.256-2.118,2.334v0.016
			h-34.116c-1.253,0-2.264-1.05-2.264-2.35c0-1.295,1.011-2.35,2.264-2.35h18.166c-0.85-1.431-1.349-3.112-1.349-4.919
			c0-5.191,4.056-9.399,9.058-9.399l25.14-0.008v0.017c0.056-0.004,0.11-0.017,0.167-0.017c1.251,0,2.264,1.052,2.264,2.35
			S502.065,206.001,500.814,206.001z"/>
		<path fill="#AE9B80" d="M506.49,225.583c0-5.183-4.052-9.387-9.046-9.387h-3.103c-1.325,0-2.4,1.116-2.4,2.491
			c0,1.38,1.075,2.496,2.4,2.496h3.103c2.344,0,4.24,1.967,4.24,4.4c0,1.216-0.474,2.316-1.243,3.11
			c-0.754,0.788-1.789,1.275-2.941,1.29h-16.476c-1.035-3.998-4.556-6.944-8.735-6.944c-5,0-9.046,4.204-9.046,9.387
			c0,5.183,4.047,9.387,9.046,9.387c4.143,0,7.64-2.898,8.705-6.844h16.451c0.02,0,0.036-0.005,0.056-0.005
			C502.468,234.934,506.49,230.75,506.49,225.583z M476.528,232.427c0,2.427-1.901,4.4-4.24,4.4c-2.344,0-4.24-1.973-4.24-4.4
			c0-2.433,1.896-4.4,4.24-4.4C474.627,228.027,476.528,229.994,476.528,232.427z"/>
		<path fill="#AE9B80" d="M506.377,183.782c0-5.183-4.052-9.387-9.046-9.387H473.66c-1.325,0-2.4,1.116-2.4,2.491
			c0,1.38,1.075,2.496,2.4,2.496h23.671c2.344,0,4.24,1.967,4.24,4.4c0,1.216-0.474,2.316-1.243,3.11
			c-0.754,0.788-1.789,1.275-2.941,1.29h-24.402c-1.035-3.998-4.556-6.944-8.735-6.944c-5,0-9.046,4.204-9.046,9.387
			c0,5.183,4.047,9.387,9.046,9.387c4.143,0,7.64-2.898,8.705-6.844h24.376c0.02,0,0.036-0.005,0.056-0.005
			C502.356,193.132,506.377,188.949,506.377,183.782z M468.49,190.626c0,2.427-1.901,4.4-4.24,4.4c-2.344,0-4.24-1.973-4.24-4.4
			c0-2.433,1.896-4.4,4.24-4.4C466.589,186.225,468.49,188.193,468.49,190.626z"/>
		<path fill="#AE9B80" d="M451.812,174.477h-38.816c-2.344,0-4.24-1.967-4.24-4.4c0-1.216,0.474-2.316,1.243-3.11
			c0.754-0.788,1.789-1.275,2.941-1.29h5.361v-0.027h18.049c4.995,0,9.046-4.204,9.046-9.387c0-5.167-4.021-9.35-8.99-9.382
			c-0.02,0-0.036-0.005-0.056-0.005h-9.281c-1.065-3.945-4.561-6.844-8.705-6.844c-5,0-9.046,4.204-9.046,9.387
			s4.047,9.387,9.046,9.387c4.179,0,7.701-2.946,8.735-6.944h9.306c1.152,0.016,2.186,0.502,2.941,1.29
			c0.77,0.793,1.243,1.893,1.243,3.11c0,2.433-1.896,4.4-4.24,4.4h-23.671c-0.2,0-0.392,0.033-0.578,0.081
			c-4.574,0.467-8.151,4.461-8.151,9.333c0,5.183,4.052,9.387,9.046,9.387h38.816c1.325,0,2.4-1.116,2.4-2.491
			C454.212,175.592,453.137,174.477,451.812,174.477z M418.364,153.819c-2.344,0-4.24-1.967-4.24-4.4c0-2.427,1.896-4.4,4.24-4.4
			c2.339,0,4.24,1.973,4.24,4.4C422.604,151.851,420.703,153.819,418.364,153.819z"/>
		<path fill="#AE9B80" d="M464.43,152.706h27.596h5.305c0.031,0,0.062,0.002,0.094,0.002c0.124,0.003,0.247,0.01,0.368,0.024
			c0.019,0.002,0.037,0.005,0.056,0.007c0.121,0.015,0.241,0.035,0.358,0.06c0.019,0.004,0.037,0.009,0.056,0.013
			c0.117,0.027,0.232,0.058,0.344,0.095c0.017,0.006,0.034,0.012,0.051,0.018c0.114,0.039,0.226,0.082,0.336,0.13
			c0.012,0.005,0.024,0.011,0.036,0.017c0.115,0.052,0.228,0.109,0.337,0.171c0.002,0.001,0.004,0.003,0.004,0.003
			c0.354,0.203,0.674,0.455,0.956,0.749c0.721,0.744,1.183,1.757,1.238,2.883c0.004,0.075,0.005,0.151,0.005,0.227
			s-0.002,0.152-0.005,0.227c-0.055,1.126-0.517,2.139-1.238,2.883c-0.282,0.294-0.602,0.546-0.954,0.747
			c-0.002,0.001-0.005,0.003-0.007,0.004c-0.109,0.062-0.222,0.119-0.337,0.171c-0.012,0.005-0.024,0.011-0.036,0.017
			c-0.109,0.049-0.222,0.091-0.336,0.13c-0.017,0.006-0.034,0.012-0.051,0.018c-0.113,0.037-0.228,0.068-0.344,0.095
			c-0.019,0.004-0.037,0.009-0.056,0.013c-0.117,0.026-0.237,0.045-0.358,0.06c-0.019,0.002-0.037,0.005-0.056,0.007
			c-0.121,0.014-0.244,0.021-0.368,0.024c-0.031,0.001-0.062,0.002-0.094,0.002h-5.305h-36.008c-1.325,0-2.4,1.116-2.4,2.496
			c0,1.375,1.075,2.491,2.4,2.491h36.008h5.305c2.817,0,5.333-1.337,6.992-3.433c0.017-0.021,0.032-0.043,0.049-0.065
			c0.073-0.094,0.146-0.189,0.216-0.286c0.034-0.047,0.065-0.096,0.098-0.143c0.051-0.074,0.102-0.146,0.151-0.221
			c0.047-0.072,0.09-0.145,0.135-0.218c0.033-0.053,0.067-0.106,0.098-0.16c0.055-0.094,0.107-0.19,0.159-0.287
			c0.019-0.035,0.039-0.069,0.057-0.104c0.06-0.115,0.117-0.231,0.172-0.349c0.009-0.018,0.018-0.036,0.026-0.054
			c0.061-0.131,0.118-0.263,0.173-0.398c0.002-0.006,0.005-0.011,0.007-0.017c0.341-0.836,0.568-1.734,0.662-2.673
			c0.001-0.007,0.002-0.014,0.003-0.021c0.013-0.13,0.021-0.261,0.029-0.393c0.002-0.028,0.005-0.056,0.006-0.084
			c0.008-0.16,0.012-0.321,0.012-0.482s-0.004-0.323-0.012-0.482c-0.001-0.028-0.005-0.056-0.006-0.084
			c-0.008-0.131-0.016-0.263-0.029-0.393c-0.001-0.007-0.002-0.014-0.003-0.021c-0.094-0.939-0.321-1.837-0.662-2.673
			c-0.002-0.006-0.005-0.011-0.007-0.017c-0.055-0.134-0.113-0.267-0.173-0.398c-0.008-0.018-0.018-0.036-0.026-0.054
			c-0.055-0.118-0.112-0.234-0.172-0.349c-0.019-0.035-0.039-0.07-0.058-0.105c-0.052-0.096-0.103-0.192-0.158-0.286
			c-0.032-0.055-0.066-0.108-0.099-0.161c-0.044-0.072-0.088-0.146-0.134-0.217c-0.049-0.075-0.1-0.148-0.151-0.221
			c-0.033-0.048-0.064-0.096-0.098-0.143c-0.07-0.098-0.144-0.194-0.218-0.289c-0.016-0.02-0.031-0.042-0.047-0.062
			c-1.659-2.096-4.176-3.433-6.992-3.433h-5.305H464.43c-1.325,0-2.4,1.116-2.4,2.491
			C462.029,151.59,463.105,152.706,464.43,152.706z"/>
		<path fill="#AE9B80" d="M506.49,117.591c0-1.27-0.955-2.298-2.159-2.379v-0.016h-46.005c-1.275,0-2.308,1.072-2.308,2.395
			c0,1.323,1.033,2.395,2.308,2.395h9.537c-0.867,1.458-1.374,3.172-1.374,5.013c0,5.29,4.134,9.58,9.231,9.58h12.524
			c1.056,4.077,4.646,7.073,8.908,7.073c5.098,0,9.231-4.289,9.231-9.58c0-5.29-4.134-9.58-9.231-9.58
			c-4.339,0-7.98,3.108-8.965,7.296h-0.177h-0.823h-11.467c-2.549,0-4.616-2.145-4.616-4.79c0-4.393,4.616-5.013,4.616-5.013h11.339
			h0.952h16.321v-0.016C505.535,119.889,506.49,118.86,506.49,117.591z M497.151,127.282c2.549,0,4.616,2.145,4.616,4.79
			c0,2.645-2.067,4.79-4.616,4.79c-2.549,0-4.616-2.145-4.616-4.79C492.535,129.427,494.602,127.282,497.151,127.282z"/>
		<path fill="#AE9B80" d="M407.431,119.896c0.057,0,0.111-0.013,0.167-0.017v0.017l27.074,0.008c2.501,0,4.529,2.104,4.529,4.7
			c0,4.313-4.529,4.919-4.529,4.919h-27.347v0.016c-1.178,0.078-2.118,1.091-2.118,2.334c0,1.248,0.941,2.256,2.118,2.334v0.016
			h44.487c1.253,0,2.264-1.05,2.264-2.35c0-1.295-1.011-2.35-2.264-2.35h-9.431c0.85-1.431,1.349-3.112,1.349-4.919
			c0-5.191-4.056-9.399-9.058-9.399l-27.074-0.008v0.017c-0.056-0.004-0.11-0.017-0.167-0.017c-1.251,0-2.264,1.052-2.264,2.35
			C405.166,118.844,406.18,119.896,407.431,119.896z"/>
		<path fill="#AE9B80" d="M497.499,44.013c-0.02,0-0.036-0.005-0.056-0.005h-16.22c-1.065-3.945-4.561-6.844-8.705-6.844
			c-5,0-9.046,4.204-9.046,9.387s4.047,9.387,9.046,9.387c4.179,0,7.701-2.946,8.735-6.944h16.246
			c1.152,0.016,2.186,0.502,2.941,1.29c0.77,0.793,1.243,1.893,1.243,3.11c0,2.433-1.896,4.4-4.24,4.4h-45.796
			c-1.325,0-2.4,1.116-2.4,2.496c0,1.375,1.075,2.491,2.4,2.491h0.165v0.027h12.04c1.152,0.016,2.186,0.502,2.941,1.29
			c0.77,0.793,1.243,1.893,1.243,3.11c0,2.433-1.896,4.4-4.24,4.4h-24.602c-1.325,0-2.4,1.116-2.4,2.496
			c0,1.375,1.075,2.491,2.4,2.491h24.602c4.995,0,9.046-4.205,9.046-9.387c0-1.602-0.388-3.108-1.069-4.427h25.671
			c4.995,0,9.046-4.204,9.046-9.387C506.49,48.229,502.468,44.045,497.499,44.013z M472.518,50.952c-2.344,0-4.24-1.967-4.24-4.4
			c0-2.427,1.896-4.4,4.24-4.4c2.339,0,4.24,1.973,4.24,4.4C476.759,48.985,474.858,50.952,472.518,50.952z"/>
		<path fill="#AE9B80" d="M447.662,88.229c-0.02,0-0.036-0.005-0.056-0.005H436.41c-1.065-3.945-4.561-6.844-8.705-6.844
			c-5,0-9.046,4.204-9.046,9.387s4.047,9.387,9.046,9.387c4.179,0,7.701-2.946,8.735-6.944h11.222
			c1.152,0.016,2.186,0.502,2.941,1.29c0.77,0.793,1.244,1.893,1.244,3.11c0,2.433-1.896,4.4-4.24,4.4h-31.247
			c-1.325,0-2.4,1.116-2.4,2.496c0,1.375,1.075,2.491,2.4,2.491h31.247c4.995,0,9.046-4.204,9.046-9.387
			C456.652,92.444,452.631,88.261,447.662,88.229z M427.705,95.168c-2.344,0-4.24-1.967-4.24-4.4c0-2.427,1.896-4.4,4.24-4.4
			c2.339,0,4.24,1.973,4.24,4.4C431.945,93.2,430.044,95.168,427.705,95.168z"/>
		<path fill="#AE9B80" d="M505.201,102.714c0,1.377-1.076,2.491-2.4,2.491h-29.325c-4.995,0-9.046-4.204-9.046-9.387
			c0-5.166,4.021-9.35,8.989-9.381c0.021,0,0.036-0.006,0.057-0.006h16.62v0.008h6.07c1.151-0.016,2.187-0.501,2.94-1.29
			c0.77-0.793,1.243-1.894,1.243-3.11c0-2.432-1.895-4.4-4.24-4.4h-14.856c-1.325,0-2.4-1.116-2.4-2.497
			c0-1.375,1.076-2.491,2.4-2.491h14.856c4.995,0,9.046,4.204,9.046,9.387c0,5.167-4.021,9.35-8.989,9.381
			c-0.021,0-0.036,0.006-0.057,0.006h-6.814v-0.008h-15.877c-1.151,0.016-2.187,0.503-2.94,1.29c-0.77,0.793-1.243,1.894-1.243,3.11
			c0,2.434,1.895,4.402,4.24,4.402h29.325C504.126,100.219,505.201,101.334,505.201,102.714z"/>
		<path fill="#AE9B80" d="M609.76,191.903c-0.057,0-0.111-0.013-0.167-0.017v0.017l-23.064,0.008c-2.501,0-4.529,2.104-4.529,4.7
			c0,4.313,4.529,4.919,4.529,4.919h8.241v0.016c1.177,0.078,2.118,1.091,2.118,2.334c0,1.248-0.941,2.256-2.118,2.334v0.016
			h-27.323c-1.253,0-2.264-1.05-2.264-2.35c0-1.295,1.011-2.35,2.264-2.35h11.373c-0.85-1.431-1.349-3.112-1.349-4.919
			c0-5.191,4.056-9.399,9.058-9.399l23.064-0.008v0.017c0.056-0.004,0.11-0.017,0.167-0.017c1.251,0,2.264,1.052,2.264,2.35
			C612.024,190.851,611.01,191.903,609.76,191.903z"/>
		<path fill="#AE9B80" d="M523.186,206.001c0.057,0,0.111-0.013,0.167-0.017v0.017l25.14,0.008c2.501,0,4.529,2.104,4.529,4.7
			c0,4.313-4.529,4.919-4.529,4.919h-8.241v0.016c-1.177,0.078-2.119,1.091-2.119,2.334c0,1.248,0.941,2.256,2.119,2.334v0.016
			h34.116c1.253,0,2.264-1.05,2.264-2.35c0-1.295-1.011-2.35-2.264-2.35h-18.166c0.85-1.431,1.349-3.112,1.349-4.919
			c0-5.191-4.056-9.399-9.058-9.399l-25.14-0.008v0.017c-0.056-0.004-0.11-0.017-0.167-0.017c-1.251,0-2.264,1.052-2.264,2.35
			S521.935,206.001,523.186,206.001z"/>
		<path fill="#AE9B80" d="M526.501,234.966c0.02,0,0.036,0.005,0.056,0.005h16.451c1.065,3.945,4.561,6.844,8.705,6.844
			c5,0,9.046-4.204,9.046-9.387c0-5.183-4.047-9.387-9.046-9.387c-4.179,0-7.701,2.946-8.735,6.944h-16.476
			c-1.152-0.016-2.186-0.502-2.941-1.29c-0.77-0.793-1.243-1.893-1.243-3.11c0-2.433,1.896-4.4,4.24-4.4h3.103
			c1.325,0,2.4-1.116,2.4-2.496c0-1.375-1.075-2.491-2.4-2.491h-3.103c-4.994,0-9.046,4.204-9.046,9.387
			C517.511,230.75,521.532,234.934,526.501,234.966z M551.713,228.027c2.344,0,4.24,1.967,4.24,4.4c0,2.427-1.896,4.4-4.24,4.4
			c-2.339,0-4.24-1.973-4.24-4.4C547.472,229.994,549.373,228.027,551.713,228.027z"/>
		<path fill="#AE9B80" d="M526.614,193.164c0.02,0,0.036,0.005,0.056,0.005h24.376c1.065,3.945,4.561,6.844,8.705,6.844
			c5,0,9.046-4.204,9.046-9.387c0-5.183-4.047-9.387-9.046-9.387c-4.179,0-7.701,2.946-8.735,6.944h-24.402
			c-1.152-0.016-2.186-0.502-2.941-1.29c-0.77-0.793-1.244-1.893-1.244-3.11c0-2.433,1.896-4.4,4.24-4.4h23.671
			c1.325,0,2.4-1.116,2.4-2.496c0-1.375-1.075-2.491-2.4-2.491H526.67c-4.995,0-9.046,4.204-9.046,9.387
			C517.624,188.949,521.645,193.132,526.614,193.164z M559.751,186.225c2.344,0,4.24,1.967,4.24,4.4c0,2.427-1.896,4.4-4.24,4.4
			c-2.339,0-4.24-1.973-4.24-4.4C555.51,188.193,557.411,186.225,559.751,186.225z"/>
		<path fill="#AE9B80" d="M569.788,176.973c0,1.375,1.075,2.491,2.4,2.491h38.816c4.995,0,9.046-4.205,9.046-9.387
			c0-4.872-3.577-8.866-8.151-9.333c-0.186-0.048-0.378-0.081-0.578-0.081h-23.671c-2.344,0-4.24-1.967-4.24-4.4
			c0-1.216,0.474-2.316,1.243-3.11c0.754-0.788,1.789-1.275,2.941-1.29h9.306c1.035,3.998,4.556,6.944,8.735,6.944
			c5,0,9.046-4.204,9.046-9.387s-4.047-9.387-9.046-9.387c-4.143,0-7.64,2.898-8.705,6.844h-9.281c-0.02,0-0.036,0.005-0.056,0.005
			c-4.969,0.032-8.99,4.215-8.99,9.382c0,5.183,4.052,9.387,9.046,9.387H605.7v0.027h5.361c1.152,0.016,2.186,0.502,2.941,1.29
			c0.77,0.793,1.243,1.893,1.243,3.11c0,2.433-1.896,4.4-4.24,4.4h-38.816C570.863,174.477,569.788,175.592,569.788,176.973z
			 M601.396,149.419c0-2.427,1.901-4.4,4.24-4.4c2.344,0,4.24,1.973,4.24,4.4c0,2.433-1.896,4.4-4.24,4.4
			C603.297,153.819,601.396,151.851,601.396,149.419z"/>
		<path fill="#AE9B80" d="M559.571,152.706h-27.596h-5.305c-0.031,0-0.062,0.002-0.094,0.002c-0.124,0.003-0.247,0.01-0.368,0.024
			c-0.019,0.002-0.037,0.005-0.056,0.007c-0.121,0.015-0.241,0.035-0.358,0.06c-0.019,0.004-0.037,0.009-0.056,0.013
			c-0.117,0.027-0.232,0.058-0.344,0.095c-0.017,0.006-0.034,0.012-0.051,0.018c-0.114,0.039-0.226,0.082-0.336,0.13
			c-0.012,0.005-0.024,0.011-0.036,0.017c-0.115,0.052-0.228,0.109-0.337,0.171c-0.002,0.001-0.004,0.003-0.007,0.004
			c-0.351,0.201-0.672,0.453-0.954,0.748c-0.721,0.744-1.183,1.757-1.238,2.883c-0.004,0.075-0.006,0.151-0.006,0.227
			s0.002,0.152,0.006,0.227c0.055,1.126,0.517,2.139,1.238,2.883c0.282,0.294,0.602,0.546,0.954,0.747
			c0.002,0.001,0.005,0.003,0.007,0.004c0.109,0.062,0.222,0.119,0.337,0.171c0.012,0.005,0.024,0.011,0.036,0.017
			c0.109,0.049,0.222,0.091,0.336,0.13c0.017,0.006,0.034,0.012,0.051,0.018c0.113,0.037,0.228,0.068,0.344,0.095
			c0.019,0.004,0.037,0.009,0.056,0.013c0.117,0.026,0.237,0.045,0.358,0.06c0.019,0.002,0.037,0.005,0.056,0.007
			c0.121,0.014,0.244,0.021,0.368,0.024c0.031,0.001,0.062,0.002,0.094,0.002h5.305h36.008c1.325,0,2.4,1.116,2.4,2.496
			c0,1.375-1.075,2.491-2.4,2.491h-36.008h-5.305c-2.817,0-5.333-1.337-6.992-3.433c-0.017-0.021-0.032-0.043-0.049-0.065
			c-0.073-0.094-0.146-0.189-0.216-0.286c-0.034-0.047-0.065-0.096-0.098-0.143c-0.051-0.074-0.102-0.146-0.151-0.221
			c-0.047-0.072-0.09-0.145-0.135-0.218c-0.033-0.053-0.067-0.106-0.098-0.16c-0.055-0.094-0.107-0.19-0.159-0.287
			c-0.019-0.035-0.039-0.069-0.057-0.104c-0.06-0.115-0.117-0.231-0.172-0.349c-0.009-0.018-0.018-0.036-0.026-0.054
			c-0.061-0.131-0.118-0.263-0.173-0.398c-0.002-0.006-0.005-0.011-0.007-0.017c-0.341-0.836-0.568-1.734-0.662-2.673
			c-0.001-0.007-0.002-0.014-0.003-0.021c-0.013-0.13-0.021-0.261-0.029-0.393c-0.002-0.028-0.005-0.056-0.006-0.084
			c-0.008-0.16-0.012-0.321-0.012-0.482s0.004-0.323,0.012-0.482c0.001-0.028,0.005-0.056,0.006-0.084
			c0.008-0.131,0.016-0.263,0.029-0.393c0.001-0.007,0.002-0.014,0.003-0.021c0.094-0.939,0.321-1.837,0.662-2.673
			c0.002-0.006,0.005-0.011,0.007-0.017c0.055-0.134,0.113-0.267,0.173-0.398c0.008-0.018,0.018-0.036,0.026-0.054
			c0.055-0.118,0.112-0.234,0.172-0.349c0.019-0.035,0.039-0.07,0.058-0.105c0.052-0.096,0.103-0.192,0.158-0.286
			c0.032-0.055,0.066-0.108,0.099-0.161c0.044-0.072,0.088-0.146,0.134-0.217c0.049-0.075,0.1-0.148,0.151-0.221
			c0.033-0.048,0.064-0.096,0.098-0.143c0.07-0.098,0.144-0.194,0.218-0.289c0.016-0.02,0.031-0.042,0.047-0.062
			c1.659-2.096,4.176-3.433,6.992-3.433h5.305h27.596c1.325,0,2.4,1.116,2.4,2.491C561.971,151.59,560.896,152.706,559.571,152.706z
			"/>
		<path fill="#AE9B80" d="M519.669,119.97v0.016h16.321h0.951h11.339c0,0,4.616,0.62,4.616,5.013c0,2.645-2.067,4.79-4.616,4.79
			h-11.467h-0.823h-0.177c-0.985-4.188-4.626-7.296-8.965-7.296c-5.098,0-9.231,4.29-9.231,9.58c0,5.29,4.134,9.58,9.231,9.58
			c4.262,0,7.852-2.996,8.908-7.073h12.524c5.098,0,9.231-4.29,9.231-9.58c0-1.841-0.508-3.555-1.374-5.013h9.537
			c1.275,0,2.308-1.072,2.308-2.395c0-1.323-1.033-2.395-2.308-2.395h-46.005v0.016c-1.204,0.081-2.159,1.11-2.159,2.379
			C517.511,118.86,518.466,119.889,519.669,119.97z M531.465,132.072c0,2.645-2.067,4.79-4.616,4.79
			c-2.549,0-4.616-2.145-4.616-4.79c0-2.645,2.067-4.79,4.616-4.79C529.398,127.282,531.465,129.427,531.465,132.072z"/>
		<path fill="#AE9B80" d="M616.57,119.896c-0.057,0-0.111-0.013-0.167-0.017v0.017l-27.074,0.008c-2.501,0-4.529,2.104-4.529,4.7
			c0,4.313,4.529,4.919,4.529,4.919h27.347v0.016c1.177,0.078,2.119,1.091,2.119,2.334c0,1.248-0.941,2.256-2.119,2.334v0.016
			h-44.487c-1.253,0-2.264-1.05-2.264-2.35c0-1.295,1.011-2.35,2.264-2.35h9.431c-0.85-1.431-1.349-3.112-1.349-4.919
			c0-5.191,4.056-9.399,9.058-9.399l27.074-0.008v0.017c0.056-0.004,0.11-0.017,0.167-0.017c1.251,0,2.264,1.052,2.264,2.35
			C618.834,118.844,617.82,119.896,616.57,119.896z"/>
		<path fill="#AE9B80" d="M517.511,53.396c0,5.183,4.052,9.387,9.046,9.387h25.671c-0.681,1.318-1.069,2.825-1.069,4.427
			c0,5.183,4.052,9.387,9.046,9.387h24.602c1.325,0,2.4-1.116,2.4-2.491c0-1.38-1.075-2.496-2.4-2.496h-24.602
			c-2.344,0-4.24-1.967-4.24-4.4c0-1.216,0.474-2.316,1.244-3.11c0.754-0.788,1.789-1.275,2.941-1.29h12.04v-0.027h0.164
			c1.325,0,2.4-1.116,2.4-2.491c0-1.38-1.075-2.496-2.4-2.496h-45.796c-2.344,0-4.24-1.967-4.24-4.4c0-1.216,0.474-2.316,1.244-3.11
			c0.754-0.788,1.789-1.275,2.941-1.29h16.246c1.035,3.998,4.556,6.944,8.735,6.944c5,0,9.046-4.204,9.046-9.387
			s-4.047-9.387-9.046-9.387c-4.143,0-7.64,2.898-8.705,6.844h-16.22c-0.02,0-0.036,0.005-0.056,0.005
			C521.532,44.045,517.511,48.229,517.511,53.396z M547.242,46.552c0-2.427,1.901-4.4,4.24-4.4c2.344,0,4.24,1.973,4.24,4.4
			c0,2.433-1.896,4.4-4.24,4.4C549.143,50.952,547.242,48.985,547.242,46.552z"/>
		<path fill="#AE9B80" d="M567.348,97.611c0,5.183,4.052,9.387,9.046,9.387h31.247c1.325,0,2.4-1.116,2.4-2.491
			c0-1.38-1.075-2.496-2.4-2.496h-31.247c-2.344,0-4.24-1.967-4.24-4.4c0-1.216,0.474-2.316,1.243-3.11
			c0.754-0.788,1.789-1.275,2.941-1.29h11.222c1.035,3.998,4.556,6.944,8.735,6.944c5,0,9.046-4.204,9.046-9.387
			s-4.047-9.387-9.046-9.387c-4.143,0-7.64,2.898-8.705,6.844h-11.196c-0.02,0-0.036,0.005-0.056,0.005
			C571.369,88.261,567.348,92.444,567.348,97.611z M592.055,90.768c0-2.427,1.901-4.4,4.24-4.4c2.344,0,4.24,1.973,4.24,4.4
			c0,2.433-1.896,4.4-4.24,4.4C593.956,95.168,592.055,93.2,592.055,90.768z"/>
		<path fill="#AE9B80" d="M518.799,102.714c0,1.377,1.076,2.491,2.4,2.491h29.325c4.995,0,9.046-4.204,9.046-9.387
			c0-5.166-4.021-9.35-8.989-9.381c-0.021,0-0.036-0.006-0.057-0.006h-16.62v0.008h-6.07c-1.151-0.016-2.187-0.501-2.94-1.29
			c-0.77-0.793-1.243-1.894-1.243-3.11c0-2.432,1.894-4.4,4.24-4.4h14.856c1.325,0,2.4-1.116,2.4-2.497
			c0-1.375-1.076-2.491-2.4-2.491H527.89c-4.995,0-9.046,4.204-9.046,9.387c0,5.167,4.021,9.35,8.989,9.381
			c0.021,0,0.036,0.006,0.057,0.006h6.814v-0.008h15.877c1.151,0.016,2.187,0.503,2.94,1.29c0.77,0.793,1.243,1.894,1.243,3.11
			c0,2.434-1.894,4.402-4.24,4.402h-29.325C519.875,100.219,518.799,101.334,518.799,102.714z"/>
	</g>
	<g>
		<path fill="#F5F5F5" d="M145.334,284.124h-2.051c-0.383-1.44-1.181-2.98-2.393-4.621s-2.374-2.543-3.486-2.707
			c-0.565-0.073-1.235-0.128-2.01-0.164s-1.654-0.055-2.639-0.055h-6.508v15.586h4.469c1.352,0,2.402-0.142,3.151-0.424
			s1.389-0.716,1.919-1.299c0.365-0.401,0.699-1.025,1-1.873c0.302-0.848,0.499-1.755,0.59-2.721h2.051v15.258h-2.051
			c-0.055-0.802-0.242-1.714-0.562-2.734c-0.32-1.021-0.663-1.759-1.028-2.215c-0.548-0.675-1.238-1.135-2.069-1.381
			s-1.832-0.369-3.001-0.369h-4.469v13.349c0,0.602,0.118,1.139,0.355,1.611c0.237,0.474,0.656,0.855,1.258,1.146
			c0.273,0.127,0.866,0.282,1.777,0.464c0.911,0.183,1.604,0.282,2.078,0.301v1.941H114.9v-1.941
			c0.547-0.036,1.276-0.096,2.188-0.178s1.504-0.187,1.777-0.314c0.547-0.237,0.943-0.588,1.189-1.053s0.369-1.025,0.369-1.682v-28
			c0-0.602-0.101-1.135-0.301-1.6s-0.62-0.843-1.258-1.135c-0.492-0.237-1.153-0.446-1.982-0.629s-1.49-0.292-1.982-0.328v-1.941
			h30.434V284.124z"/>
		<path fill="#F5F5F5" d="M171.333,313.217H153.86v-1.941c0.492-0.036,1.203-0.091,2.133-0.164s1.586-0.183,1.969-0.328
			c0.602-0.237,1.039-0.561,1.312-0.971s0.41-0.979,0.41-1.709v-28.109c0-0.638-0.101-1.171-0.301-1.6
			c-0.201-0.429-0.675-0.788-1.422-1.08c-0.547-0.219-1.235-0.424-2.064-0.615c-0.83-0.191-1.509-0.306-2.037-0.342v-1.941h17.473
			v1.941c-0.565,0.019-1.24,0.087-2.023,0.205c-0.784,0.118-1.468,0.269-2.051,0.451c-0.693,0.219-1.158,0.574-1.395,1.066
			c-0.237,0.492-0.355,1.039-0.355,1.641v28.082c0,0.602,0.132,1.135,0.396,1.6c0.264,0.465,0.715,0.834,1.354,1.107
			c0.383,0.146,1.007,0.306,1.873,0.479c0.865,0.173,1.6,0.269,2.201,0.287V313.217z"/>
		<path fill="#F5F5F5" d="M221.612,276.358c-0.511,0.019-1.294,0.164-2.352,0.438s-1.813,0.556-2.27,0.848
			c-0.656,0.456-1.099,1.331-1.326,2.625s-0.342,2.935-0.342,4.922v28.41h-2.379l-23.516-31.746v20.016
			c0,2.242,0.142,3.965,0.424,5.168s0.716,2.06,1.299,2.57c0.419,0.401,1.285,0.774,2.598,1.121s2.179,0.528,2.598,0.547v1.941
			h-15.914v-1.941c0.492-0.036,1.321-0.214,2.488-0.533s1.896-0.606,2.188-0.861c0.638-0.511,1.075-1.29,1.312-2.338
			s0.355-2.839,0.355-5.373v-19.113c0-0.839-0.146-1.677-0.438-2.516s-0.684-1.485-1.176-1.941
			c-0.656-0.602-1.545-1.116-2.666-1.545s-2.028-0.661-2.721-0.697v-1.941h11.086l21.809,29.58v-18.453
			c0-2.26-0.146-3.996-0.438-5.208s-0.711-2.019-1.258-2.42c-0.511-0.346-1.345-0.683-2.502-1.011s-2.037-0.511-2.639-0.547v-1.941
			h15.777V276.358z"/>
		<path fill="#F5F5F5" d="M266.532,313.217h-16.128v-1.941c1.422-0.091,2.602-0.273,3.541-0.547c0.938-0.273,1.408-0.61,1.408-1.012
			c0-0.164-0.019-0.364-0.055-0.602c-0.037-0.237-0.092-0.446-0.164-0.629l-3.214-8.695h-13.62
			c-0.511,1.276-0.926,2.388-1.246,3.336c-0.319,0.948-0.606,1.823-0.862,2.625c-0.237,0.784-0.401,1.422-0.493,1.914
			c-0.091,0.492-0.137,0.894-0.137,1.203c0,0.729,0.574,1.294,1.723,1.695s2.443,0.638,3.884,0.711v1.941h-14.613v-1.941
			c0.475-0.036,1.066-0.142,1.777-0.314s1.294-0.405,1.75-0.697c0.729-0.492,1.294-1.007,1.695-1.545s0.793-1.28,1.176-2.229
			c1.95-4.867,4.102-10.336,6.453-16.406s4.448-11.476,6.289-16.215h2.188l12.934,33.469c0.273,0.711,0.583,1.285,0.93,1.723
			s0.829,0.866,1.449,1.285c0.419,0.255,0.966,0.47,1.641,0.643s1.239,0.269,1.695,0.287V313.217z M250.922,297.358l-5.877-15.058
			l-5.793,15.058H250.922z"/>
		<path fill="#F5F5F5" d="M313.34,276.358c-0.511,0.019-1.295,0.164-2.352,0.438c-1.058,0.273-1.814,0.556-2.27,0.848
			c-0.656,0.456-1.099,1.331-1.326,2.625c-0.229,1.294-0.342,2.935-0.342,4.922v28.41h-2.379l-23.516-31.746v20.016
			c0,2.242,0.141,3.965,0.424,5.168c0.282,1.203,0.715,2.06,1.299,2.57c0.419,0.401,1.285,0.774,2.598,1.121
			s2.178,0.528,2.598,0.547v1.941H272.16v-1.941c0.492-0.036,1.321-0.214,2.488-0.533c1.166-0.319,1.896-0.606,2.188-0.861
			c0.638-0.511,1.075-1.29,1.312-2.338c0.236-1.048,0.355-2.839,0.355-5.373v-19.113c0-0.839-0.146-1.677-0.438-2.516
			c-0.292-0.839-0.684-1.485-1.176-1.941c-0.656-0.602-1.545-1.116-2.666-1.545s-2.028-0.661-2.721-0.697v-1.941h11.085l21.81,29.58
			v-18.453c0-2.26-0.146-3.996-0.438-5.208c-0.292-1.212-0.711-2.019-1.258-2.42c-0.511-0.346-1.345-0.683-2.502-1.011
			c-1.158-0.328-2.037-0.511-2.639-0.547v-1.941h15.777V276.358z"/>
		<path fill="#F5F5F5" d="M339.159,314.147c-2.312,0-4.53-0.456-6.652-1.368s-4.003-2.226-5.642-3.94
			c-1.621-1.714-2.915-3.808-3.88-6.279c-0.966-2.472-1.448-5.258-1.448-8.359c0-3.101,0.474-5.915,1.421-8.441
			c0.946-2.526,2.258-4.701,3.934-6.525c1.657-1.806,3.615-3.201,5.873-4.187c2.259-0.985,4.672-1.478,7.24-1.478
			c1.912,0,3.642,0.237,5.189,0.711c1.549,0.474,3.023,1.14,4.426,1.996l1.12-1.859h2.188l0.246,13.836h-2.242
			c-0.291-1.349-0.729-2.812-1.311-4.389c-0.583-1.577-1.266-2.912-2.049-4.006c-0.874-1.239-1.912-2.21-3.113-2.912
			c-1.202-0.702-2.576-1.053-4.124-1.053c-1.766,0-3.409,0.392-4.93,1.177c-1.521,0.784-2.836,1.942-3.946,3.475
			c-1.056,1.479-1.885,3.357-2.485,5.638s-0.901,4.825-0.901,7.635c0,2.481,0.314,4.757,0.942,6.827
			c0.628,2.071,1.525,3.891,2.69,5.46c1.165,1.551,2.545,2.764,4.138,3.64s3.373,1.313,5.34,1.313c1.476,0,2.832-0.232,4.07-0.697
			c1.237-0.465,2.312-1.08,3.223-1.846c0.91-0.802,1.711-1.714,2.403-2.734s1.257-2.133,1.693-3.336l2.051,0.984
			c-1.566,3.847-3.643,6.595-6.229,8.244C345.808,313.322,342.729,314.147,339.159,314.147z"/>
		<path fill="#F5F5F5" d="M380.595,313.217h-17.473v-1.941c0.492-0.036,1.203-0.091,2.133-0.164s1.586-0.183,1.969-0.328
			c0.602-0.237,1.039-0.561,1.312-0.971s0.41-0.979,0.41-1.709v-28.109c0-0.638-0.101-1.171-0.301-1.6
			c-0.201-0.429-0.675-0.788-1.422-1.08c-0.547-0.219-1.235-0.424-2.064-0.615c-0.83-0.191-1.509-0.306-2.037-0.342v-1.941h17.473
			v1.941c-0.565,0.019-1.24,0.087-2.023,0.205c-0.784,0.118-1.468,0.269-2.051,0.451c-0.693,0.219-1.158,0.574-1.395,1.066
			c-0.237,0.492-0.355,1.039-0.355,1.641v28.082c0,0.602,0.132,1.135,0.396,1.6c0.264,0.465,0.715,0.834,1.354,1.107
			c0.383,0.146,1.007,0.306,1.873,0.479c0.865,0.173,1.6,0.269,2.201,0.287V313.217z"/>
		<path fill="#F5F5F5" d="M427.237,313.217h-16.128v-1.941c1.422-0.091,2.602-0.273,3.541-0.547c0.938-0.273,1.408-0.61,1.408-1.012
			c0-0.164-0.019-0.364-0.055-0.602c-0.037-0.237-0.092-0.446-0.164-0.629l-3.214-8.695h-13.62
			c-0.511,1.276-0.926,2.388-1.246,3.336c-0.319,0.948-0.606,1.823-0.862,2.625c-0.237,0.784-0.401,1.422-0.493,1.914
			c-0.091,0.492-0.137,0.894-0.137,1.203c0,0.729,0.574,1.294,1.723,1.695s2.443,0.638,3.884,0.711v1.941h-14.613v-1.941
			c0.475-0.036,1.066-0.142,1.777-0.314s1.294-0.405,1.75-0.697c0.729-0.492,1.294-1.007,1.695-1.545s0.793-1.28,1.176-2.229
			c1.95-4.867,4.102-10.336,6.453-16.406s4.448-11.476,6.289-16.215h2.188l12.934,33.469c0.273,0.711,0.583,1.285,0.93,1.723
			s0.829,0.866,1.449,1.285c0.419,0.255,0.966,0.47,1.641,0.643s1.239,0.269,1.695,0.287V313.217z M411.627,297.358L405.75,282.3
			l-5.793,15.058H411.627z"/>
		<path fill="#F5F5F5" d="M465.376,301.678l-0.82,11.539h-30.324v-1.941c0.438-0.036,1.071-0.101,1.9-0.191s1.408-0.21,1.736-0.355
			c0.547-0.237,0.943-0.583,1.189-1.039s0.369-1.039,0.369-1.75v-27.781c0-0.62-0.104-1.167-0.314-1.641s-0.624-0.856-1.244-1.148
			c-0.419-0.219-1.007-0.433-1.764-0.643s-1.381-0.333-1.873-0.369v-1.941h16.379v1.941c-0.511,0.019-1.171,0.109-1.982,0.273
			s-1.399,0.31-1.764,0.438c-0.62,0.219-1.044,0.593-1.271,1.121s-0.342,1.094-0.342,1.695v26.059c0,1.203,0.06,2.138,0.178,2.803
			s0.396,1.181,0.834,1.545c0.419,0.328,1.044,0.542,1.873,0.643s1.991,0.15,3.486,0.15c0.675,0,1.376-0.019,2.105-0.055
			s1.422-0.109,2.078-0.219c0.638-0.109,1.226-0.26,1.764-0.451s0.935-0.433,1.189-0.725c0.747-0.839,1.618-2.11,2.611-3.814
			s1.682-3.085,2.064-4.143H465.376z"/>
		<path fill="#F5F5F5" d="M509.689,313.217h-17.473v-1.941c0.492-0.036,1.203-0.091,2.133-0.164s1.586-0.183,1.969-0.328
			c0.602-0.237,1.039-0.561,1.312-0.971s0.41-0.979,0.41-1.709v-28.109c0-0.638-0.101-1.171-0.301-1.6s-0.675-0.788-1.422-1.08
			c-0.547-0.219-1.235-0.424-2.064-0.615s-1.509-0.306-2.037-0.342v-1.941h17.473v1.941c-0.565,0.019-1.239,0.087-2.023,0.205
			s-1.468,0.269-2.051,0.451c-0.692,0.219-1.157,0.574-1.395,1.066s-0.355,1.039-0.355,1.641v28.082c0,0.602,0.132,1.135,0.396,1.6
			s0.716,0.834,1.354,1.107c0.383,0.146,1.007,0.306,1.873,0.479s1.6,0.269,2.201,0.287V313.217z"/>
		<path fill="#F5F5F5" d="M559.97,276.358c-0.511,0.019-1.295,0.164-2.352,0.438c-1.058,0.273-1.814,0.556-2.27,0.848
			c-0.656,0.456-1.099,1.331-1.326,2.625c-0.229,1.294-0.342,2.935-0.342,4.922v28.41h-2.379l-23.516-31.746v20.016
			c0,2.242,0.141,3.965,0.424,5.168c0.282,1.203,0.715,2.06,1.299,2.57c0.419,0.401,1.285,0.774,2.598,1.121
			s2.178,0.528,2.598,0.547v1.941H518.79v-1.941c0.492-0.036,1.321-0.214,2.488-0.533c1.166-0.319,1.896-0.606,2.188-0.861
			c0.638-0.511,1.075-1.29,1.312-2.338c0.236-1.048,0.355-2.839,0.355-5.373v-19.113c0-0.839-0.146-1.677-0.438-2.516
			c-0.292-0.839-0.684-1.485-1.176-1.941c-0.656-0.602-1.545-1.116-2.666-1.545s-2.028-0.661-2.721-0.697v-1.941h11.085l21.81,29.58
			v-18.453c0-2.26-0.146-3.996-0.438-5.208c-0.292-1.212-0.711-2.019-1.258-2.42c-0.511-0.346-1.345-0.683-2.502-1.011
			c-1.158-0.328-2.037-0.511-2.639-0.547v-1.941h15.777V276.358z"/>
		<path fill="#F5F5F5" d="M608.526,276.358c-0.511,0.019-1.294,0.164-2.352,0.438s-1.813,0.556-2.27,0.848
			c-0.656,0.456-1.099,1.331-1.326,2.625s-0.342,2.935-0.342,4.922v28.41h-2.379l-23.516-31.746v20.016
			c0,2.242,0.142,3.965,0.424,5.168s0.716,2.06,1.299,2.57c0.419,0.401,1.285,0.774,2.598,1.121s2.179,0.528,2.598,0.547v1.941
			h-15.914v-1.941c0.492-0.036,1.321-0.214,2.488-0.533s1.896-0.606,2.188-0.861c0.638-0.511,1.075-1.29,1.312-2.338
			s0.355-2.839,0.355-5.373v-19.113c0-0.839-0.146-1.677-0.438-2.516s-0.684-1.485-1.176-1.941
			c-0.656-0.602-1.545-1.116-2.666-1.545s-2.028-0.661-2.721-0.697v-1.941h11.086l21.809,29.58v-18.453
			c0-2.26-0.146-3.996-0.438-5.208s-0.711-2.019-1.258-2.42c-0.511-0.346-1.345-0.683-2.502-1.011s-2.037-0.511-2.639-0.547v-1.941
			h15.777V276.358z"/>
		<path fill="#F5F5F5" d="M648.606,279.01c1.714,1.786,3.054,3.942,4.02,6.467s1.449,5.318,1.449,8.381
			c0,3.081-0.492,5.879-1.477,8.395s-2.352,4.657-4.102,6.426c-1.695,1.75-3.664,3.099-5.906,4.047
			c-2.242,0.947-4.63,1.422-7.164,1.422c-2.698,0-5.19-0.506-7.479-1.518s-4.252-2.42-5.893-4.225
			c-1.641-1.769-2.931-3.915-3.869-6.439s-1.408-5.228-1.408-8.107c0-3.153,0.492-5.966,1.477-8.436s2.343-4.607,4.074-6.412
			c1.714-1.786,3.705-3.153,5.975-4.102s4.644-1.422,7.123-1.422c2.57,0,4.995,0.483,7.273,1.449S646.947,277.26,648.606,279.01z
			 M644.532,306.518c1.021-1.659,1.764-3.536,2.229-5.633s0.697-4.438,0.697-7.027c0-2.661-0.26-5.104-0.779-7.328
			s-1.28-4.12-2.283-5.688c-1.003-1.55-2.261-2.757-3.773-3.623s-3.245-1.299-5.195-1.299c-2.188,0-4.047,0.501-5.578,1.504
			s-2.78,2.343-3.746,4.02c-0.911,1.604-1.591,3.481-2.037,5.633s-0.67,4.411-0.67,6.781c0,2.625,0.237,4.995,0.711,7.109
			s1.222,3.992,2.242,5.633c0.984,1.604,2.224,2.857,3.719,3.76s3.281,1.354,5.359,1.354c1.95,0,3.71-0.456,5.277-1.367
			S643.548,308.159,644.532,306.518z"/>
		<path fill="#F5F5F5" d="M700.336,276.358c-0.475,0.019-1.049,0.123-1.723,0.314c-0.675,0.191-1.23,0.424-1.668,0.697
			c-0.62,0.383-1.117,0.875-1.49,1.477c-0.374,0.602-0.743,1.312-1.107,2.133c-1.222,2.898-3.054,7.415-5.496,13.549
			c-2.443,6.134-4.959,12.528-7.547,19.182h-2.27c-2.625-7.055-5.159-13.854-7.602-20.398c-2.443-6.544-4.102-10.965-4.977-13.262
			c-0.219-0.565-0.511-1.062-0.875-1.49c-0.365-0.429-0.848-0.834-1.449-1.217c-0.492-0.31-1.039-0.542-1.641-0.697
			s-1.157-0.251-1.668-0.287v-1.941h16.056v1.941c-1.367,0.073-2.521,0.21-3.459,0.41c-0.939,0.2-1.408,0.556-1.408,1.066
			c0,0.2,0.036,0.438,0.109,0.711c0.072,0.273,0.137,0.492,0.191,0.656c0.674,1.786,1.768,4.7,3.281,8.741
			c1.513,4.04,3.664,9.792,6.453,17.254c1.385-3.375,2.98-7.361,4.785-11.959c1.805-4.597,3.017-7.753,3.637-9.468
			c0.602-1.66,0.952-2.81,1.053-3.447c0.1-0.638,0.15-1.157,0.15-1.559c0-0.419-0.188-0.771-0.561-1.053
			c-0.374-0.282-0.871-0.524-1.49-0.725c-0.602-0.183-1.213-0.319-1.832-0.41c-0.62-0.091-1.249-0.164-1.887-0.219v-1.941h14.433
			V276.358z"/>
		<path fill="#F5F5F5" d="M743.643,313.217h-16.128v-1.941c1.422-0.091,2.602-0.273,3.54-0.547c0.939-0.273,1.408-0.61,1.408-1.012
			c0-0.164-0.018-0.364-0.055-0.602c-0.036-0.237-0.091-0.446-0.163-0.629l-3.214-8.695h-13.62
			c-0.511,1.276-0.926,2.388-1.246,3.336c-0.319,0.948-0.606,1.823-0.862,2.625c-0.237,0.784-0.401,1.422-0.493,1.914
			c-0.091,0.492-0.137,0.894-0.137,1.203c0,0.729,0.574,1.294,1.723,1.695s2.443,0.638,3.884,0.711v1.941h-14.613v-1.941
			c0.475-0.036,1.066-0.142,1.777-0.314s1.294-0.405,1.75-0.697c0.729-0.492,1.294-1.007,1.695-1.545s0.793-1.28,1.176-2.229
			c1.95-4.867,4.102-10.336,6.453-16.406s4.448-11.476,6.289-16.215h2.188l12.934,33.469c0.273,0.711,0.583,1.285,0.93,1.723
			c0.346,0.438,0.829,0.866,1.449,1.285c0.419,0.255,0.966,0.47,1.641,0.643c0.674,0.173,1.239,0.269,1.695,0.287V313.217z
			 M728.032,297.358l-5.877-15.058l-5.793,15.058H728.032z"/>
		<path fill="#F5F5F5" d="M782.191,284.944h-1.887c-0.164-0.656-0.461-1.436-0.891-2.338s-0.909-1.755-1.438-2.557
			c-0.549-0.839-1.147-1.572-1.796-2.201s-1.274-0.989-1.877-1.08c-0.566-0.073-1.278-0.128-2.138-0.164
			c-0.858-0.036-1.653-0.055-2.384-0.055h-1.59v31.035c0,0.602,0.127,1.153,0.383,1.654c0.255,0.501,0.701,0.889,1.34,1.162
			c0.328,0.128,1.016,0.301,2.064,0.52c1.048,0.219,1.863,0.337,2.447,0.355v1.941h-18.32v-1.941
			c0.51-0.036,1.289-0.109,2.338-0.219c1.048-0.109,1.772-0.246,2.174-0.41c0.602-0.237,1.043-0.579,1.326-1.025
			c0.282-0.446,0.424-1.044,0.424-1.791v-31.281h-1.586c-0.565,0-1.268,0.014-2.105,0.041c-0.839,0.027-1.641,0.087-2.406,0.178
			c-0.602,0.073-1.227,0.433-1.873,1.08c-0.647,0.647-1.244,1.381-1.791,2.201s-1.03,1.69-1.449,2.611
			c-0.42,0.921-0.711,1.682-0.875,2.283h-1.914v-10.527h33.824V284.944z"/>
		<path fill="#F5F5F5" d="M807.835,313.217h-17.473v-1.941c0.492-0.036,1.203-0.091,2.133-0.164s1.586-0.183,1.969-0.328
			c0.602-0.237,1.039-0.561,1.312-0.971s0.41-0.979,0.41-1.709v-28.109c0-0.638-0.101-1.171-0.301-1.6
			c-0.201-0.429-0.675-0.788-1.422-1.08c-0.547-0.219-1.235-0.424-2.064-0.615c-0.83-0.191-1.509-0.306-2.037-0.342v-1.941h17.473
			v1.941c-0.565,0.019-1.24,0.087-2.023,0.205c-0.784,0.118-1.468,0.269-2.051,0.451c-0.693,0.219-1.158,0.574-1.395,1.066
			c-0.237,0.492-0.355,1.039-0.355,1.641v28.082c0,0.602,0.132,1.135,0.396,1.6c0.264,0.465,0.715,0.834,1.354,1.107
			c0.383,0.146,1.007,0.306,1.873,0.479c0.865,0.173,1.6,0.269,2.201,0.287V313.217z"/>
		<path fill="#F5F5F5" d="M849.638,279.01c1.713,1.786,3.053,3.942,4.02,6.467c0.966,2.524,1.449,5.318,1.449,8.381
			c0,3.081-0.492,5.879-1.477,8.395s-2.352,4.657-4.102,6.426c-1.695,1.75-3.664,3.099-5.906,4.047
			c-2.242,0.947-4.631,1.422-7.164,1.422c-2.698,0-5.191-0.506-7.479-1.518c-2.288-1.012-4.252-2.42-5.893-4.225
			c-1.641-1.769-2.931-3.915-3.869-6.439c-0.939-2.524-1.408-5.228-1.408-8.107c0-3.153,0.492-5.966,1.477-8.436
			s2.342-4.607,4.074-6.412c1.713-1.786,3.705-3.153,5.975-4.102s4.644-1.422,7.123-1.422c2.57,0,4.994,0.483,7.273,1.449
			C846.01,275.902,847.979,277.26,849.638,279.01z M845.563,306.518c1.021-1.659,1.764-3.536,2.229-5.633s0.697-4.438,0.697-7.027
			c0-2.661-0.26-5.104-0.779-7.328s-1.281-4.12-2.283-5.688c-1.003-1.55-2.261-2.757-3.773-3.623
			c-1.514-0.866-3.245-1.299-5.195-1.299c-2.188,0-4.047,0.501-5.578,1.504s-2.78,2.343-3.746,4.02
			c-0.912,1.604-1.591,3.481-2.037,5.633c-0.447,2.151-0.67,4.411-0.67,6.781c0,2.625,0.236,4.995,0.711,7.109
			c0.474,2.114,1.221,3.992,2.242,5.633c0.984,1.604,2.224,2.857,3.719,3.76c1.494,0.902,3.281,1.354,5.359,1.354
			c1.95,0,3.709-0.456,5.277-1.367C843.303,309.435,844.579,308.159,845.563,306.518z"/>
		<path fill="#F5F5F5" d="M905.387,276.358c-0.511,0.019-1.295,0.164-2.352,0.438c-1.058,0.273-1.814,0.556-2.27,0.848
			c-0.656,0.456-1.099,1.331-1.326,2.625c-0.229,1.294-0.342,2.935-0.342,4.922v28.41h-2.379l-23.516-31.746v20.016
			c0,2.242,0.141,3.965,0.424,5.168c0.282,1.203,0.715,2.06,1.299,2.57c0.419,0.401,1.285,0.774,2.598,1.121
			s2.178,0.528,2.598,0.547v1.941h-15.914v-1.941c0.492-0.036,1.321-0.214,2.488-0.533c1.166-0.319,1.896-0.606,2.188-0.861
			c0.638-0.511,1.075-1.29,1.312-2.338c0.236-1.048,0.355-2.839,0.355-5.373v-19.113c0-0.839-0.146-1.677-0.438-2.516
			c-0.292-0.839-0.684-1.485-1.176-1.941c-0.656-0.602-1.545-1.116-2.666-1.545s-2.028-0.661-2.721-0.697v-1.941h11.085l21.81,29.58
			v-18.453c0-2.26-0.146-3.996-0.438-5.208c-0.292-1.212-0.711-2.019-1.258-2.42c-0.511-0.346-1.345-0.683-2.502-1.011
			c-1.158-0.328-2.037-0.511-2.639-0.547v-1.941h15.777V276.358z"/>
		<path fill="#F5F5F5" d="M168.39,376.589h-12.48v-1.387c0.352-0.026,0.859-0.065,1.523-0.117s1.133-0.13,1.406-0.234
			c0.43-0.169,0.742-0.4,0.938-0.693s0.293-0.7,0.293-1.221v-20.078c0-0.456-0.071-0.837-0.215-1.143s-0.481-0.563-1.016-0.771
			c-0.391-0.156-0.882-0.303-1.475-0.439s-1.077-0.218-1.455-0.244v-1.387h12.48v1.387c-0.403,0.013-0.886,0.062-1.445,0.146
			s-1.048,0.192-1.465,0.322c-0.495,0.156-0.827,0.41-0.996,0.762s-0.254,0.742-0.254,1.172v20.059c0,0.43,0.095,0.811,0.283,1.143
			s0.511,0.596,0.967,0.791c0.273,0.104,0.72,0.218,1.338,0.342s1.143,0.192,1.572,0.205V376.589z"/>
		<path fill="#F5F5F5" d="M204.304,350.261c-0.364,0.013-0.925,0.117-1.68,0.312s-1.296,0.397-1.621,0.605
			c-0.469,0.325-0.784,0.95-0.947,1.875s-0.244,2.097-0.244,3.516v20.293h-1.699l-16.797-22.676v14.297
			c0,1.602,0.101,2.832,0.303,3.691s0.511,1.472,0.928,1.836c0.3,0.286,0.918,0.554,1.855,0.801s1.556,0.378,1.855,0.391v1.387
			H174.89v-1.387c0.352-0.026,0.944-0.153,1.777-0.381s1.354-0.433,1.562-0.615c0.456-0.364,0.769-0.921,0.938-1.67
			s0.254-2.028,0.254-3.838v-13.652c0-0.599-0.104-1.197-0.312-1.797c-0.208-0.599-0.488-1.062-0.84-1.387
			c-0.469-0.43-1.104-0.798-1.904-1.104s-1.448-0.472-1.943-0.498v-1.387h7.918l15.578,21.129v-13.181
			c0-1.614-0.104-2.854-0.312-3.721c-0.208-0.865-0.508-1.441-0.898-1.729c-0.364-0.247-0.96-0.487-1.787-0.722
			s-1.455-0.364-1.885-0.391v-1.387h11.27V350.261z"/>
		<path fill="#F5F5F5" d="M246.737,356.394h-1.348c-0.117-0.469-0.329-1.025-0.636-1.67s-0.649-1.253-1.028-1.826
			c-0.392-0.599-0.818-1.123-1.282-1.572c-0.463-0.449-0.91-0.706-1.341-0.771c-0.404-0.052-0.913-0.091-1.526-0.117
			s-1.182-0.039-1.703-0.039h-1.136v22.168c0,0.43,0.091,0.823,0.273,1.182s0.501,0.635,0.957,0.83
			c0.234,0.091,0.726,0.215,1.475,0.371s1.331,0.241,1.748,0.254v1.387h-13.086v-1.387c0.364-0.026,0.921-0.078,1.67-0.156
			s1.267-0.176,1.553-0.293c0.43-0.169,0.745-0.413,0.947-0.732s0.303-0.745,0.303-1.279v-22.344h-1.133
			c-0.403,0-0.905,0.01-1.504,0.029s-1.172,0.062-1.719,0.127c-0.43,0.052-0.876,0.31-1.338,0.771s-0.889,0.986-1.279,1.572
			s-0.735,1.208-1.035,1.865s-0.508,1.201-0.625,1.631h-1.367v-7.52h24.16V356.394z"/>
		<path fill="#F5F5F5" d="M279.937,376.589h-7.463c-1.652-2.591-3.145-4.831-4.479-6.719c-1.333-1.888-2.78-3.835-4.341-5.84h-2.839
			v8.789c0,0.456,0.071,0.856,0.215,1.201s0.449,0.608,0.918,0.791c0.234,0.091,0.645,0.176,1.23,0.254s1.081,0.124,1.484,0.137
			v1.387h-11.719v-1.387c0.312-0.026,0.765-0.071,1.357-0.137s1.006-0.149,1.24-0.254c0.391-0.169,0.674-0.417,0.85-0.742
			s0.264-0.742,0.264-1.25v-20.039c0-0.456-0.065-0.859-0.195-1.211s-0.437-0.618-0.918-0.801c-0.325-0.117-0.749-0.225-1.27-0.322
			s-0.964-0.159-1.328-0.186v-1.387h12.793c1.172,0,2.272,0.12,3.301,0.361s1.96,0.628,2.793,1.162
			c0.808,0.521,1.452,1.201,1.934,2.041s0.723,1.853,0.723,3.037c0,1.067-0.163,2.012-0.488,2.832s-0.808,1.53-1.445,2.129
			c-0.586,0.56-1.289,1.045-2.109,1.455s-1.726,0.759-2.715,1.045c1.367,1.81,2.503,3.333,3.408,4.57s2.015,2.741,3.33,4.512
			c0.573,0.781,1.091,1.357,1.553,1.729s0.921,0.674,1.377,0.908c0.339,0.169,0.762,0.3,1.27,0.391s0.931,0.144,1.27,0.156V376.589z
			 M269.663,355.936c0-1.677-0.481-3.007-1.445-3.988s-2.324-1.472-4.082-1.472h-3.32v11.875h2.559c1.797,0,3.294-0.575,4.492-1.726
			S269.663,357.912,269.663,355.936z"/>
		<path fill="#F5F5F5" d="M310.851,376.589h-11.52v-1.387c1.016-0.065,1.858-0.195,2.528-0.391c0.671-0.195,1.006-0.437,1.006-0.723
			c0-0.117-0.013-0.261-0.039-0.43s-0.064-0.319-0.116-0.449l-2.296-6.211h-9.729c-0.365,0.911-0.662,1.706-0.89,2.383
			c-0.229,0.677-0.434,1.302-0.616,1.875c-0.17,0.56-0.287,1.016-0.353,1.367s-0.098,0.638-0.098,0.859
			c0,0.521,0.41,0.925,1.23,1.211s1.745,0.456,2.773,0.508v1.387h-10.438v-1.387c0.339-0.026,0.762-0.101,1.27-0.225
			s0.925-0.29,1.25-0.498c0.521-0.352,0.925-0.72,1.211-1.104s0.566-0.915,0.84-1.592c1.394-3.477,2.93-7.383,4.609-11.719
			s3.177-8.196,4.492-11.582h1.562l9.238,23.906c0.195,0.508,0.417,0.918,0.664,1.23s0.593,0.618,1.035,0.918
			c0.3,0.183,0.69,0.335,1.172,0.459s0.886,0.192,1.211,0.205V376.589z M299.7,365.261l-4.197-10.755l-4.139,10.755H299.7z"/>
		<path fill="#F5F5F5" d="M344.284,350.261c-0.364,0.013-0.925,0.117-1.68,0.312s-1.296,0.397-1.621,0.605
			c-0.469,0.325-0.784,0.95-0.947,1.875s-0.244,2.097-0.244,3.516v20.293h-1.699l-16.797-22.676v14.297
			c0,1.602,0.101,2.832,0.303,3.691s0.511,1.472,0.928,1.836c0.3,0.286,0.918,0.554,1.855,0.801s1.556,0.378,1.855,0.391v1.387
			H314.87v-1.387c0.352-0.026,0.944-0.153,1.777-0.381s1.354-0.433,1.562-0.615c0.456-0.364,0.769-0.921,0.938-1.67
			s0.254-2.028,0.254-3.838v-13.652c0-0.599-0.104-1.197-0.312-1.797c-0.208-0.599-0.488-1.062-0.84-1.387
			c-0.469-0.43-1.104-0.798-1.904-1.104s-1.448-0.472-1.943-0.498v-1.387h7.918l15.578,21.129v-13.181
			c0-1.614-0.104-2.854-0.312-3.721c-0.208-0.865-0.508-1.441-0.898-1.729c-0.364-0.247-0.96-0.487-1.787-0.722
			s-1.455-0.364-1.885-0.391v-1.387h11.27V350.261z"/>
		<path fill="#F5F5F5" d="M367.776,363.874c0.586,0.651,1.019,1.364,1.299,2.139s0.42,1.677,0.42,2.705
			c0,2.448-0.905,4.466-2.715,6.055s-4.056,2.383-6.738,2.383c-1.237,0-2.474-0.192-3.711-0.576s-2.305-0.85-3.203-1.396
			l-0.84,1.426h-1.562l-0.273-9.492h1.582c0.325,1.172,0.706,2.229,1.143,3.174s1.013,1.826,1.729,2.646
			c0.677,0.769,1.468,1.38,2.373,1.836s1.956,0.684,3.154,0.684c0.898,0,1.683-0.117,2.354-0.352
			c0.671-0.235,1.214-0.567,1.631-0.998c0.417-0.43,0.726-0.936,0.928-1.516s0.303-1.248,0.303-2.005c0-1.108-0.312-2.142-0.938-3.1
			s-1.556-1.686-2.793-2.181c-0.847-0.337-1.816-0.71-2.91-1.118s-2.038-0.794-2.832-1.157c-1.562-0.703-2.776-1.624-3.643-2.763
			c-0.866-1.14-1.299-2.627-1.299-4.462c0-1.055,0.215-2.037,0.645-2.948c0.43-0.912,1.042-1.726,1.836-2.441
			c0.755-0.677,1.647-1.207,2.676-1.591s2.103-0.576,3.223-0.576c1.276,0,2.419,0.195,3.428,0.586s1.931,0.847,2.764,1.367
			l0.801-1.328h1.562l0.156,9.199h-1.582c-0.286-1.055-0.608-2.063-0.967-3.027c-0.358-0.963-0.823-1.836-1.396-2.617
			c-0.56-0.755-1.243-1.357-2.051-1.807s-1.797-0.674-2.969-0.674c-1.237,0-2.292,0.397-3.164,1.191s-1.309,1.765-1.309,2.91
			c0,1.198,0.28,2.19,0.84,2.979s1.374,1.436,2.441,1.943c0.95,0.456,1.885,0.85,2.803,1.182s1.807,0.687,2.666,1.064
			c0.781,0.339,1.533,0.723,2.256,1.152S367.242,363.301,367.776,363.874z"/>
		<path fill="#F5F5F5" d="M402.812,376.589h-11.52v-1.387c1.016-0.065,1.858-0.195,2.528-0.391c0.671-0.195,1.006-0.437,1.006-0.723
			c0-0.117-0.013-0.261-0.039-0.43s-0.064-0.319-0.116-0.449l-2.296-6.211h-9.729c-0.365,0.911-0.662,1.706-0.89,2.383
			c-0.229,0.677-0.434,1.302-0.616,1.875c-0.17,0.56-0.287,1.016-0.353,1.367s-0.098,0.638-0.098,0.859
			c0,0.521,0.41,0.925,1.23,1.211s1.745,0.456,2.773,0.508v1.387h-10.438v-1.387c0.339-0.026,0.762-0.101,1.27-0.225
			s0.925-0.29,1.25-0.498c0.521-0.352,0.925-0.72,1.211-1.104s0.566-0.915,0.84-1.592c1.394-3.477,2.93-7.383,4.609-11.719
			s3.177-8.196,4.492-11.582h1.562l9.238,23.906c0.195,0.508,0.417,0.918,0.664,1.23s0.593,0.618,1.035,0.918
			c0.3,0.183,0.69,0.335,1.172,0.459s0.886,0.192,1.211,0.205V376.589z M391.661,365.261l-4.197-10.755l-4.139,10.755H391.661z"/>
		<path fill="#F5F5F5" d="M420.005,377.253c-1.652,0-3.236-0.326-4.752-0.978c-1.517-0.651-2.859-1.589-4.03-2.813
			c-1.158-1.226-2.082-2.721-2.771-4.486c-0.689-1.765-1.034-3.756-1.034-5.971s0.338-4.225,1.015-6.029s1.613-3.358,2.81-4.661
			c1.185-1.29,2.583-2.287,4.195-2.99c1.613-0.704,3.337-1.056,5.172-1.056c1.365,0,2.601,0.169,3.707,0.508
			c1.105,0.339,2.159,0.813,3.161,1.426l0.8-1.328h1.562l0.176,9.883h-1.602c-0.208-0.964-0.521-2.009-0.937-3.135
			s-0.903-2.08-1.463-2.861c-0.624-0.886-1.365-1.579-2.224-2.08s-1.841-0.752-2.945-0.752c-1.262,0-2.436,0.28-3.521,0.84
			c-1.086,0.561-2.025,1.389-2.819,2.482c-0.754,1.057-1.346,2.398-1.775,4.027c-0.429,1.629-0.644,3.446-0.644,5.453
			c0,1.772,0.225,3.398,0.673,4.877c0.449,1.479,1.09,2.779,1.922,3.899c0.833,1.108,1.817,1.975,2.956,2.6
			c1.138,0.626,2.409,0.938,3.814,0.938c1.053,0,2.022-0.166,2.906-0.498c0.885-0.332,1.651-0.771,2.303-1.318
			c0.649-0.573,1.222-1.224,1.716-1.953c0.495-0.729,0.898-1.523,1.21-2.383l1.465,0.703c-1.118,2.747-2.602,4.71-4.449,5.889
			S422.555,377.253,420.005,377.253z"/>
		<path fill="#F5F5F5" d="M460.03,356.394h-1.348c-0.117-0.469-0.329-1.025-0.636-1.67s-0.649-1.253-1.028-1.826
			c-0.392-0.599-0.818-1.123-1.282-1.572c-0.463-0.449-0.91-0.706-1.341-0.771c-0.404-0.052-0.913-0.091-1.526-0.117
			s-1.182-0.039-1.703-0.039h-1.136v22.168c0,0.43,0.091,0.823,0.273,1.182s0.501,0.635,0.957,0.83
			c0.234,0.091,0.726,0.215,1.475,0.371s1.331,0.241,1.748,0.254v1.387h-13.086v-1.387c0.364-0.026,0.921-0.078,1.67-0.156
			s1.267-0.176,1.553-0.293c0.43-0.169,0.745-0.413,0.947-0.732s0.303-0.745,0.303-1.279v-22.344h-1.133
			c-0.403,0-0.905,0.01-1.504,0.029s-1.172,0.062-1.719,0.127c-0.43,0.052-0.876,0.31-1.338,0.771s-0.889,0.986-1.279,1.572
			s-0.735,1.208-1.035,1.865s-0.508,1.201-0.625,1.631h-1.367v-7.52h24.16V356.394z"/>
		<path fill="#F5F5F5" d="M478.347,376.589h-12.48v-1.387c0.352-0.026,0.859-0.065,1.523-0.117s1.133-0.13,1.406-0.234
			c0.43-0.169,0.742-0.4,0.938-0.693s0.293-0.7,0.293-1.221v-20.078c0-0.456-0.071-0.837-0.215-1.143s-0.481-0.563-1.016-0.771
			c-0.391-0.156-0.882-0.303-1.475-0.439s-1.077-0.218-1.455-0.244v-1.387h12.48v1.387c-0.403,0.013-0.886,0.062-1.445,0.146
			s-1.048,0.192-1.465,0.322c-0.495,0.156-0.827,0.41-0.996,0.762s-0.254,0.742-0.254,1.172v20.059c0,0.43,0.095,0.811,0.283,1.143
			s0.511,0.596,0.967,0.791c0.273,0.104,0.72,0.218,1.338,0.342s1.143,0.192,1.572,0.205V376.589z"/>
		<path fill="#F5F5F5" d="M508.206,352.156c1.224,1.276,2.181,2.815,2.871,4.619s1.035,3.799,1.035,5.986
			c0,2.2-0.352,4.199-1.055,5.996s-1.68,3.327-2.93,4.59c-1.211,1.25-2.617,2.214-4.219,2.891s-3.308,1.016-5.117,1.016
			c-1.927,0-3.708-0.361-5.342-1.084s-3.037-1.729-4.209-3.018c-1.172-1.263-2.093-2.796-2.764-4.6s-1.006-3.733-1.006-5.791
			c0-2.253,0.352-4.261,1.055-6.025s1.673-3.291,2.91-4.58c1.224-1.276,2.646-2.253,4.268-2.93s3.317-1.016,5.088-1.016
			c1.836,0,3.567,0.345,5.195,1.035S507.021,350.906,508.206,352.156z M505.296,371.804c0.729-1.185,1.26-2.526,1.592-4.023
			s0.498-3.171,0.498-5.02c0-1.901-0.186-3.646-0.557-5.234s-0.915-2.942-1.631-4.062c-0.716-1.106-1.614-1.97-2.695-2.588
			s-2.317-0.928-3.711-0.928c-1.562,0-2.891,0.358-3.984,1.074s-1.985,1.673-2.676,2.871c-0.651,1.146-1.136,2.487-1.455,4.023
			s-0.479,3.151-0.479,4.844c0,1.875,0.169,3.567,0.508,5.078s0.872,2.852,1.602,4.023c0.703,1.146,1.589,2.041,2.656,2.686
			s2.344,0.967,3.828,0.967c1.394,0,2.649-0.325,3.77-0.977S504.593,372.976,505.296,371.804z"/>
		<path fill="#F5F5F5" d="M548.026,350.261c-0.364,0.013-0.925,0.117-1.68,0.312s-1.296,0.397-1.621,0.605
			c-0.469,0.325-0.784,0.95-0.947,1.875s-0.244,2.097-0.244,3.516v20.293h-1.699l-16.797-22.676v14.297
			c0,1.602,0.101,2.832,0.303,3.691s0.511,1.472,0.928,1.836c0.3,0.286,0.918,0.554,1.855,0.801s1.556,0.378,1.855,0.391v1.387
			h-11.367v-1.387c0.352-0.026,0.944-0.153,1.777-0.381s1.354-0.433,1.562-0.615c0.456-0.364,0.769-0.921,0.938-1.67
			s0.254-2.028,0.254-3.838v-13.652c0-0.599-0.104-1.197-0.312-1.797c-0.208-0.599-0.488-1.062-0.84-1.387
			c-0.469-0.43-1.104-0.798-1.904-1.104s-1.448-0.472-1.943-0.498v-1.387h7.918l15.578,21.129v-13.181
			c0-1.614-0.104-2.854-0.312-3.721c-0.208-0.865-0.508-1.441-0.898-1.729c-0.364-0.247-0.96-0.487-1.787-0.722
			s-1.455-0.364-1.885-0.391v-1.387h11.27V350.261z"/>
		<path fill="#F5F5F5" d="M571.519,363.874c0.586,0.651,1.019,1.364,1.299,2.139s0.42,1.677,0.42,2.705
			c0,2.448-0.905,4.466-2.715,6.055s-4.056,2.383-6.738,2.383c-1.237,0-2.474-0.192-3.711-0.576s-2.305-0.85-3.203-1.396
			l-0.84,1.426h-1.562l-0.273-9.492h1.582c0.325,1.172,0.706,2.229,1.143,3.174s1.013,1.826,1.729,2.646
			c0.677,0.769,1.468,1.38,2.373,1.836s1.956,0.684,3.154,0.684c0.898,0,1.683-0.117,2.354-0.352
			c0.671-0.235,1.214-0.567,1.631-0.998c0.417-0.43,0.726-0.936,0.928-1.516s0.303-1.248,0.303-2.005c0-1.108-0.312-2.142-0.938-3.1
			s-1.556-1.686-2.793-2.181c-0.847-0.337-1.816-0.71-2.91-1.118s-2.038-0.794-2.832-1.157c-1.562-0.703-2.776-1.624-3.643-2.763
			c-0.866-1.14-1.299-2.627-1.299-4.462c0-1.055,0.215-2.037,0.645-2.948c0.43-0.912,1.042-1.726,1.836-2.441
			c0.755-0.677,1.647-1.207,2.676-1.591s2.103-0.576,3.223-0.576c1.276,0,2.419,0.195,3.428,0.586s1.931,0.847,2.764,1.367
			l0.801-1.328h1.562l0.156,9.199h-1.582c-0.286-1.055-0.608-2.063-0.967-3.027c-0.358-0.963-0.823-1.836-1.396-2.617
			c-0.56-0.755-1.243-1.357-2.051-1.807s-1.797-0.674-2.969-0.674c-1.237,0-2.292,0.397-3.164,1.191s-1.309,1.765-1.309,2.91
			c0,1.198,0.28,2.19,0.84,2.979s1.374,1.436,2.441,1.943c0.95,0.456,1.885,0.85,2.803,1.182s1.807,0.687,2.666,1.064
			c0.781,0.339,1.533,0.723,2.256,1.152S570.984,363.301,571.519,363.874z"/>
		<path fill="#F5F5F5" d="M620.847,360.417c-0.769,0.065-1.543,0.218-2.324,0.459s-1.38,0.622-1.797,1.143
			c-0.273,0.312-0.55,0.774-0.829,1.387s-0.614,1.335-1.004,2.168s-0.786,1.653-1.188,2.461c-0.403,0.808-0.923,1.614-1.56,2.422
			c0.52,0.625,1.157,1.306,1.911,2.041c0.755,0.735,1.399,1.267,1.933,1.592c0.52,0.3,1.258,0.554,2.214,0.762
			s1.74,0.325,2.352,0.352v1.387h-8.047l-2.91-3.32c-0.43,0.469-0.921,0.954-1.475,1.455s-1.136,0.935-1.748,1.299
			c-0.677,0.391-1.357,0.696-2.041,0.918s-1.487,0.332-2.412,0.332c-0.964,0-1.921-0.14-2.871-0.42s-1.816-0.726-2.598-1.338
			c-0.755-0.599-1.367-1.367-1.836-2.305s-0.703-2.058-0.703-3.359c0-1.614,0.427-3.076,1.279-4.385s2.444-2.698,4.775-4.17
			c-1.055-1.394-1.875-2.598-2.461-3.613s-0.879-2.155-0.879-3.418c0-0.898,0.179-1.722,0.537-2.471s0.862-1.403,1.514-1.963
			c0.599-0.508,1.328-0.905,2.188-1.191s1.731-0.43,2.617-0.43c1.042,0,1.956,0.166,2.744,0.498s1.429,0.765,1.924,1.299
			c0.456,0.495,0.804,1.067,1.045,1.719s0.361,1.302,0.361,1.953c0,1.562-0.483,2.907-1.45,4.033
			c-0.968,1.126-2.302,2.139-4.003,3.037c1.223,1.653,2.42,3.161,3.591,4.521c1.17,1.36,2.296,2.698,3.376,4.014
			c0.869-1.394,1.544-2.705,2.024-3.936c0.479-1.23,0.72-2.314,0.72-3.252c0-0.417-0.303-0.745-0.908-0.986s-1.442-0.472-2.51-0.693
			v-1.387h10.449V360.417z M608.562,372.136c-1.211-1.536-2.575-3.22-4.092-5.049s-2.731-3.376-3.643-4.639
			c-1.055,0.729-1.8,1.585-2.236,2.568s-0.654,2.106-0.654,3.369c0,1.771,0.505,3.239,1.514,4.404s2.36,1.748,4.053,1.748
			c0.95,0,1.885-0.205,2.803-0.615S607.976,372.917,608.562,372.136z M607.038,354.07c0-1.328-0.292-2.347-0.876-3.057
			s-1.415-1.064-2.493-1.064c-0.61,0-1.116,0.124-1.519,0.371s-0.746,0.56-1.032,0.938c-0.26,0.364-0.448,0.755-0.564,1.172
			c-0.117,0.417-0.176,0.788-0.176,1.113c0,0.898,0.234,1.807,0.703,2.725c0.468,0.918,1.196,2.028,2.185,3.33
			c1.336-0.755,2.298-1.572,2.888-2.451S607.038,355.242,607.038,354.07z"/>
		<path fill="#F5F5F5" d="M657.675,363.874c0.586,0.651,1.019,1.364,1.299,2.139s0.42,1.677,0.42,2.705
			c0,2.448-0.905,4.466-2.715,6.055s-4.056,2.383-6.738,2.383c-1.237,0-2.474-0.192-3.711-0.576s-2.305-0.85-3.203-1.396
			l-0.84,1.426h-1.562l-0.273-9.492h1.582c0.325,1.172,0.706,2.229,1.143,3.174s1.013,1.826,1.729,2.646
			c0.677,0.769,1.468,1.38,2.373,1.836s1.956,0.684,3.154,0.684c0.898,0,1.683-0.117,2.354-0.352
			c0.671-0.235,1.214-0.567,1.631-0.998c0.417-0.43,0.726-0.936,0.928-1.516s0.303-1.248,0.303-2.005c0-1.108-0.312-2.142-0.938-3.1
			s-1.556-1.686-2.793-2.181c-0.847-0.337-1.816-0.71-2.91-1.118s-2.038-0.794-2.832-1.157c-1.562-0.703-2.776-1.624-3.643-2.763
			c-0.866-1.14-1.299-2.627-1.299-4.462c0-1.055,0.215-2.037,0.645-2.948c0.43-0.912,1.042-1.726,1.836-2.441
			c0.755-0.677,1.647-1.207,2.676-1.591s2.103-0.576,3.223-0.576c1.276,0,2.419,0.195,3.428,0.586s1.931,0.847,2.764,1.367
			l0.801-1.328h1.562l0.156,9.199h-1.582c-0.286-1.055-0.608-2.063-0.967-3.027c-0.358-0.963-0.823-1.836-1.396-2.617
			c-0.56-0.755-1.243-1.357-2.051-1.807s-1.797-0.674-2.969-0.674c-1.237,0-2.292,0.397-3.164,1.191s-1.309,1.765-1.309,2.91
			c0,1.198,0.28,2.19,0.84,2.979s1.374,1.436,2.441,1.943c0.95,0.456,1.885,0.85,2.803,1.182s1.807,0.687,2.666,1.064
			c0.781,0.339,1.533,0.723,2.256,1.152S657.141,363.301,657.675,363.874z"/>
		<path fill="#F5F5F5" d="M690.171,368.425l-0.527,8.164h-23.008v-1.387c0.391-0.026,0.911-0.081,1.562-0.166
			s1.074-0.173,1.27-0.264c0.417-0.195,0.706-0.449,0.869-0.762s0.244-0.71,0.244-1.191v-19.922c0-0.43-0.071-0.811-0.215-1.143
			s-0.442-0.603-0.898-0.811c-0.352-0.169-0.823-0.319-1.416-0.449s-1.064-0.208-1.416-0.234v-1.387h21.445v6.68h-1.465
			c-0.261-0.989-0.823-2.041-1.689-3.154s-1.689-1.722-2.471-1.826c-0.403-0.052-0.886-0.091-1.445-0.117s-1.198-0.039-1.914-0.039
			h-4.355v11.016h3.125c1.003,0,1.735-0.095,2.197-0.283s0.869-0.505,1.221-0.947c0.286-0.378,0.53-0.882,0.732-1.514
			s0.335-1.228,0.4-1.787h1.465v10.859h-1.465c-0.052-0.625-0.192-1.286-0.42-1.982s-0.466-1.201-0.713-1.514
			c-0.403-0.508-0.862-0.84-1.377-0.996s-1.194-0.234-2.041-0.234h-3.125v8.307c0,0.832,0.059,1.488,0.176,1.97
			c0.117,0.48,0.345,0.845,0.684,1.092s0.801,0.406,1.387,0.478s1.419,0.107,2.5,0.107c0.43,0,0.996,0,1.699,0
			s1.296-0.026,1.777-0.078c0.495-0.052,1.006-0.146,1.533-0.283s0.901-0.322,1.123-0.557c0.599-0.625,1.228-1.572,1.885-2.842
			s1.077-2.204,1.26-2.803H690.171z"/>
		<path fill="#F5F5F5" d="M709.2,377.253c-1.652,0-3.236-0.326-4.752-0.978c-1.517-0.651-2.859-1.589-4.03-2.813
			c-1.158-1.226-2.082-2.721-2.771-4.486c-0.689-1.765-1.034-3.756-1.034-5.971s0.338-4.225,1.015-6.029s1.613-3.358,2.81-4.661
			c1.185-1.29,2.583-2.287,4.195-2.99c1.613-0.704,3.337-1.056,5.172-1.056c1.365,0,2.601,0.169,3.707,0.508
			c1.105,0.339,2.159,0.813,3.161,1.426l0.8-1.328h1.562l0.176,9.883h-1.602c-0.208-0.964-0.521-2.009-0.937-3.135
			s-0.903-2.08-1.463-2.861c-0.624-0.886-1.365-1.579-2.224-2.08s-1.841-0.752-2.945-0.752c-1.262,0-2.436,0.28-3.521,0.84
			c-1.086,0.561-2.025,1.389-2.819,2.482c-0.754,1.057-1.346,2.398-1.775,4.027c-0.429,1.629-0.644,3.446-0.644,5.453
			c0,1.772,0.225,3.398,0.673,4.877c0.449,1.479,1.09,2.779,1.922,3.899c0.833,1.108,1.817,1.975,2.956,2.6
			c1.138,0.626,2.409,0.938,3.814,0.938c1.053,0,2.022-0.166,2.906-0.498c0.885-0.332,1.651-0.771,2.303-1.318
			c0.649-0.573,1.222-1.224,1.716-1.953c0.495-0.729,0.898-1.523,1.21-2.383l1.465,0.703c-1.118,2.747-2.602,4.71-4.449,5.889
			S711.75,377.253,709.2,377.253z"/>
		<path fill="#F5F5F5" d="M754.714,350.261c-0.364,0.013-0.898,0.091-1.602,0.234s-1.276,0.358-1.719,0.645
			c-0.442,0.3-0.749,0.918-0.918,1.855s-0.254,2.083-0.254,3.438v12.051c0,1.536-0.319,2.871-0.957,4.004s-1.478,2.063-2.52,2.793
			c-1.028,0.703-2.112,1.208-3.252,1.514s-2.229,0.459-3.271,0.459c-1.667,0-3.151-0.218-4.453-0.654s-2.396-1.025-3.281-1.768
			c-0.872-0.742-1.53-1.592-1.973-2.549s-0.664-1.956-0.664-2.998v-16.387c0-0.456-0.075-0.837-0.225-1.143s-0.452-0.589-0.908-0.85
			c-0.325-0.183-0.742-0.329-1.25-0.439s-0.925-0.179-1.25-0.205v-1.387h11.543v1.387c-0.364,0.013-0.823,0.071-1.377,0.176
			c-0.554,0.104-0.96,0.201-1.221,0.292c-0.442,0.156-0.739,0.417-0.889,0.781s-0.225,0.761-0.225,1.19v15.301
			c0,0.741,0.081,1.519,0.244,2.332s0.485,1.57,0.967,2.273c0.508,0.716,1.198,1.301,2.07,1.757c0.872,0.455,2.07,0.683,3.594,0.683
			c1.433,0,2.634-0.228,3.604-0.683c0.97-0.456,1.735-1.054,2.295-1.796c0.534-0.703,0.911-1.438,1.133-2.205
			s0.332-1.542,0.332-2.322v-11.358c0-1.444-0.104-2.625-0.312-3.542c-0.208-0.918-0.515-1.52-0.918-1.806
			c-0.456-0.325-1.077-0.579-1.865-0.762c-0.788-0.182-1.39-0.285-1.807-0.312v-1.387h11.328V350.261z"/>
		<path fill="#F5F5F5" d="M787.933,376.589h-7.463c-1.652-2.591-3.145-4.831-4.479-6.719c-1.333-1.888-2.78-3.835-4.341-5.84h-2.839
			v8.789c0,0.456,0.071,0.856,0.215,1.201s0.449,0.608,0.918,0.791c0.234,0.091,0.645,0.176,1.23,0.254s1.081,0.124,1.484,0.137
			v1.387H760.94v-1.387c0.312-0.026,0.765-0.071,1.357-0.137s1.006-0.149,1.24-0.254c0.391-0.169,0.674-0.417,0.85-0.742
			s0.264-0.742,0.264-1.25v-20.039c0-0.456-0.065-0.859-0.195-1.211s-0.437-0.618-0.918-0.801c-0.325-0.117-0.749-0.225-1.27-0.322
			s-0.964-0.159-1.328-0.186v-1.387h12.793c1.172,0,2.272,0.12,3.301,0.361s1.96,0.628,2.793,1.162
			c0.808,0.521,1.452,1.201,1.934,2.041s0.723,1.853,0.723,3.037c0,1.067-0.163,2.012-0.488,2.832s-0.808,1.53-1.445,2.129
			c-0.586,0.56-1.289,1.045-2.109,1.455s-1.726,0.759-2.715,1.045c1.367,1.81,2.503,3.333,3.408,4.57s2.015,2.741,3.33,4.512
			c0.573,0.781,1.091,1.357,1.553,1.729s0.921,0.674,1.377,0.908c0.339,0.169,0.762,0.3,1.27,0.391s0.931,0.144,1.27,0.156V376.589z
			 M777.659,355.936c0-1.677-0.481-3.007-1.445-3.988s-2.324-1.472-4.082-1.472h-3.32v11.875h2.559c1.797,0,3.294-0.575,4.492-1.726
			S777.659,357.912,777.659,355.936z"/>
		<path fill="#F5F5F5" d="M805.116,376.589h-12.48v-1.387c0.352-0.026,0.859-0.065,1.523-0.117s1.133-0.13,1.406-0.234
			c0.43-0.169,0.742-0.4,0.938-0.693s0.293-0.7,0.293-1.221v-20.078c0-0.456-0.071-0.837-0.215-1.143s-0.481-0.563-1.016-0.771
			c-0.391-0.156-0.882-0.303-1.475-0.439s-1.077-0.218-1.455-0.244v-1.387h12.48v1.387c-0.403,0.013-0.886,0.062-1.445,0.146
			s-1.048,0.192-1.465,0.322c-0.495,0.156-0.827,0.41-0.996,0.762s-0.254,0.742-0.254,1.172v20.059c0,0.43,0.095,0.811,0.283,1.143
			s0.511,0.596,0.967,0.791c0.273,0.104,0.72,0.218,1.338,0.342s1.143,0.192,1.572,0.205V376.589z"/>
		<path fill="#F5F5F5" d="M835.132,356.394h-1.348c-0.117-0.469-0.33-1.025-0.637-1.67s-0.648-1.253-1.027-1.826
			c-0.392-0.599-0.818-1.123-1.282-1.572c-0.463-0.449-0.91-0.706-1.341-0.771c-0.404-0.052-0.913-0.091-1.526-0.117
			c-0.614-0.026-1.182-0.039-1.704-0.039h-1.135v22.168c0,0.43,0.091,0.823,0.273,1.182s0.501,0.635,0.957,0.83
			c0.234,0.091,0.726,0.215,1.475,0.371s1.331,0.241,1.748,0.254v1.387h-13.086v-1.387c0.364-0.026,0.921-0.078,1.67-0.156
			s1.267-0.176,1.553-0.293c0.43-0.169,0.745-0.413,0.947-0.732s0.303-0.745,0.303-1.279v-22.344h-1.133
			c-0.403,0-0.905,0.01-1.504,0.029s-1.172,0.062-1.719,0.127c-0.43,0.052-0.876,0.31-1.338,0.771s-0.889,0.986-1.279,1.572
			s-0.735,1.208-1.035,1.865s-0.508,1.201-0.625,1.631h-1.367v-7.52h24.16V356.394z"/>
		<path fill="#F5F5F5" d="M865.089,350.261c-0.222,0.013-0.573,0.101-1.055,0.264s-0.827,0.322-1.035,0.479
			c-0.508,0.312-0.853,0.554-1.035,0.723s-0.534,0.612-1.055,1.328c-1.016,1.433-1.953,2.884-2.812,4.355s-1.934,3.34-3.223,5.605
			c-0.481,0.833-0.801,1.504-0.957,2.012s-0.234,1.243-0.234,2.207v5.293c0,0.469,0.095,0.876,0.283,1.221s0.511,0.622,0.967,0.83
			c0.273,0.104,0.762,0.231,1.465,0.381s1.27,0.231,1.699,0.244v1.387h-12.969v-1.387c0.364-0.026,0.911-0.075,1.641-0.146
			s1.237-0.166,1.523-0.283c0.469-0.195,0.791-0.462,0.967-0.801s0.264-0.755,0.264-1.25v-6.738c0-0.208-0.127-0.589-0.381-1.143
			s-0.557-1.169-0.908-1.846c-0.781-1.511-1.647-3.145-2.598-4.902s-1.777-3.262-2.48-4.512c-0.43-0.742-0.811-1.302-1.143-1.68
			s-0.713-0.71-1.143-0.996c-0.312-0.195-0.687-0.345-1.123-0.449s-0.83-0.169-1.182-0.195v-1.387h11.827v1.387
			c-1.328,0.026-2.266,0.116-2.812,0.272c-0.547,0.155-0.82,0.376-0.82,0.661c0,0.078,0.039,0.215,0.117,0.409
			s0.188,0.441,0.332,0.741c0.168,0.338,0.37,0.726,0.604,1.162c0.233,0.436,0.455,0.855,0.663,1.259
			c0.61,1.159,1.234,2.314,1.87,3.466c0.637,1.152,1.469,2.652,2.495,4.501c2.042-3.293,3.601-5.859,4.674-7.701
			s1.61-2.945,1.61-3.309c0-0.299-0.11-0.54-0.332-0.722s-0.515-0.324-0.879-0.429c-0.378-0.104-0.788-0.172-1.23-0.204
			s-0.853-0.068-1.23-0.107v-1.387h9.636V350.261z"/>
	</g>
</g>
</svg>
