<?xml version="1.0" encoding="utf-8"?>
<!-- Generator: Adobe Illustrator 17.0.2, SVG Export Plug-In . SVG Version: 6.00 Build 0)  -->
<!DOCTYPE svg PUBLIC "-//W3C//DTD SVG 1.1//EN" "http://www.w3.org/Graphics/SVG/1.1/DTD/svg11.dtd">
<svg version="1.1" id="Layer_1" xmlns="http://www.w3.org/2000/svg" xmlns:xlink="http://www.w3.org/1999/xlink" x="0px" y="0px"
	 width="300px" height="80px" viewBox="0 0 300 80" enable-background="new 0 0 300 80" xml:space="preserve">
<g>
	<g>
		<path fill="#AF9B81" d="M6.008,52.849c0.014,0,0.027-0.003,0.041-0.004v0.004l5.654,0.002c0.613,0,1.11,0.516,1.11,1.152
			c0,1.057-1.11,1.206-1.11,1.206h-2.02v0.004c-0.289,0.019-0.519,0.268-0.519,0.572c0,0.306,0.231,0.553,0.519,0.572v0.004h6.698
			c0.307,0,0.555-0.257,0.555-0.576c0-0.317-0.248-0.576-0.555-0.576h-2.788c0.208-0.351,0.331-0.763,0.331-1.206
			c0-1.272-0.994-2.304-2.22-2.304l-5.654-0.002v0.004c-0.014-0.001-0.027-0.004-0.041-0.004c-0.307,0-0.555,0.258-0.555,0.576
			C5.453,52.591,5.702,52.849,6.008,52.849z"/>
		<path fill="#AF9B81" d="M27.231,56.305c-0.014,0-0.027-0.003-0.041-0.004v0.004l-6.163,0.002c-0.613,0-1.11,0.516-1.11,1.152
			c0,1.057,1.11,1.206,1.11,1.206h2.02v0.004c0.289,0.019,0.519,0.268,0.519,0.572c0,0.306-0.231,0.553-0.519,0.572v0.004h-8.363
			c-0.307,0-0.555-0.257-0.555-0.576c0-0.317,0.248-0.576,0.555-0.576h4.453c-0.208-0.351-0.331-0.763-0.331-1.206
			c0-1.272,0.994-2.304,2.22-2.304l6.163-0.002v0.004c0.014-0.001,0.027-0.004,0.041-0.004c0.307,0,0.555,0.258,0.555,0.576
			S27.538,56.305,27.231,56.305z"/>
		<path fill="#AF9B81" d="M28.622,61.105c0-1.271-0.993-2.301-2.218-2.301h-0.761c-0.325,0-0.588,0.274-0.588,0.611
			c0,0.338,0.264,0.612,0.588,0.612h0.761c0.575,0,1.039,0.482,1.039,1.079c0,0.298-0.116,0.568-0.305,0.762
			c-0.185,0.193-0.439,0.312-0.721,0.316H22.38c-0.254-0.98-1.117-1.702-2.141-1.702c-1.226,0-2.218,1.031-2.218,2.301
			c0,1.271,0.992,2.301,2.218,2.301c1.016,0,1.873-0.71,2.134-1.678h4.033c0.005,0,0.009-0.001,0.014-0.001
			C27.637,63.397,28.622,62.372,28.622,61.105z M21.278,62.783c0,0.595-0.466,1.079-1.039,1.079c-0.575,0-1.039-0.484-1.039-1.079
			c0-0.596,0.465-1.079,1.039-1.079C20.812,61.704,21.278,62.187,21.278,62.783z"/>
		<path fill="#AF9B81" d="M28.595,50.858c0-1.271-0.993-2.301-2.218-2.301h-5.803c-0.325,0-0.588,0.274-0.588,0.611
			c0,0.338,0.264,0.612,0.588,0.612h5.803c0.575,0,1.039,0.482,1.039,1.079c0,0.298-0.116,0.568-0.305,0.762
			c-0.185,0.193-0.439,0.312-0.721,0.316h-5.982c-0.254-0.98-1.117-1.702-2.141-1.702c-1.226,0-2.218,1.031-2.218,2.301
			c0,1.271,0.992,2.301,2.218,2.301c1.016,0,1.873-0.71,2.134-1.678h5.976c0.005,0,0.009-0.001,0.014-0.001
			C27.609,53.15,28.595,52.125,28.595,50.858z M19.307,52.536c0,0.595-0.466,1.079-1.039,1.079c-0.575,0-1.039-0.484-1.039-1.079
			c0-0.596,0.465-1.079,1.039-1.079C18.841,51.457,19.307,51.939,19.307,52.536z"/>
		<path fill="#AF9B81" d="M15.219,48.577H5.703c-0.575,0-1.039-0.482-1.039-1.079c0-0.298,0.116-0.568,0.305-0.762
			c0.185-0.193,0.439-0.312,0.721-0.316h1.314v-0.007h4.425c1.224,0,2.218-1.031,2.218-2.301c0-1.267-0.986-2.292-2.204-2.3
			c-0.005,0-0.009-0.001-0.014-0.001H9.153c-0.261-0.967-1.118-1.678-2.134-1.678c-1.226,0-2.218,1.031-2.218,2.301
			s0.992,2.301,2.218,2.301c1.024,0,1.888-0.722,2.141-1.702h2.281c0.282,0.004,0.536,0.123,0.721,0.316
			c0.189,0.194,0.305,0.464,0.305,0.762c0,0.596-0.465,1.079-1.039,1.079H5.625c-0.049,0-0.096,0.008-0.142,0.02
			c-1.121,0.114-1.998,1.093-1.998,2.288c0,1.271,0.993,2.301,2.218,2.301h9.515c0.325,0,0.588-0.274,0.588-0.611
			C15.807,48.85,15.544,48.577,15.219,48.577z M7.019,43.513c-0.575,0-1.039-0.482-1.039-1.079c0-0.595,0.465-1.079,1.039-1.079
			c0.573,0,1.039,0.484,1.039,1.079C8.059,43.03,7.593,43.513,7.019,43.513z"/>
		<path fill="#AF9B81" d="M18.312,43.24h6.765h1.3c0.008,0,0.015,0,0.023,0.001c0.03,0.001,0.061,0.003,0.09,0.006
			c0.005,0.001,0.009,0.001,0.014,0.002c0.03,0.004,0.059,0.009,0.088,0.015c0.005,0.001,0.009,0.002,0.014,0.003
			c0.029,0.007,0.057,0.014,0.084,0.023c0.004,0.001,0.008,0.003,0.013,0.004c0.028,0.01,0.055,0.02,0.082,0.032
			c0.003,0.001,0.006,0.003,0.009,0.004c0.028,0.013,0.056,0.027,0.083,0.042c0.001,0,0.001,0.001,0.002,0.001
			c0.086,0.049,0.165,0.111,0.234,0.183c0.177,0.182,0.29,0.431,0.303,0.707c0.001,0.018,0.001,0.037,0.001,0.056
			c0,0.019,0,0.037-0.001,0.056c-0.013,0.276-0.127,0.524-0.303,0.707c-0.069,0.072-0.148,0.134-0.234,0.183
			c-0.001,0-0.001,0.001-0.002,0.001c-0.027,0.015-0.054,0.029-0.083,0.042c-0.003,0.001-0.006,0.003-0.009,0.004
			c-0.027,0.012-0.054,0.022-0.082,0.032c-0.004,0.001-0.008,0.003-0.013,0.004c-0.028,0.009-0.056,0.017-0.084,0.023
			c-0.005,0.001-0.009,0.002-0.014,0.003c-0.029,0.006-0.058,0.011-0.088,0.015c-0.005,0.001-0.009,0.001-0.014,0.002
			c-0.03,0.003-0.06,0.005-0.09,0.006c-0.008,0-0.015,0.001-0.023,0.001h-1.3H16.25c-0.325,0-0.588,0.274-0.588,0.612
			c0,0.337,0.264,0.611,0.588,0.611h8.827h1.3c0.69,0,1.307-0.328,1.714-0.842c0.004-0.005,0.008-0.011,0.012-0.016
			c0.018-0.023,0.036-0.046,0.053-0.07c0.008-0.011,0.016-0.023,0.024-0.035c0.012-0.018,0.025-0.036,0.037-0.054
			c0.011-0.018,0.022-0.036,0.033-0.054c0.008-0.013,0.016-0.026,0.024-0.039c0.013-0.023,0.026-0.047,0.039-0.07
			c0.005-0.009,0.01-0.017,0.014-0.026c0.015-0.028,0.029-0.057,0.042-0.086c0.002-0.004,0.004-0.009,0.006-0.013
			c0.015-0.032,0.029-0.065,0.042-0.097c0.001-0.001,0.001-0.003,0.002-0.004c0.084-0.205,0.139-0.425,0.162-0.655
			c0-0.002,0-0.003,0.001-0.005c0.003-0.032,0.005-0.064,0.007-0.096c0-0.007,0.001-0.014,0.002-0.021
			c0.002-0.039,0.003-0.079,0.003-0.118s-0.001-0.079-0.003-0.118c0-0.007-0.001-0.014-0.002-0.021
			c-0.002-0.032-0.004-0.064-0.007-0.096c0-0.002,0-0.003-0.001-0.005c-0.023-0.23-0.079-0.45-0.162-0.655
			c-0.001-0.001-0.001-0.003-0.002-0.004c-0.013-0.033-0.028-0.065-0.042-0.097c-0.002-0.004-0.004-0.009-0.006-0.013
			c-0.014-0.029-0.028-0.057-0.042-0.086c-0.005-0.009-0.01-0.017-0.014-0.026c-0.013-0.024-0.025-0.047-0.039-0.07
			c-0.008-0.013-0.016-0.026-0.024-0.04c-0.011-0.018-0.021-0.036-0.033-0.053c-0.012-0.018-0.025-0.036-0.037-0.054
			c-0.008-0.012-0.016-0.024-0.024-0.035c-0.017-0.024-0.035-0.047-0.053-0.071c-0.004-0.005-0.008-0.01-0.012-0.015
			c-0.407-0.514-1.024-0.842-1.714-0.842h-1.3h-6.765c-0.325,0-0.588,0.274-0.588,0.611C17.723,42.966,17.987,43.24,18.312,43.24z"
			/>
		<path fill="#AF9B81" d="M28.622,34.632c0-0.311-0.234-0.563-0.529-0.583v-0.004H16.815c-0.312,0-0.566,0.263-0.566,0.587
			c0,0.324,0.253,0.587,0.566,0.587h2.338c-0.212,0.357-0.337,0.778-0.337,1.229c0,1.297,1.013,2.348,2.263,2.348h3.07
			c0.259,0.999,1.139,1.734,2.184,1.734c1.25,0,2.263-1.052,2.263-2.348s-1.013-2.348-2.263-2.348c-1.064,0-1.956,0.762-2.198,1.789
			h-0.043H23.89h-2.811c-0.625,0-1.131-0.526-1.131-1.174c0-1.077,1.131-1.229,1.131-1.229h2.78h0.233h4.001v-0.004
			C28.388,35.195,28.622,34.943,28.622,34.632z M26.333,37.007c0.625,0,1.131,0.526,1.131,1.174c0,0.648-0.507,1.174-1.131,1.174
			s-1.131-0.526-1.131-1.174C25.202,37.533,25.708,37.007,26.333,37.007z"/>
		<path fill="#AF9B81" d="M4.339,35.197c0.014,0,0.027-0.003,0.041-0.004v0.004l6.637,0.002c0.613,0,1.11,0.516,1.11,1.152
			c0,1.057-1.11,1.206-1.11,1.206H4.313v0.004c-0.289,0.019-0.519,0.268-0.519,0.572c0,0.306,0.231,0.553,0.519,0.572v0.004h10.906
			c0.307,0,0.555-0.257,0.555-0.576c0-0.317-0.248-0.576-0.555-0.576h-2.312c0.208-0.351,0.331-0.763,0.331-1.206
			c0-1.272-0.994-2.304-2.22-2.304L4.38,34.045v0.004c-0.014-0.001-0.027-0.004-0.041-0.004c-0.307,0-0.555,0.258-0.555,0.576
			S4.032,35.197,4.339,35.197z"/>
		<path fill="#AF9B81" d="M26.419,16.595c-0.005,0-0.009-0.001-0.014-0.001h-3.976c-0.261-0.967-1.118-1.678-2.134-1.678
			c-1.226,0-2.218,1.031-2.218,2.301s0.992,2.301,2.218,2.301c1.024,0,1.888-0.722,2.141-1.702h3.983
			c0.282,0.004,0.536,0.123,0.721,0.316c0.189,0.194,0.305,0.464,0.305,0.762c0,0.596-0.465,1.079-1.039,1.079H15.178
			c-0.325,0-0.588,0.274-0.588,0.612c0,0.337,0.264,0.611,0.588,0.611h0.04v0.007h2.951c0.282,0.004,0.536,0.123,0.721,0.316
			c0.189,0.194,0.305,0.464,0.305,0.762c0,0.596-0.465,1.079-1.039,1.079h-6.031c-0.325,0-0.588,0.274-0.588,0.612
			c0,0.337,0.264,0.611,0.588,0.611h6.031c1.224,0,2.218-1.031,2.218-2.301c0-0.393-0.095-0.762-0.262-1.085h6.293
			c1.224,0,2.218-1.031,2.218-2.301C28.622,17.628,27.637,16.603,26.419,16.595z M20.295,18.296c-0.575,0-1.039-0.482-1.039-1.079
			c0-0.595,0.465-1.079,1.039-1.079c0.573,0,1.039,0.484,1.039,1.079C21.334,17.813,20.868,18.296,20.295,18.296z"/>
		<path fill="#AF9B81" d="M14.201,27.434c-0.005,0-0.009-0.001-0.014-0.001h-2.745c-0.261-0.967-1.118-1.678-2.134-1.678
			c-1.226,0-2.218,1.031-2.218,2.301s0.992,2.301,2.218,2.301c1.024,0,1.888-0.722,2.141-1.702h2.751
			c0.282,0.004,0.536,0.123,0.721,0.316c0.189,0.194,0.305,0.464,0.305,0.762c0,0.596-0.465,1.079-1.039,1.079h-7.66
			c-0.325,0-0.588,0.274-0.588,0.612c0,0.337,0.264,0.611,0.588,0.611h7.66c1.224,0,2.218-1.031,2.218-2.301
			C16.405,28.467,15.419,27.442,14.201,27.434z M9.309,29.135c-0.575,0-1.039-0.482-1.039-1.079c0-0.595,0.465-1.079,1.039-1.079
			c0.573,0,1.039,0.484,1.039,1.079C10.349,28.653,9.882,29.135,9.309,29.135z"/>
		<path fill="#AF9B81" d="M28.307,30.985c0,0.337-0.264,0.611-0.588,0.611h-7.189c-1.224,0-2.218-1.031-2.218-2.301
			c0-1.266,0.986-2.292,2.204-2.3c0.005,0,0.009-0.001,0.014-0.001h4.074v0.002h1.488c0.282-0.004,0.536-0.123,0.721-0.316
			c0.189-0.194,0.305-0.464,0.305-0.762c0-0.596-0.464-1.079-1.039-1.079h-3.642c-0.325,0-0.588-0.274-0.588-0.612
			c0-0.337,0.264-0.611,0.588-0.611h3.642c1.224,0,2.218,1.031,2.218,2.301c0,1.267-0.986,2.292-2.204,2.3
			c-0.005,0-0.009,0.001-0.014,0.001h-1.67v-0.002h-3.892c-0.282,0.004-0.536,0.123-0.721,0.316
			c-0.189,0.194-0.305,0.464-0.305,0.762c0,0.597,0.464,1.079,1.039,1.079h7.189C28.043,30.373,28.307,30.646,28.307,30.985z"/>
		<path fill="#AF9B81" d="M53.938,52.849c-0.014,0-0.027-0.003-0.041-0.004v0.004l-5.654,0.002c-0.613,0-1.11,0.516-1.11,1.152
			c0,1.057,1.11,1.206,1.11,1.206h2.02v0.004c0.289,0.019,0.519,0.268,0.519,0.572c0,0.306-0.231,0.553-0.519,0.572v0.004h-6.698
			c-0.307,0-0.555-0.257-0.555-0.576c0-0.317,0.248-0.576,0.555-0.576h2.788c-0.208-0.351-0.331-0.763-0.331-1.206
			c0-1.272,0.994-2.304,2.22-2.304l5.654-0.002v0.004c0.014-0.001,0.027-0.004,0.041-0.004c0.307,0,0.555,0.258,0.555,0.576
			C54.493,52.591,54.245,52.849,53.938,52.849z"/>
		<path fill="#AF9B81" d="M32.715,56.305c0.014,0,0.027-0.003,0.041-0.004v0.004l6.163,0.002c0.613,0,1.11,0.516,1.11,1.152
			c0,1.057-1.11,1.206-1.11,1.206h-2.02v0.004c-0.289,0.019-0.519,0.268-0.519,0.572c0,0.306,0.231,0.553,0.519,0.572v0.004h8.363
			c0.307,0,0.555-0.257,0.555-0.576c0-0.317-0.248-0.576-0.555-0.576h-4.453c0.208-0.351,0.331-0.763,0.331-1.206
			c0-1.272-0.994-2.304-2.22-2.304l-6.163-0.002v0.004c-0.014-0.001-0.027-0.004-0.041-0.004c-0.307,0-0.555,0.258-0.555,0.576
			S32.409,56.305,32.715,56.305z"/>
		<path fill="#AF9B81" d="M33.528,63.405c0.005,0,0.009,0.001,0.014,0.001h4.033c0.261,0.967,1.118,1.678,2.134,1.678
			c1.226,0,2.218-1.031,2.218-2.301c0-1.271-0.992-2.301-2.218-2.301c-1.024,0-1.888,0.722-2.141,1.702h-4.039
			c-0.282-0.004-0.536-0.123-0.721-0.316c-0.189-0.194-0.305-0.464-0.305-0.762c0-0.596,0.465-1.079,1.039-1.079h0.761
			c0.325,0,0.588-0.274,0.588-0.612c0-0.337-0.264-0.611-0.588-0.611h-0.761c-1.224,0-2.218,1.031-2.218,2.301
			C31.324,62.372,32.31,63.397,33.528,63.405z M39.709,61.704c0.575,0,1.039,0.482,1.039,1.079c0,0.595-0.465,1.079-1.039,1.079
			c-0.573,0-1.039-0.484-1.039-1.079C38.669,62.187,39.135,61.704,39.709,61.704z"/>
		<path fill="#AF9B81" d="M33.556,53.158c0.005,0,0.009,0.001,0.014,0.001h5.976c0.261,0.967,1.118,1.678,2.134,1.678
			c1.226,0,2.218-1.031,2.218-2.301c0-1.271-0.992-2.301-2.218-2.301c-1.024,0-1.888,0.722-2.141,1.702h-5.982
			c-0.282-0.004-0.536-0.123-0.721-0.316c-0.189-0.194-0.305-0.464-0.305-0.762c0-0.596,0.465-1.079,1.039-1.079h5.803
			c0.325,0,0.588-0.274,0.588-0.612c0-0.337-0.264-0.611-0.588-0.611h-5.803c-1.224,0-2.218,1.031-2.218,2.301
			C31.352,52.125,32.338,53.15,33.556,53.158z M41.679,51.457c0.575,0,1.039,0.482,1.039,1.079c0,0.595-0.465,1.079-1.039,1.079
			c-0.573,0-1.039-0.484-1.039-1.079C40.64,51.939,41.106,51.457,41.679,51.457z"/>
		<path fill="#AF9B81" d="M44.14,49.189c0,0.337,0.264,0.611,0.588,0.611h9.515c1.224,0,2.218-1.031,2.218-2.301
			c0-1.194-0.877-2.174-1.998-2.288c-0.046-0.012-0.093-0.02-0.142-0.02h-5.803c-0.575,0-1.039-0.482-1.039-1.079
			c0-0.298,0.116-0.568,0.305-0.762c0.185-0.193,0.439-0.312,0.721-0.316h2.281c0.254,0.98,1.117,1.702,2.141,1.702
			c1.226,0,2.218-1.031,2.218-2.301s-0.992-2.301-2.218-2.301c-1.016,0-1.873,0.71-2.134,1.678h-2.275
			c-0.005,0-0.009,0.001-0.014,0.001c-1.218,0.008-2.204,1.033-2.204,2.3c0,1.271,0.993,2.301,2.218,2.301h4.425v0.007h1.314
			c0.282,0.004,0.536,0.123,0.721,0.316c0.189,0.194,0.305,0.464,0.305,0.762c0,0.596-0.465,1.079-1.039,1.079h-9.515
			C44.403,48.577,44.14,48.85,44.14,49.189z M51.888,42.434c0-0.595,0.466-1.079,1.039-1.079c0.575,0,1.039,0.484,1.039,1.079
			c0,0.596-0.465,1.079-1.039,1.079C52.354,43.513,51.888,43.03,51.888,42.434z"/>
		<path fill="#AF9B81" d="M41.635,43.24H34.87h-1.3c-0.008,0-0.015,0-0.023,0.001c-0.03,0.001-0.061,0.003-0.09,0.006
			c-0.005,0.001-0.009,0.001-0.014,0.002c-0.03,0.004-0.059,0.009-0.088,0.015c-0.005,0.001-0.009,0.002-0.014,0.003
			c-0.029,0.007-0.057,0.014-0.084,0.023c-0.004,0.001-0.008,0.003-0.013,0.004c-0.028,0.01-0.055,0.02-0.082,0.032
			c-0.003,0.001-0.006,0.003-0.009,0.004c-0.028,0.013-0.056,0.027-0.083,0.042c-0.001,0-0.001,0.001-0.002,0.001
			c-0.086,0.049-0.165,0.111-0.234,0.183c-0.177,0.182-0.29,0.431-0.303,0.707c-0.001,0.018-0.001,0.037-0.001,0.056
			c0,0.019,0,0.037,0.001,0.056c0.013,0.276,0.127,0.524,0.303,0.707c0.069,0.072,0.148,0.134,0.234,0.183
			c0.001,0,0.001,0.001,0.002,0.001c0.027,0.015,0.054,0.029,0.083,0.042c0.003,0.001,0.006,0.003,0.009,0.004
			c0.027,0.012,0.054,0.022,0.082,0.032c0.004,0.001,0.008,0.003,0.013,0.004c0.028,0.009,0.056,0.017,0.084,0.023
			c0.005,0.001,0.009,0.002,0.014,0.003c0.029,0.006,0.058,0.011,0.088,0.015c0.005,0.001,0.009,0.001,0.014,0.002
			c0.03,0.003,0.06,0.005,0.09,0.006c0.008,0,0.015,0.001,0.023,0.001h1.3h8.827c0.325,0,0.588,0.274,0.588,0.612
			c0,0.337-0.264,0.611-0.588,0.611H34.87h-1.3c-0.69,0-1.307-0.328-1.714-0.842c-0.004-0.005-0.008-0.011-0.012-0.016
			c-0.018-0.023-0.036-0.046-0.053-0.07c-0.008-0.011-0.016-0.023-0.024-0.035c-0.012-0.018-0.025-0.036-0.037-0.054
			c-0.011-0.018-0.022-0.036-0.033-0.054c-0.008-0.013-0.016-0.026-0.024-0.039c-0.013-0.023-0.026-0.047-0.039-0.07
			c-0.005-0.009-0.01-0.017-0.014-0.026c-0.015-0.028-0.029-0.057-0.042-0.086c-0.002-0.004-0.004-0.009-0.006-0.013
			c-0.015-0.032-0.029-0.065-0.042-0.097c-0.001-0.001-0.001-0.003-0.002-0.004c-0.084-0.205-0.139-0.425-0.162-0.655
			c0-0.002,0-0.003-0.001-0.005c-0.003-0.032-0.005-0.064-0.007-0.096c0-0.007-0.001-0.014-0.002-0.021
			c-0.002-0.039-0.003-0.079-0.003-0.118s0.001-0.079,0.003-0.118c0-0.007,0.001-0.014,0.002-0.021
			c0.002-0.032,0.004-0.064,0.007-0.096c0-0.002,0-0.003,0.001-0.005c0.023-0.23,0.079-0.45,0.162-0.655
			c0.001-0.001,0.001-0.003,0.002-0.004c0.013-0.033,0.028-0.065,0.042-0.097c0.002-0.004,0.004-0.009,0.006-0.013
			c0.014-0.029,0.028-0.057,0.042-0.086c0.005-0.009,0.01-0.017,0.014-0.026c0.013-0.024,0.025-0.047,0.039-0.07
			c0.008-0.013,0.016-0.026,0.024-0.04c0.011-0.018,0.021-0.036,0.033-0.053c0.012-0.018,0.025-0.036,0.037-0.054
			c0.008-0.012,0.016-0.024,0.024-0.035c0.017-0.024,0.035-0.047,0.053-0.071c0.004-0.005,0.008-0.01,0.012-0.015
			c0.407-0.514,1.024-0.842,1.714-0.842h1.3h6.765c0.325,0,0.588,0.274,0.588,0.611C42.223,42.966,41.96,43.24,41.635,43.24z"/>
		<path fill="#AF9B81" d="M31.853,35.215v0.004h4.001h0.233h2.78c0,0,1.131,0.152,1.131,1.229c0,0.648-0.507,1.174-1.131,1.174
			h-2.811h-0.202h-0.043c-0.241-1.027-1.134-1.789-2.198-1.789c-1.25,0-2.263,1.052-2.263,2.348s1.013,2.348,2.263,2.348
			c1.045,0,1.925-0.735,2.184-1.734h3.07c1.25,0,2.263-1.052,2.263-2.348c0-0.451-0.124-0.871-0.337-1.229h2.338
			c0.312,0,0.566-0.263,0.566-0.587c0-0.324-0.253-0.587-0.566-0.587H31.853v0.004c-0.295,0.02-0.529,0.272-0.529,0.583
			S31.558,35.195,31.853,35.215z M34.745,38.182c0,0.648-0.507,1.174-1.131,1.174s-1.131-0.526-1.131-1.174
			c0-0.648,0.507-1.174,1.131-1.174S34.745,37.533,34.745,38.182z"/>
		<path fill="#AF9B81" d="M55.608,35.197c-0.014,0-0.027-0.003-0.041-0.004v0.004l-6.637,0.002c-0.613,0-1.11,0.516-1.11,1.152
			c0,1.057,1.11,1.206,1.11,1.206h6.704v0.004c0.289,0.019,0.519,0.268,0.519,0.572c0,0.306-0.231,0.553-0.519,0.572v0.004H44.728
			c-0.307,0-0.555-0.257-0.555-0.576c0-0.317,0.248-0.576,0.555-0.576h2.312c-0.208-0.351-0.331-0.763-0.331-1.206
			c0-1.272,0.994-2.304,2.22-2.304l6.637-0.002v0.004c0.014-0.001,0.027-0.004,0.041-0.004c0.307,0,0.555,0.258,0.555,0.576
			S55.914,35.197,55.608,35.197z"/>
		<path fill="#AF9B81" d="M31.324,18.895c0,1.271,0.993,2.301,2.218,2.301h6.293c-0.167,0.323-0.262,0.693-0.262,1.085
			c0,1.271,0.993,2.301,2.218,2.301h6.031c0.325,0,0.588-0.274,0.588-0.611c0-0.338-0.264-0.612-0.588-0.612H41.79
			c-0.575,0-1.039-0.482-1.039-1.079c0-0.298,0.116-0.568,0.305-0.762c0.185-0.193,0.439-0.312,0.721-0.316h2.951v-0.007h0.04
			c0.325,0,0.588-0.274,0.588-0.611c0-0.338-0.264-0.612-0.588-0.612H33.542c-0.575,0-1.039-0.482-1.039-1.079
			c0-0.298,0.116-0.568,0.305-0.762c0.185-0.193,0.439-0.312,0.721-0.316h3.983c0.254,0.98,1.117,1.702,2.141,1.702
			c1.226,0,2.218-1.031,2.218-2.301s-0.992-2.301-2.218-2.301c-1.016,0-1.873,0.71-2.134,1.678h-3.976
			c-0.005,0-0.009,0.001-0.014,0.001C32.31,16.603,31.324,17.628,31.324,18.895z M38.613,17.217c0-0.595,0.466-1.079,1.039-1.079
			c0.575,0,1.039,0.484,1.039,1.079c0,0.596-0.465,1.079-1.039,1.079C39.079,18.296,38.613,17.813,38.613,17.217z"/>
		<path fill="#AF9B81" d="M43.542,29.734c0,1.271,0.993,2.301,2.218,2.301h7.66c0.325,0,0.588-0.274,0.588-0.611
			c0-0.338-0.264-0.612-0.588-0.612h-7.66c-0.575,0-1.039-0.482-1.039-1.079c0-0.298,0.116-0.568,0.305-0.762
			c0.185-0.193,0.439-0.312,0.721-0.316h2.751c0.254,0.98,1.117,1.702,2.141,1.702c1.226,0,2.218-1.031,2.218-2.301
			s-0.992-2.301-2.218-2.301c-1.016,0-1.873,0.71-2.134,1.678h-2.745c-0.005,0-0.009,0.001-0.014,0.001
			C44.527,27.442,43.542,28.467,43.542,29.734z M49.598,28.056c0-0.595,0.466-1.079,1.039-1.079c0.575,0,1.039,0.484,1.039,1.079
			c0,0.596-0.465,1.079-1.039,1.079C50.064,29.135,49.598,28.653,49.598,28.056z"/>
		<path fill="#AF9B81" d="M31.64,30.985c0,0.337,0.264,0.611,0.588,0.611h7.189c1.224,0,2.218-1.031,2.218-2.301
			c0-1.266-0.986-2.292-2.204-2.3c-0.005,0-0.009-0.001-0.014-0.001h-4.074v0.002h-1.488c-0.282-0.004-0.536-0.123-0.721-0.316
			c-0.189-0.194-0.305-0.464-0.305-0.762c0-0.596,0.464-1.079,1.039-1.079h3.642c0.325,0,0.588-0.274,0.588-0.612
			c0-0.337-0.264-0.611-0.588-0.611h-3.642c-1.224,0-2.218,1.031-2.218,2.301c0,1.267,0.986,2.292,2.204,2.3
			c0.005,0,0.009,0.001,0.014,0.001h1.67v-0.002h3.892c0.282,0.004,0.536,0.123,0.721,0.316c0.189,0.194,0.305,0.464,0.305,0.762
			c0,0.597-0.464,1.079-1.039,1.079h-7.189C31.904,30.373,31.64,30.646,31.64,30.985z"/>
	</g>
	<g>
		<path fill="#F5F5F5" d="M73.707,28.599h-0.602c-0.112-0.422-0.346-0.874-0.701-1.355c-0.355-0.481-0.696-0.745-1.022-0.793
			c-0.166-0.021-0.362-0.038-0.589-0.048c-0.227-0.011-0.485-0.016-0.773-0.016h-1.908v4.569h1.31c0.396,0,0.704-0.041,0.924-0.124
			c0.22-0.083,0.407-0.209,0.563-0.381c0.107-0.117,0.205-0.301,0.293-0.549c0.088-0.248,0.146-0.514,0.172-0.797h0.602v4.473
			h-0.602c-0.016-0.235-0.071-0.502-0.165-0.802c-0.093-0.3-0.194-0.516-0.301-0.65c-0.161-0.198-0.363-0.332-0.607-0.405
			s-0.537-0.108-0.88-0.108h-1.31v3.914c0,0.176,0.035,0.333,0.104,0.472c0.069,0.139,0.192,0.251,0.369,0.336
			c0.08,0.038,0.254,0.083,0.521,0.136c0.267,0.053,0.47,0.083,0.609,0.088v0.569h-4.929v-0.569c0.16-0.011,0.374-0.028,0.641-0.052
			c0.267-0.024,0.441-0.055,0.521-0.092c0.16-0.069,0.277-0.172,0.349-0.308s0.108-0.301,0.108-0.493v-8.208
			c0-0.176-0.029-0.332-0.088-0.469c-0.059-0.136-0.182-0.247-0.369-0.332c-0.144-0.07-0.338-0.131-0.581-0.185
			c-0.243-0.053-0.437-0.085-0.581-0.096v-0.569h8.922V28.599z"/>
		<path fill="#F5F5F5" d="M81.328,37.128h-5.122v-0.569c0.144-0.011,0.353-0.026,0.625-0.048c0.273-0.021,0.465-0.053,0.578-0.096
			c0.176-0.069,0.304-0.164,0.385-0.284c0.08-0.12,0.12-0.287,0.12-0.501v-8.24c0-0.187-0.029-0.344-0.088-0.469
			c-0.059-0.125-0.198-0.231-0.417-0.317c-0.161-0.064-0.362-0.124-0.605-0.181c-0.243-0.056-0.443-0.089-0.597-0.1v-0.569h5.122
			v0.569c-0.166,0.005-0.364,0.026-0.593,0.06c-0.23,0.035-0.43,0.079-0.601,0.132c-0.203,0.064-0.339,0.168-0.409,0.313
			c-0.07,0.144-0.104,0.304-0.104,0.481v8.232c0,0.176,0.039,0.332,0.116,0.469c0.077,0.136,0.21,0.244,0.397,0.325
			c0.112,0.043,0.295,0.089,0.549,0.14c0.254,0.051,0.469,0.079,0.646,0.084V37.128z"/>
		<path fill="#F5F5F5" d="M96.068,26.322c-0.15,0.005-0.379,0.048-0.69,0.128c-0.31,0.08-0.532,0.163-0.665,0.249
			c-0.193,0.134-0.322,0.39-0.389,0.769c-0.067,0.38-0.1,0.861-0.1,1.443v8.328h-0.698l-6.893-9.306v5.867
			c0,0.658,0.042,1.163,0.124,1.515c0.083,0.353,0.21,0.604,0.381,0.753c0.123,0.118,0.377,0.227,0.762,0.329
			c0.385,0.101,0.639,0.155,0.762,0.16v0.569h-4.665v-0.569c0.144-0.011,0.388-0.063,0.729-0.156
			c0.342-0.094,0.556-0.178,0.641-0.253c0.187-0.15,0.315-0.378,0.385-0.685c0.07-0.307,0.104-0.832,0.104-1.575v-5.603
			c0-0.246-0.043-0.492-0.128-0.738s-0.201-0.436-0.345-0.569c-0.192-0.176-0.453-0.327-0.782-0.453
			c-0.328-0.125-0.595-0.193-0.797-0.205v-0.569h3.249l6.393,8.671v-5.409c0-0.663-0.043-1.171-0.128-1.527
			c-0.086-0.355-0.209-0.592-0.369-0.709c-0.15-0.101-0.394-0.2-0.733-0.296c-0.339-0.096-0.597-0.15-0.773-0.161v-0.569h4.625
			V26.322z"/>
		<path fill="#F5F5F5" d="M109.236,37.128h-4.728v-0.569c0.417-0.026,0.763-0.08,1.038-0.16c0.276-0.08,0.413-0.179,0.413-0.297
			c0-0.048-0.005-0.107-0.016-0.176c-0.011-0.069-0.027-0.131-0.048-0.184l-0.942-2.549h-3.992c-0.15,0.375-0.271,0.701-0.365,0.978
			c-0.094,0.278-0.178,0.535-0.253,0.77c-0.069,0.23-0.117,0.417-0.144,0.561c-0.027,0.144-0.04,0.262-0.04,0.352
			c0,0.214,0.168,0.38,0.505,0.497c0.337,0.117,0.716,0.187,1.138,0.208v0.569h-4.284v-0.569c0.14-0.011,0.313-0.041,0.521-0.092
			c0.209-0.05,0.379-0.119,0.513-0.204c0.213-0.145,0.379-0.296,0.497-0.453c0.117-0.158,0.232-0.375,0.345-0.653
			c0.572-1.427,1.202-3.03,1.891-4.81c0.69-1.779,1.304-3.364,1.843-4.753h0.641l3.791,9.812c0.08,0.208,0.171,0.376,0.273,0.505
			s0.243,0.254,0.425,0.377c0.123,0.074,0.283,0.137,0.481,0.188s0.364,0.079,0.497,0.084V37.128z M104.66,32.479l-1.723-4.414
			l-1.699,4.414H104.66z"/>
		<path fill="#F5F5F5" d="M122.957,26.322c-0.15,0.005-0.379,0.048-0.69,0.128c-0.31,0.08-0.532,0.163-0.665,0.249
			c-0.193,0.134-0.322,0.39-0.389,0.769c-0.067,0.38-0.1,0.861-0.1,1.443v8.328h-0.698l-6.893-9.306v5.867
			c0,0.658,0.042,1.163,0.124,1.515c0.083,0.353,0.21,0.604,0.381,0.753c0.123,0.118,0.377,0.227,0.762,0.329
			c0.385,0.101,0.639,0.155,0.762,0.16v0.569h-4.665v-0.569c0.144-0.011,0.388-0.063,0.729-0.156
			c0.342-0.094,0.556-0.178,0.641-0.253c0.187-0.15,0.315-0.378,0.385-0.685c0.07-0.307,0.104-0.832,0.104-1.575v-5.603
			c0-0.246-0.043-0.492-0.128-0.738s-0.201-0.436-0.345-0.569c-0.192-0.176-0.453-0.327-0.782-0.453
			c-0.328-0.125-0.595-0.193-0.797-0.205v-0.569h3.249l6.393,8.671v-5.409c0-0.663-0.043-1.171-0.128-1.527
			c-0.086-0.355-0.209-0.592-0.369-0.709c-0.15-0.101-0.394-0.2-0.733-0.296c-0.339-0.096-0.597-0.15-0.773-0.161v-0.569h4.625
			V26.322z"/>
		<path fill="#F5F5F5" d="M130.526,37.4c-0.678,0-1.328-0.134-1.95-0.401c-0.622-0.267-1.173-0.653-1.654-1.155
			c-0.476-0.502-0.854-1.116-1.137-1.841c-0.283-0.724-0.424-1.541-0.424-2.45s0.139-1.734,0.417-2.475
			c0.277-0.741,0.662-1.378,1.153-1.913c0.486-0.529,1.06-0.939,1.722-1.227c0.662-0.289,1.369-0.433,2.122-0.433
			c0.561,0,1.068,0.069,1.522,0.208c0.454,0.139,0.887,0.334,1.298,0.585l0.328-0.545h0.641l0.072,4.056h-0.657
			c-0.086-0.395-0.213-0.824-0.385-1.286c-0.171-0.462-0.371-0.854-0.6-1.174c-0.256-0.363-0.561-0.648-0.912-0.854
			c-0.352-0.206-0.755-0.308-1.209-0.308c-0.518,0-1,0.115-1.445,0.345c-0.446,0.23-0.831,0.57-1.157,1.019
			c-0.31,0.433-0.552,0.984-0.729,1.652c-0.176,0.669-0.264,1.415-0.264,2.239c0,0.727,0.092,1.394,0.276,2.001
			c0.184,0.607,0.447,1.14,0.789,1.601c0.342,0.454,0.746,0.81,1.213,1.067c0.467,0.257,0.989,0.385,1.565,0.385
			c0.432,0,0.83-0.068,1.193-0.205c0.363-0.136,0.678-0.317,0.945-0.541c0.267-0.235,0.501-0.502,0.704-0.802
			c0.203-0.299,0.369-0.625,0.497-0.977l0.601,0.288c-0.459,1.128-1.068,1.933-1.826,2.417
			C132.475,37.158,131.573,37.4,130.526,37.4z"/>
		<path fill="#F5F5F5" d="M142.672,37.128h-5.122v-0.569c0.144-0.011,0.353-0.026,0.625-0.048c0.273-0.021,0.465-0.053,0.578-0.096
			c0.176-0.069,0.304-0.164,0.385-0.284s0.12-0.287,0.12-0.501v-8.24c0-0.187-0.029-0.344-0.088-0.469
			c-0.059-0.125-0.198-0.231-0.417-0.317c-0.161-0.064-0.362-0.124-0.605-0.181c-0.243-0.056-0.443-0.089-0.597-0.1v-0.569h5.122
			v0.569c-0.166,0.005-0.364,0.026-0.593,0.06c-0.23,0.035-0.43,0.079-0.601,0.132c-0.203,0.064-0.339,0.168-0.409,0.313
			c-0.07,0.144-0.104,0.304-0.104,0.481v8.232c0,0.176,0.039,0.332,0.116,0.469c0.077,0.136,0.21,0.244,0.397,0.325
			c0.112,0.043,0.295,0.089,0.549,0.14c0.254,0.051,0.469,0.079,0.646,0.084V37.128z"/>
		<path fill="#F5F5F5" d="M156.346,37.128h-4.728v-0.569c0.417-0.026,0.763-0.08,1.038-0.16c0.276-0.08,0.413-0.179,0.413-0.297
			c0-0.048-0.005-0.107-0.016-0.176c-0.011-0.069-0.027-0.131-0.048-0.184l-0.942-2.549h-3.992c-0.15,0.375-0.271,0.701-0.365,0.978
			c-0.094,0.278-0.178,0.535-0.253,0.77c-0.069,0.23-0.117,0.417-0.144,0.561c-0.027,0.144-0.04,0.262-0.04,0.352
			c0,0.214,0.168,0.38,0.505,0.497c0.337,0.117,0.716,0.187,1.138,0.208v0.569h-4.284v-0.569c0.14-0.011,0.313-0.041,0.521-0.092
			c0.209-0.05,0.379-0.119,0.513-0.204c0.213-0.145,0.379-0.296,0.497-0.453c0.117-0.158,0.232-0.375,0.345-0.653
			c0.572-1.427,1.202-3.03,1.891-4.81c0.69-1.779,1.304-3.364,1.843-4.753h0.641l3.791,9.812c0.08,0.208,0.171,0.376,0.273,0.505
			c0.101,0.128,0.243,0.254,0.425,0.377c0.123,0.074,0.283,0.137,0.481,0.188c0.198,0.051,0.364,0.079,0.497,0.084V37.128z
			 M151.77,32.479l-1.723-4.414l-1.699,4.414H151.77z"/>
		<path fill="#F5F5F5" d="M167.526,33.745l-0.24,3.383h-8.889v-0.569c0.128-0.011,0.314-0.029,0.557-0.056
			c0.243-0.027,0.413-0.062,0.509-0.104c0.16-0.069,0.277-0.171,0.349-0.305c0.072-0.133,0.108-0.304,0.108-0.513v-8.143
			c0-0.182-0.03-0.342-0.092-0.481c-0.062-0.139-0.183-0.251-0.365-0.337c-0.123-0.064-0.296-0.127-0.517-0.188
			c-0.222-0.062-0.405-0.097-0.549-0.108v-0.569h4.801v0.569c-0.15,0.005-0.344,0.032-0.581,0.08
			c-0.238,0.048-0.41,0.091-0.517,0.128c-0.182,0.064-0.306,0.174-0.373,0.328c-0.067,0.155-0.1,0.321-0.1,0.497v7.639
			c0,0.353,0.018,0.627,0.052,0.822s0.116,0.346,0.244,0.453c0.123,0.096,0.306,0.159,0.549,0.188
			c0.243,0.03,0.583,0.045,1.022,0.045c0.198,0,0.403-0.005,0.617-0.016c0.214-0.011,0.417-0.032,0.609-0.064
			c0.187-0.032,0.359-0.076,0.517-0.133c0.158-0.056,0.274-0.127,0.349-0.212c0.219-0.246,0.474-0.619,0.765-1.118
			c0.291-0.5,0.493-0.905,0.606-1.214H167.526z"/>
		<path fill="#F5F5F5" d="M180.517,37.128h-5.122v-0.569c0.144-0.011,0.353-0.026,0.625-0.048c0.273-0.021,0.465-0.053,0.578-0.096
			c0.176-0.069,0.304-0.164,0.385-0.284s0.12-0.287,0.12-0.501v-8.24c0-0.187-0.029-0.344-0.088-0.469
			c-0.059-0.125-0.198-0.231-0.417-0.317c-0.161-0.064-0.362-0.124-0.605-0.181c-0.243-0.056-0.443-0.089-0.597-0.1v-0.569h5.122
			v0.569c-0.166,0.005-0.364,0.026-0.593,0.06c-0.23,0.035-0.43,0.079-0.601,0.132c-0.203,0.064-0.339,0.168-0.409,0.313
			c-0.07,0.144-0.104,0.304-0.104,0.481v8.232c0,0.176,0.039,0.332,0.116,0.469c0.077,0.136,0.21,0.244,0.397,0.325
			c0.112,0.043,0.295,0.089,0.549,0.14c0.254,0.051,0.469,0.079,0.646,0.084V37.128z"/>
		<path fill="#F5F5F5" d="M195.256,26.322c-0.15,0.005-0.379,0.048-0.69,0.128c-0.31,0.08-0.532,0.163-0.665,0.249
			c-0.193,0.134-0.322,0.39-0.389,0.769c-0.067,0.38-0.1,0.861-0.1,1.443v8.328h-0.698l-6.893-9.306v5.867
			c0,0.658,0.042,1.163,0.124,1.515c0.083,0.353,0.21,0.604,0.381,0.753c0.123,0.118,0.377,0.227,0.762,0.329
			c0.385,0.101,0.639,0.155,0.762,0.16v0.569h-4.665v-0.569c0.144-0.011,0.388-0.063,0.729-0.156
			c0.342-0.094,0.556-0.178,0.641-0.253c0.187-0.15,0.315-0.378,0.385-0.685c0.07-0.307,0.104-0.832,0.104-1.575v-5.603
			c0-0.246-0.043-0.492-0.128-0.738s-0.201-0.436-0.345-0.569c-0.192-0.176-0.453-0.327-0.782-0.453
			c-0.328-0.125-0.595-0.193-0.797-0.205v-0.569h3.249l6.393,8.671v-5.409c0-0.663-0.043-1.171-0.128-1.527
			c-0.086-0.355-0.209-0.592-0.369-0.709c-0.15-0.101-0.394-0.2-0.733-0.296c-0.339-0.096-0.597-0.15-0.773-0.161v-0.569h4.625
			V26.322z"/>
		<path fill="#F5F5F5" d="M209.49,26.322c-0.15,0.005-0.379,0.048-0.69,0.128c-0.31,0.08-0.532,0.163-0.665,0.249
			c-0.193,0.134-0.322,0.39-0.389,0.769c-0.067,0.38-0.1,0.861-0.1,1.443v8.328h-0.698l-6.893-9.306v5.867
			c0,0.658,0.042,1.163,0.124,1.515c0.083,0.353,0.21,0.604,0.381,0.753c0.123,0.118,0.377,0.227,0.762,0.329
			c0.385,0.101,0.639,0.155,0.762,0.16v0.569h-4.665v-0.569c0.144-0.011,0.388-0.063,0.729-0.156
			c0.342-0.094,0.556-0.178,0.641-0.253c0.187-0.15,0.315-0.378,0.385-0.685c0.07-0.307,0.104-0.832,0.104-1.575v-5.603
			c0-0.246-0.043-0.492-0.128-0.738s-0.201-0.436-0.345-0.569c-0.192-0.176-0.453-0.327-0.782-0.453
			c-0.328-0.125-0.595-0.193-0.797-0.205v-0.569h3.249l6.393,8.671v-5.409c0-0.663-0.043-1.171-0.128-1.527
			c-0.086-0.355-0.209-0.592-0.369-0.709c-0.15-0.101-0.394-0.2-0.733-0.296c-0.339-0.096-0.597-0.15-0.773-0.161v-0.569h4.625
			V26.322z"/>
		<path fill="#F5F5F5" d="M221.24,27.1c0.503,0.524,0.896,1.156,1.179,1.896c0.284,0.74,0.426,1.559,0.426,2.457
			c0,0.903-0.144,1.723-0.434,2.461c-0.288,0.738-0.688,1.366-1.202,1.884c-0.497,0.513-1.074,0.908-1.731,1.186
			c-0.658,0.278-1.358,0.417-2.1,0.417c-0.792,0-1.523-0.148-2.193-0.445s-1.247-0.709-1.727-1.238
			c-0.481-0.518-0.859-1.147-1.134-1.888c-0.276-0.74-0.413-1.532-0.413-2.376c0-0.925,0.144-1.749,0.433-2.473
			s0.687-1.35,1.194-1.88c0.502-0.524,1.085-0.924,1.751-1.202c0.665-0.278,1.362-0.417,2.089-0.417
			c0.753,0,1.463,0.141,2.132,0.424C220.177,26.189,220.754,26.587,221.24,27.1z M220.046,35.164
			c0.299-0.487,0.517-1.037,0.653-1.652c0.136-0.614,0.204-1.301,0.204-2.06c0-0.78-0.076-1.496-0.227-2.148
			c-0.152-0.652-0.376-1.208-0.67-1.668c-0.294-0.454-0.663-0.808-1.107-1.062c-0.443-0.254-0.951-0.381-1.522-0.381
			c-0.641,0-1.187,0.147-1.636,0.44c-0.449,0.294-0.815,0.687-1.098,1.179c-0.267,0.47-0.467,1.021-0.597,1.651
			c-0.131,0.631-0.196,1.293-0.196,1.988c0,0.769,0.069,1.464,0.209,2.084c0.138,0.62,0.358,1.17,0.658,1.652
			c0.287,0.47,0.651,0.837,1.089,1.102c0.439,0.265,0.962,0.397,1.572,0.397c0.571,0,1.087-0.134,1.547-0.4
			C219.383,36.019,219.757,35.645,220.046,35.164z"/>
		<path fill="#F5F5F5" d="M236.405,26.322c-0.14,0.005-0.307,0.036-0.505,0.093c-0.198,0.056-0.361,0.124-0.489,0.204
			c-0.182,0.113-0.327,0.257-0.436,0.433c-0.11,0.176-0.218,0.385-0.325,0.626c-0.359,0.85-0.896,2.174-1.611,3.972
			c-0.716,1.798-1.454,3.673-2.213,5.623h-0.665c-0.769-2.068-1.513-4.061-2.229-5.98c-0.715-1.918-1.202-3.214-1.459-3.887
			c-0.063-0.165-0.149-0.311-0.256-0.437c-0.108-0.125-0.249-0.244-0.426-0.357c-0.144-0.09-0.304-0.159-0.481-0.204
			c-0.176-0.045-0.339-0.073-0.489-0.084v-0.569h4.707v0.569c-0.401,0.022-0.739,0.062-1.014,0.12
			c-0.276,0.059-0.413,0.163-0.413,0.313c0,0.059,0.011,0.128,0.033,0.208c0.021,0.08,0.04,0.144,0.055,0.192
			c0.198,0.524,0.518,1.378,0.963,2.562c0.443,1.185,1.074,2.871,1.891,5.058c0.406-0.989,0.874-2.158,1.402-3.506
			c0.529-1.347,0.884-2.273,1.066-2.776c0.177-0.487,0.279-0.823,0.308-1.01c0.029-0.187,0.045-0.339,0.045-0.457
			c0-0.123-0.055-0.226-0.164-0.308c-0.11-0.083-0.256-0.154-0.437-0.212c-0.176-0.053-0.355-0.094-0.537-0.12
			c-0.182-0.027-0.366-0.048-0.552-0.064v-0.569h4.231V26.322z"/>
		<path fill="#F5F5F5" d="M249.099,37.128h-4.727v-0.569c0.416-0.026,0.762-0.08,1.038-0.16c0.274-0.08,0.413-0.179,0.413-0.297
			c0-0.048-0.006-0.107-0.016-0.176c-0.011-0.069-0.027-0.131-0.048-0.184l-0.942-2.549h-3.993c-0.15,0.375-0.272,0.701-0.366,0.978
			c-0.094,0.278-0.177,0.535-0.252,0.77c-0.07,0.23-0.118,0.417-0.145,0.561c-0.026,0.144-0.04,0.262-0.04,0.352
			c0,0.214,0.169,0.38,0.505,0.497c0.337,0.117,0.716,0.187,1.139,0.208v0.569h-4.284v-0.569c0.138-0.011,0.312-0.041,0.521-0.092
			c0.209-0.05,0.38-0.119,0.514-0.204c0.213-0.145,0.379-0.296,0.496-0.453c0.118-0.158,0.233-0.375,0.345-0.653
			c0.572-1.427,1.203-3.03,1.891-4.81c0.69-1.779,1.304-3.364,1.845-4.753h0.64l3.792,9.812c0.08,0.208,0.171,0.376,0.272,0.505
			c0.102,0.128,0.243,0.254,0.425,0.377c0.123,0.074,0.284,0.137,0.482,0.188c0.197,0.051,0.362,0.079,0.496,0.084V37.128z
			 M244.524,32.479l-1.723-4.414l-1.698,4.414H244.524z"/>
		<path fill="#F5F5F5" d="M260.4,28.839h-0.553c-0.048-0.192-0.135-0.421-0.26-0.685c-0.127-0.264-0.266-0.514-0.422-0.749
			c-0.161-0.246-0.335-0.461-0.527-0.646c-0.19-0.184-0.373-0.29-0.55-0.317c-0.167-0.021-0.375-0.037-0.626-0.048
			c-0.252-0.011-0.485-0.016-0.699-0.016h-0.467v9.098c0,0.176,0.038,0.338,0.113,0.485c0.075,0.147,0.205,0.26,0.393,0.341
			c0.096,0.038,0.298,0.088,0.605,0.152c0.307,0.064,0.546,0.099,0.718,0.104v0.569h-5.371v-0.569
			c0.15-0.011,0.378-0.032,0.685-0.064c0.307-0.032,0.521-0.072,0.638-0.12c0.176-0.069,0.306-0.169,0.388-0.301
			c0.083-0.131,0.124-0.305,0.124-0.525v-9.17h-0.464c-0.165,0-0.372,0.004-0.617,0.012c-0.246,0.008-0.482,0.025-0.706,0.052
			c-0.176,0.022-0.36,0.127-0.549,0.317c-0.19,0.19-0.365,0.405-0.525,0.646c-0.161,0.24-0.301,0.495-0.424,0.765
			c-0.123,0.27-0.209,0.493-0.257,0.67h-0.561v-3.086h9.915V28.839z"/>
		<path fill="#F5F5F5" d="M267.918,37.128h-5.122v-0.569c0.144-0.011,0.353-0.026,0.625-0.048c0.273-0.021,0.466-0.053,0.577-0.096
			c0.177-0.069,0.305-0.164,0.385-0.284c0.081-0.12,0.121-0.287,0.121-0.501v-8.24c0-0.187-0.029-0.344-0.088-0.469
			c-0.059-0.125-0.198-0.231-0.417-0.317c-0.159-0.064-0.361-0.124-0.605-0.181c-0.243-0.056-0.442-0.089-0.597-0.1v-0.569h5.122
			v0.569c-0.165,0.005-0.364,0.026-0.593,0.06c-0.23,0.035-0.43,0.079-0.602,0.132c-0.203,0.064-0.339,0.168-0.408,0.313
			c-0.069,0.144-0.104,0.304-0.104,0.481v8.232c0,0.176,0.039,0.332,0.116,0.469c0.077,0.136,0.21,0.244,0.396,0.325
			c0.113,0.043,0.296,0.089,0.55,0.14c0.253,0.051,0.469,0.079,0.645,0.084V37.128z"/>
		<path fill="#F5F5F5" d="M280.171,27.1c0.503,0.524,0.896,1.156,1.178,1.896c0.284,0.74,0.426,1.559,0.426,2.457
			c0,0.903-0.144,1.723-0.434,2.461c-0.288,0.738-0.688,1.366-1.202,1.884c-0.497,0.513-1.074,0.908-1.731,1.186
			c-0.658,0.278-1.358,0.417-2.1,0.417c-0.792,0-1.522-0.148-2.193-0.445c-0.671-0.297-1.247-0.709-1.727-1.238
			c-0.481-0.518-0.858-1.147-1.134-1.888c-0.276-0.74-0.413-1.532-0.413-2.376c0-0.925,0.144-1.749,0.433-2.473
			c0.288-0.724,0.686-1.35,1.194-1.88c0.503-0.524,1.087-0.924,1.752-1.202c0.665-0.278,1.361-0.417,2.088-0.417
			c0.753,0,1.463,0.141,2.132,0.424C279.109,26.189,279.686,26.587,280.171,27.1z M278.977,35.164
			c0.299-0.487,0.517-1.037,0.653-1.652c0.136-0.614,0.204-1.301,0.204-2.06c0-0.78-0.076-1.496-0.228-2.148
			c-0.152-0.652-0.376-1.208-0.67-1.668c-0.294-0.454-0.663-0.808-1.107-1.062c-0.443-0.254-0.951-0.381-1.522-0.381
			c-0.641,0-1.187,0.147-1.636,0.44c-0.449,0.294-0.815,0.687-1.098,1.179c-0.267,0.47-0.467,1.021-0.597,1.651
			c-0.131,0.631-0.197,1.293-0.197,1.988c0,0.769,0.069,1.464,0.209,2.084c0.138,0.62,0.358,1.17,0.657,1.652
			c0.288,0.47,0.652,0.837,1.091,1.102c0.439,0.265,0.962,0.397,1.571,0.397c0.571,0,1.087-0.134,1.547-0.4
			C278.315,36.019,278.689,35.645,278.977,35.164z"/>
		<path fill="#F5F5F5" d="M296.514,26.322c-0.149,0.005-0.379,0.048-0.688,0.128c-0.311,0.08-0.532,0.163-0.666,0.249
			c-0.192,0.134-0.321,0.39-0.388,0.769c-0.067,0.38-0.101,0.861-0.101,1.443v8.328h-0.697l-6.894-9.306v5.867
			c0,0.658,0.041,1.163,0.124,1.515c0.083,0.353,0.21,0.604,0.381,0.753c0.122,0.118,0.376,0.227,0.761,0.329
			c0.385,0.101,0.639,0.155,0.761,0.16v0.569h-4.665v-0.569c0.144-0.011,0.387-0.063,0.729-0.156
			c0.342-0.094,0.556-0.178,0.641-0.253c0.186-0.15,0.315-0.378,0.385-0.685s0.104-0.832,0.104-1.575v-5.603
			c0-0.246-0.043-0.492-0.128-0.738c-0.086-0.246-0.201-0.436-0.345-0.569c-0.192-0.176-0.454-0.327-0.782-0.453
			s-0.595-0.193-0.797-0.205v-0.569h3.249l6.393,8.671v-5.409c0-0.663-0.042-1.171-0.128-1.527s-0.209-0.592-0.369-0.709
			c-0.149-0.101-0.394-0.2-0.733-0.296s-0.597-0.15-0.774-0.161v-0.569h4.625V26.322z"/>
		<path fill="#F5F5F5" d="M68.207,52.371h-3.659v-0.407c0.103-0.007,0.252-0.019,0.447-0.034c0.195-0.015,0.332-0.038,0.412-0.069
			c0.126-0.049,0.218-0.117,0.275-0.203c0.057-0.086,0.086-0.205,0.086-0.358v-5.886c0-0.134-0.021-0.245-0.063-0.335
			c-0.042-0.089-0.141-0.165-0.298-0.226c-0.114-0.046-0.259-0.088-0.432-0.129c-0.174-0.04-0.316-0.063-0.427-0.072v-0.406h3.659
			v0.406c-0.118,0.005-0.259,0.019-0.423,0.043c-0.164,0.025-0.307,0.056-0.43,0.095c-0.145,0.046-0.242,0.12-0.292,0.223
			c-0.049,0.103-0.074,0.217-0.074,0.344v5.88c0,0.127,0.028,0.238,0.083,0.335c0.055,0.097,0.15,0.175,0.283,0.232
			c0.08,0.03,0.211,0.063,0.392,0.1c0.181,0.036,0.335,0.056,0.461,0.06V52.371z"/>
		<path fill="#F5F5F5" d="M78.735,44.653c-0.107,0.005-0.271,0.035-0.493,0.091c-0.221,0.057-0.38,0.117-0.475,0.178
			c-0.138,0.095-0.23,0.278-0.278,0.55c-0.047,0.271-0.072,0.614-0.072,1.03v5.949h-0.498l-4.924-6.647v4.191
			c0,0.469,0.03,0.83,0.089,1.082c0.059,0.251,0.15,0.43,0.272,0.538c0.087,0.083,0.269,0.162,0.544,0.235
			c0.275,0.073,0.456,0.11,0.544,0.114v0.407h-3.332v-0.407c0.103-0.007,0.277-0.045,0.521-0.111
			c0.244-0.067,0.397-0.127,0.459-0.181c0.133-0.107,0.225-0.27,0.274-0.489c0.05-0.219,0.074-0.595,0.074-1.126v-4.001
			c0-0.176-0.03-0.352-0.091-0.528c-0.061-0.175-0.143-0.311-0.246-0.406c-0.137-0.127-0.324-0.235-0.558-0.324
			c-0.235-0.09-0.424-0.138-0.57-0.147v-0.406h2.321l4.567,6.194v-3.864c0-0.474-0.03-0.837-0.091-1.091
			c-0.062-0.254-0.149-0.423-0.264-0.507c-0.107-0.073-0.281-0.143-0.524-0.212c-0.243-0.069-0.427-0.107-0.552-0.115v-0.406h3.303
			V44.653z"/>
		<path fill="#F5F5F5" d="M91.174,46.451h-0.395c-0.035-0.137-0.097-0.3-0.186-0.489s-0.191-0.367-0.301-0.536
			c-0.115-0.175-0.24-0.328-0.376-0.461c-0.136-0.131-0.267-0.206-0.393-0.225c-0.119-0.015-0.268-0.027-0.448-0.035
			c-0.179-0.007-0.346-0.012-0.499-0.012h-0.333v6.499c0,0.127,0.027,0.242,0.08,0.347c0.053,0.104,0.147,0.185,0.28,0.243
			c0.069,0.027,0.213,0.063,0.433,0.109c0.219,0.046,0.39,0.07,0.512,0.074v0.407h-3.836v-0.407c0.107-0.007,0.27-0.022,0.49-0.046
			c0.219-0.022,0.371-0.052,0.455-0.086c0.126-0.049,0.219-0.121,0.278-0.215c0.059-0.094,0.089-0.218,0.089-0.375v-6.55h-0.332
			c-0.118,0-0.266,0.004-0.441,0.009c-0.176,0.006-0.344,0.018-0.504,0.038c-0.126,0.015-0.257,0.09-0.392,0.225
			c-0.135,0.136-0.261,0.29-0.375,0.461c-0.114,0.172-0.216,0.354-0.303,0.548c-0.088,0.192-0.149,0.352-0.184,0.477h-0.401v-2.203
			h7.083V46.451z"/>
		<path fill="#F5F5F5" d="M100.906,52.371h-2.188c-0.484-0.76-0.922-1.417-1.313-1.97c-0.391-0.553-0.815-1.123-1.272-1.711h-0.833
			v2.576c0,0.134,0.021,0.251,0.063,0.352c0.042,0.101,0.131,0.178,0.269,0.232c0.069,0.026,0.189,0.052,0.361,0.074
			c0.172,0.023,0.317,0.036,0.435,0.04v0.407h-3.435v-0.407c0.091-0.007,0.224-0.021,0.398-0.04
			c0.174-0.019,0.295-0.043,0.364-0.074c0.114-0.05,0.198-0.122,0.249-0.218c0.051-0.095,0.077-0.217,0.077-0.366v-5.875
			c0-0.134-0.019-0.252-0.057-0.355c-0.038-0.102-0.128-0.181-0.269-0.235c-0.096-0.034-0.22-0.066-0.372-0.094
			c-0.152-0.029-0.283-0.047-0.389-0.055v-0.406h3.75c0.344,0,0.666,0.035,0.967,0.106c0.302,0.07,0.575,0.184,0.819,0.34
			c0.236,0.154,0.426,0.353,0.567,0.599c0.141,0.246,0.212,0.543,0.212,0.89c0,0.313-0.048,0.59-0.143,0.83
			c-0.096,0.24-0.237,0.448-0.424,0.624c-0.172,0.164-0.378,0.306-0.618,0.427c-0.241,0.12-0.506,0.223-0.796,0.306
			c0.401,0.531,0.734,0.977,0.999,1.34c0.266,0.362,0.591,0.803,0.976,1.322c0.168,0.23,0.32,0.399,0.455,0.508
			c0.135,0.108,0.27,0.197,0.404,0.266c0.099,0.049,0.223,0.088,0.372,0.114c0.149,0.027,0.273,0.042,0.372,0.046V52.371z
			 M97.895,46.317c0-0.491-0.141-0.882-0.424-1.169c-0.283-0.287-0.681-0.432-1.197-0.432h-0.973v3.482h0.75
			c0.527,0,0.965-0.169,1.317-0.507C97.719,47.355,97.895,46.896,97.895,46.317z"/>
		<path fill="#F5F5F5" d="M109.969,52.371h-3.377v-0.407c0.298-0.019,0.545-0.056,0.742-0.114c0.196-0.057,0.295-0.128,0.295-0.212
			c0-0.034-0.004-0.076-0.012-0.125c-0.008-0.05-0.019-0.094-0.034-0.133l-0.673-1.82h-2.852c-0.107,0.267-0.194,0.5-0.261,0.698
			c-0.067,0.199-0.127,0.382-0.181,0.55c-0.05,0.164-0.084,0.298-0.103,0.401c-0.019,0.103-0.029,0.186-0.029,0.252
			c0,0.152,0.12,0.271,0.361,0.354c0.241,0.084,0.512,0.134,0.813,0.149v0.407h-3.059v-0.407c0.099-0.007,0.223-0.029,0.372-0.066
			c0.149-0.036,0.271-0.084,0.366-0.145c0.153-0.103,0.271-0.211,0.355-0.324c0.084-0.113,0.166-0.269,0.246-0.467
			c0.408-1.019,0.858-2.165,1.351-3.436c0.493-1.271,0.932-2.403,1.317-3.395h0.458l2.708,7.008c0.057,0.149,0.123,0.27,0.195,0.361
			c0.073,0.091,0.174,0.181,0.304,0.269c0.088,0.054,0.202,0.098,0.344,0.135c0.141,0.036,0.259,0.056,0.355,0.06V52.371z
			 M106.7,49.051l-1.23-3.152l-1.213,3.152H106.7z"/>
		<path fill="#F5F5F5" d="M119.77,44.653c-0.107,0.005-0.271,0.035-0.493,0.091c-0.221,0.057-0.38,0.117-0.475,0.178
			c-0.138,0.095-0.23,0.278-0.278,0.55c-0.047,0.271-0.072,0.614-0.072,1.03v5.949h-0.498l-4.924-6.647v4.191
			c0,0.469,0.03,0.83,0.089,1.082c0.059,0.251,0.15,0.43,0.272,0.538c0.087,0.083,0.269,0.162,0.544,0.235
			c0.275,0.073,0.456,0.11,0.544,0.114v0.407h-3.332v-0.407c0.103-0.007,0.277-0.045,0.521-0.111
			c0.244-0.067,0.397-0.127,0.459-0.181c0.133-0.107,0.225-0.27,0.274-0.489c0.05-0.219,0.074-0.595,0.074-1.126v-4.001
			c0-0.176-0.03-0.352-0.091-0.528c-0.061-0.175-0.143-0.311-0.246-0.406c-0.137-0.127-0.324-0.235-0.558-0.324
			c-0.235-0.09-0.424-0.138-0.57-0.147v-0.406h2.321l4.567,6.194v-3.864c0-0.474-0.03-0.837-0.091-1.091
			c-0.062-0.254-0.149-0.423-0.264-0.507c-0.107-0.073-0.281-0.143-0.524-0.212c-0.243-0.069-0.427-0.107-0.552-0.115v-0.406h3.303
			V44.653z"/>
		<path fill="#F5F5F5" d="M126.657,48.644c0.172,0.191,0.298,0.4,0.381,0.627s0.123,0.491,0.123,0.793
			c0,0.718-0.266,1.31-0.796,1.775c-0.531,0.466-1.189,0.699-1.975,0.699c-0.363,0-0.725-0.056-1.088-0.169
			c-0.362-0.113-0.675-0.25-0.939-0.41l-0.246,0.419h-0.458l-0.08-2.783h0.464c0.096,0.344,0.207,0.653,0.335,0.93
			c0.128,0.277,0.297,0.536,0.507,0.776c0.199,0.225,0.43,0.405,0.696,0.538c0.265,0.134,0.573,0.201,0.925,0.201
			c0.263,0,0.493-0.034,0.69-0.103c0.196-0.069,0.356-0.167,0.478-0.293c0.122-0.125,0.213-0.273,0.272-0.443
			c0.059-0.171,0.089-0.367,0.089-0.589c0-0.325-0.091-0.627-0.275-0.908c-0.183-0.281-0.456-0.495-0.819-0.64
			c-0.248-0.099-0.532-0.208-0.853-0.327c-0.321-0.12-0.597-0.233-0.83-0.34c-0.458-0.205-0.814-0.475-1.068-0.809
			c-0.254-0.334-0.381-0.77-0.381-1.309c0-0.308,0.063-0.597,0.189-0.864c0.126-0.266,0.305-0.505,0.538-0.715
			c0.221-0.198,0.483-0.354,0.785-0.467c0.301-0.113,0.616-0.169,0.945-0.169c0.374,0,0.709,0.057,1.005,0.172
			c0.296,0.115,0.566,0.249,0.81,0.401l0.235-0.389h0.458l0.046,2.696h-0.464c-0.084-0.308-0.178-0.605-0.283-0.887
			c-0.105-0.283-0.242-0.538-0.41-0.768c-0.164-0.22-0.364-0.398-0.601-0.529c-0.237-0.133-0.527-0.198-0.87-0.198
			c-0.363,0-0.672,0.117-0.928,0.349c-0.256,0.233-0.383,0.517-0.383,0.854c0,0.351,0.082,0.641,0.246,0.872
			c0.164,0.231,0.403,0.421,0.716,0.57c0.279,0.134,0.552,0.249,0.821,0.346c0.269,0.097,0.53,0.202,0.782,0.312
			c0.229,0.1,0.45,0.212,0.661,0.339C126.316,48.329,126.5,48.476,126.657,48.644z"/>
		<path fill="#F5F5F5" d="M136.927,52.371h-3.377v-0.407c0.298-0.019,0.545-0.056,0.742-0.114c0.196-0.057,0.295-0.128,0.295-0.212
			c0-0.034-0.004-0.076-0.012-0.125c-0.008-0.05-0.019-0.094-0.034-0.133l-0.673-1.82h-2.852c-0.107,0.267-0.194,0.5-0.261,0.698
			c-0.067,0.199-0.127,0.382-0.181,0.55c-0.05,0.164-0.084,0.298-0.103,0.401c-0.019,0.103-0.029,0.186-0.029,0.252
			c0,0.152,0.12,0.271,0.361,0.354c0.241,0.084,0.512,0.134,0.813,0.149v0.407h-3.059v-0.407c0.099-0.007,0.223-0.029,0.372-0.066
			c0.149-0.036,0.271-0.084,0.366-0.145c0.153-0.103,0.271-0.211,0.355-0.324c0.084-0.113,0.166-0.269,0.246-0.467
			c0.408-1.019,0.858-2.165,1.351-3.436c0.493-1.271,0.932-2.403,1.317-3.395h0.458l2.708,7.008c0.057,0.149,0.123,0.27,0.195,0.361
			c0.073,0.091,0.174,0.181,0.304,0.269c0.088,0.054,0.202,0.098,0.344,0.135c0.141,0.036,0.259,0.056,0.355,0.06V52.371z
			 M133.658,49.051l-1.23-3.152l-1.213,3.152H133.658z"/>
		<path fill="#F5F5F5" d="M141.967,52.566c-0.484,0-0.949-0.095-1.393-0.286c-0.444-0.191-0.838-0.467-1.181-0.826
			c-0.339-0.359-0.61-0.797-0.812-1.315c-0.202-0.517-0.303-1.101-0.303-1.751c0-0.648,0.099-1.238,0.297-1.767
			c0.198-0.529,0.473-0.985,0.824-1.366c0.347-0.379,0.757-0.671,1.23-0.877c0.473-0.206,0.979-0.31,1.516-0.31
			c0.4,0,0.762,0.05,1.086,0.149c0.324,0.1,0.633,0.239,0.927,0.419l0.235-0.389h0.458l0.052,2.896h-0.47
			c-0.061-0.283-0.152-0.589-0.274-0.918c-0.122-0.331-0.265-0.61-0.429-0.84c-0.183-0.259-0.4-0.462-0.651-0.61
			c-0.252-0.147-0.539-0.22-0.864-0.22c-0.37,0-0.714,0.082-1.033,0.246c-0.318,0.164-0.593,0.407-0.826,0.728
			c-0.221,0.31-0.395,0.702-0.521,1.181c-0.125,0.477-0.188,1.01-0.188,1.598c0,0.519,0.066,0.996,0.197,1.429
			c0.131,0.434,0.32,0.815,0.563,1.143c0.244,0.325,0.533,0.578,0.867,0.762c0.333,0.183,0.706,0.274,1.118,0.274
			c0.308,0,0.593-0.048,0.852-0.145c0.259-0.097,0.484-0.226,0.675-0.387c0.191-0.168,0.358-0.359,0.503-0.572
			c0.145-0.213,0.263-0.447,0.355-0.699l0.429,0.206c-0.328,0.806-0.762,1.381-1.304,1.726
			C143.359,52.394,142.715,52.566,141.967,52.566z"/>
		<path fill="#F5F5F5" d="M153.701,46.451h-0.395c-0.035-0.137-0.097-0.3-0.186-0.489s-0.191-0.367-0.301-0.536
			c-0.115-0.175-0.24-0.328-0.376-0.461c-0.136-0.131-0.267-0.206-0.393-0.225c-0.119-0.015-0.268-0.027-0.448-0.035
			c-0.179-0.007-0.346-0.012-0.499-0.012h-0.333v6.499c0,0.127,0.027,0.242,0.08,0.347c0.053,0.104,0.147,0.185,0.28,0.243
			c0.069,0.027,0.213,0.063,0.433,0.109c0.219,0.046,0.39,0.07,0.512,0.074v0.407h-3.836v-0.407c0.107-0.007,0.27-0.022,0.49-0.046
			c0.219-0.022,0.371-0.052,0.455-0.086c0.126-0.049,0.219-0.121,0.278-0.215c0.059-0.094,0.089-0.218,0.089-0.375v-6.55h-0.332
			c-0.118,0-0.266,0.004-0.441,0.009c-0.176,0.006-0.344,0.018-0.504,0.038c-0.126,0.015-0.257,0.09-0.392,0.225
			c-0.135,0.136-0.261,0.29-0.375,0.461c-0.114,0.172-0.216,0.354-0.303,0.548c-0.088,0.192-0.149,0.352-0.184,0.477h-0.401v-2.203
			h7.083V46.451z"/>
		<path fill="#F5F5F5" d="M159.07,52.371h-3.659v-0.407c0.103-0.007,0.252-0.019,0.447-0.034s0.332-0.038,0.412-0.069
			c0.126-0.049,0.218-0.117,0.275-0.203c0.057-0.086,0.086-0.205,0.086-0.358v-5.886c0-0.134-0.021-0.245-0.063-0.335
			c-0.042-0.089-0.141-0.165-0.298-0.226c-0.114-0.046-0.259-0.088-0.432-0.129c-0.174-0.04-0.316-0.063-0.427-0.072v-0.406h3.659
			v0.406c-0.118,0.005-0.259,0.019-0.423,0.043c-0.164,0.025-0.307,0.056-0.43,0.095c-0.145,0.046-0.242,0.12-0.292,0.223
			c-0.049,0.103-0.074,0.217-0.074,0.344v5.88c0,0.127,0.028,0.238,0.083,0.335c0.055,0.097,0.15,0.175,0.283,0.232
			c0.08,0.03,0.211,0.063,0.392,0.1c0.181,0.036,0.335,0.056,0.461,0.06V52.371z"/>
		<path fill="#F5F5F5" d="M167.823,45.209c0.359,0.374,0.639,0.826,0.841,1.354c0.202,0.529,0.304,1.113,0.304,1.754
			c0,0.645-0.103,1.231-0.31,1.758c-0.206,0.527-0.492,0.976-0.858,1.345c-0.355,0.367-0.768,0.65-1.237,0.848
			c-0.469,0.198-0.969,0.298-1.5,0.298c-0.565,0-1.087-0.106-1.566-0.318c-0.479-0.212-0.89-0.507-1.234-0.884
			c-0.344-0.371-0.614-0.82-0.81-1.349c-0.196-0.529-0.295-1.095-0.295-1.698c0-0.66,0.103-1.249,0.31-1.766
			c0.206-0.517,0.49-0.965,0.853-1.343c0.358-0.374,0.776-0.66,1.251-0.858c0.476-0.199,0.973-0.298,1.492-0.298
			c0.538,0,1.046,0.101,1.523,0.303C167.064,44.558,167.476,44.842,167.823,45.209z M166.97,50.969
			c0.213-0.347,0.369-0.741,0.467-1.18c0.097-0.439,0.146-0.93,0.146-1.472c0-0.557-0.055-1.068-0.164-1.534
			c-0.108-0.466-0.268-0.863-0.478-1.191c-0.21-0.325-0.473-0.577-0.79-0.759c-0.317-0.181-0.679-0.272-1.088-0.272
			c-0.458,0-0.847,0.106-1.168,0.315c-0.321,0.21-0.582,0.49-0.785,0.841c-0.191,0.337-0.333,0.729-0.426,1.18
			c-0.094,0.45-0.141,0.924-0.141,1.42c0,0.55,0.05,1.046,0.149,1.489c0.099,0.442,0.256,0.835,0.47,1.179
			c0.206,0.337,0.466,0.599,0.779,0.788s0.687,0.283,1.122,0.283c0.409,0,0.777-0.095,1.105-0.286
			C166.497,51.58,166.764,51.313,166.97,50.969z"/>
		<path fill="#F5F5F5" d="M179.496,44.653c-0.107,0.005-0.271,0.035-0.493,0.091c-0.221,0.057-0.38,0.117-0.475,0.178
			c-0.138,0.095-0.23,0.278-0.278,0.55c-0.048,0.271-0.072,0.614-0.072,1.03v5.949h-0.498l-4.924-6.647v4.191
			c0,0.469,0.03,0.83,0.089,1.082c0.059,0.251,0.15,0.43,0.272,0.538c0.087,0.083,0.269,0.162,0.544,0.235
			c0.275,0.073,0.456,0.11,0.544,0.114v0.407h-3.332v-0.407c0.103-0.007,0.277-0.045,0.521-0.111
			c0.245-0.067,0.397-0.127,0.459-0.181c0.133-0.107,0.225-0.27,0.274-0.489c0.05-0.219,0.074-0.595,0.074-1.126v-4.001
			c0-0.176-0.03-0.352-0.091-0.528c-0.061-0.175-0.143-0.311-0.246-0.406c-0.137-0.127-0.324-0.235-0.558-0.324
			c-0.235-0.09-0.424-0.138-0.57-0.147v-0.406h2.321l4.567,6.194v-3.864c0-0.474-0.03-0.837-0.091-1.091
			c-0.062-0.254-0.149-0.423-0.264-0.507c-0.107-0.073-0.281-0.143-0.524-0.212c-0.243-0.069-0.427-0.107-0.552-0.115v-0.406h3.303
			V44.653z"/>
		<path fill="#F5F5F5" d="M186.383,48.644c0.172,0.191,0.298,0.4,0.381,0.627s0.123,0.491,0.123,0.793
			c0,0.718-0.266,1.31-0.796,1.775c-0.531,0.466-1.189,0.699-1.975,0.699c-0.363,0-0.725-0.056-1.088-0.169
			c-0.362-0.113-0.675-0.25-0.939-0.41l-0.246,0.419h-0.458l-0.08-2.783h0.464c0.096,0.344,0.207,0.653,0.335,0.93
			c0.128,0.277,0.297,0.536,0.507,0.776c0.199,0.225,0.43,0.405,0.696,0.538c0.265,0.134,0.573,0.201,0.925,0.201
			c0.263,0,0.493-0.034,0.69-0.103c0.196-0.069,0.356-0.167,0.478-0.293c0.122-0.125,0.213-0.273,0.272-0.443
			c0.059-0.171,0.089-0.367,0.089-0.589c0-0.325-0.091-0.627-0.275-0.908c-0.183-0.281-0.456-0.495-0.819-0.64
			c-0.248-0.099-0.532-0.208-0.853-0.327s-0.597-0.233-0.83-0.34c-0.458-0.205-0.814-0.475-1.068-0.809s-0.381-0.77-0.381-1.309
			c0-0.308,0.063-0.597,0.189-0.864c0.126-0.266,0.305-0.505,0.538-0.715c0.221-0.198,0.483-0.354,0.785-0.467
			c0.301-0.113,0.616-0.169,0.945-0.169c0.374,0,0.709,0.057,1.005,0.172c0.296,0.115,0.566,0.249,0.81,0.401l0.235-0.389h0.458
			l0.046,2.696h-0.464c-0.084-0.308-0.178-0.605-0.283-0.887c-0.105-0.283-0.242-0.538-0.41-0.768
			c-0.164-0.22-0.364-0.398-0.601-0.529c-0.237-0.133-0.527-0.198-0.87-0.198c-0.363,0-0.672,0.117-0.928,0.349
			c-0.256,0.233-0.383,0.517-0.383,0.854c0,0.351,0.082,0.641,0.246,0.872c0.164,0.231,0.403,0.421,0.716,0.57
			c0.279,0.134,0.552,0.249,0.821,0.346c0.269,0.097,0.53,0.202,0.782,0.312c0.229,0.1,0.45,0.212,0.661,0.339
			C186.042,48.329,186.226,48.476,186.383,48.644z"/>
		<path fill="#F5F5F5" d="M200.843,47.63c-0.225,0.02-0.452,0.064-0.681,0.135c-0.229,0.07-0.405,0.182-0.527,0.335
			c-0.08,0.091-0.161,0.226-0.243,0.406c-0.081,0.179-0.18,0.392-0.294,0.636c-0.114,0.245-0.23,0.485-0.348,0.721
			c-0.118,0.237-0.27,0.474-0.457,0.711c0.152,0.183,0.339,0.382,0.561,0.598c0.221,0.216,0.41,0.372,0.566,0.467
			c0.152,0.088,0.369,0.162,0.649,0.223c0.28,0.062,0.51,0.096,0.69,0.103v0.407h-2.359l-0.853-0.973
			c-0.126,0.137-0.27,0.279-0.433,0.427c-0.162,0.147-0.333,0.273-0.512,0.38c-0.199,0.115-0.398,0.204-0.599,0.27
			c-0.201,0.064-0.436,0.097-0.707,0.097c-0.283,0-0.563-0.041-0.841-0.123c-0.279-0.082-0.533-0.213-0.762-0.393
			c-0.222-0.175-0.401-0.4-0.538-0.675c-0.137-0.274-0.206-0.603-0.206-0.984c0-0.474,0.125-0.902,0.375-1.286
			c0.25-0.383,0.716-0.79,1.4-1.222c-0.31-0.408-0.55-0.761-0.722-1.059c-0.172-0.298-0.257-0.632-0.257-1.003
			c0-0.263,0.052-0.504,0.157-0.724c0.105-0.22,0.253-0.412,0.444-0.576c0.175-0.149,0.389-0.265,0.641-0.349
			c0.252-0.083,0.507-0.125,0.767-0.125c0.305,0,0.573,0.048,0.804,0.145c0.231,0.097,0.419,0.224,0.564,0.381
			c0.134,0.145,0.236,0.313,0.307,0.504c0.07,0.19,0.106,0.381,0.106,0.572c0,0.457-0.142,0.853-0.425,1.182
			c-0.284,0.331-0.675,0.627-1.173,0.89c0.358,0.485,0.709,0.926,1.052,1.326c0.343,0.399,0.673,0.79,0.99,1.176
			c0.254-0.408,0.453-0.793,0.593-1.154s0.211-0.678,0.211-0.953c0-0.122-0.089-0.218-0.266-0.288
			c-0.178-0.072-0.423-0.138-0.736-0.204v-0.406h3.063V47.63z M197.242,51.066c-0.355-0.45-0.755-0.944-1.2-1.48
			c-0.444-0.537-0.8-0.99-1.068-1.36c-0.309,0.213-0.528,0.464-0.656,0.753c-0.128,0.288-0.192,0.618-0.192,0.987
			c0,0.519,0.148,0.95,0.444,1.291c0.296,0.342,0.692,0.512,1.188,0.512c0.279,0,0.552-0.06,0.821-0.179
			C196.85,51.47,197.07,51.295,197.242,51.066z M196.796,45.769c0-0.389-0.086-0.687-0.257-0.896
			c-0.171-0.208-0.415-0.312-0.731-0.312c-0.179,0-0.327,0.036-0.445,0.109c-0.118,0.073-0.219,0.164-0.303,0.274
			c-0.076,0.107-0.131,0.222-0.166,0.344c-0.034,0.122-0.051,0.231-0.051,0.327c0,0.263,0.069,0.529,0.206,0.799
			c0.137,0.269,0.351,0.595,0.64,0.976c0.392-0.222,0.674-0.461,0.847-0.719C196.709,46.414,196.796,46.113,196.796,45.769z"/>
		<path fill="#F5F5F5" d="M211.64,48.644c0.172,0.191,0.298,0.4,0.381,0.627c0.082,0.227,0.123,0.491,0.123,0.793
			c0,0.718-0.266,1.31-0.796,1.775c-0.531,0.466-1.189,0.699-1.975,0.699c-0.363,0-0.725-0.056-1.088-0.169
			c-0.362-0.113-0.675-0.25-0.939-0.41l-0.246,0.419h-0.458l-0.08-2.783h0.464c0.096,0.344,0.207,0.653,0.335,0.93
			c0.128,0.277,0.297,0.536,0.507,0.776c0.199,0.225,0.43,0.405,0.696,0.538c0.265,0.134,0.573,0.201,0.925,0.201
			c0.263,0,0.493-0.034,0.69-0.103c0.196-0.069,0.356-0.167,0.478-0.293c0.122-0.125,0.213-0.273,0.272-0.443
			c0.059-0.171,0.089-0.367,0.089-0.589c0-0.325-0.091-0.627-0.275-0.908c-0.183-0.281-0.456-0.495-0.819-0.64
			c-0.248-0.099-0.532-0.208-0.853-0.327c-0.321-0.12-0.597-0.233-0.83-0.34c-0.458-0.205-0.814-0.475-1.068-0.809
			c-0.254-0.334-0.381-0.77-0.381-1.309c0-0.308,0.063-0.597,0.189-0.864c0.126-0.266,0.305-0.505,0.538-0.715
			c0.221-0.198,0.483-0.354,0.785-0.467c0.301-0.113,0.616-0.169,0.945-0.169c0.374,0,0.709,0.057,1.005,0.172
			c0.296,0.115,0.566,0.249,0.81,0.401l0.235-0.389h0.458l0.046,2.696h-0.464c-0.084-0.308-0.178-0.605-0.283-0.887
			c-0.105-0.283-0.242-0.538-0.41-0.768c-0.164-0.22-0.364-0.398-0.601-0.529c-0.237-0.133-0.527-0.198-0.87-0.198
			c-0.363,0-0.672,0.117-0.928,0.349c-0.256,0.233-0.383,0.517-0.383,0.854c0,0.351,0.082,0.641,0.246,0.872
			c0.164,0.231,0.403,0.421,0.716,0.57c0.279,0.134,0.552,0.249,0.821,0.346c0.269,0.097,0.53,0.202,0.782,0.312
			c0.229,0.1,0.45,0.212,0.661,0.339C211.299,48.329,211.483,48.476,211.64,48.644z"/>
		<path fill="#F5F5F5" d="M221.166,49.978l-0.154,2.393h-6.746v-0.407c0.114-0.007,0.267-0.023,0.459-0.048
			c0.19-0.025,0.314-0.05,0.372-0.077c0.122-0.057,0.206-0.131,0.254-0.223c0.048-0.093,0.072-0.209,0.072-0.349v-5.841
			c0-0.125-0.021-0.237-0.063-0.334c-0.041-0.097-0.129-0.177-0.263-0.238c-0.103-0.049-0.242-0.094-0.415-0.131
			c-0.174-0.039-0.312-0.061-0.415-0.069v-0.406h6.287v1.957h-0.429c-0.076-0.29-0.242-0.598-0.496-0.924
			c-0.253-0.326-0.495-0.504-0.724-0.536c-0.118-0.015-0.26-0.026-0.424-0.034c-0.164-0.007-0.351-0.012-0.561-0.012h-1.277v3.229
			h0.916c0.294,0,0.509-0.027,0.645-0.083c0.135-0.055,0.254-0.148,0.358-0.277c0.083-0.111,0.155-0.259,0.215-0.444
			c0.059-0.185,0.098-0.36,0.117-0.524h0.429v3.184h-0.429c-0.015-0.183-0.056-0.376-0.123-0.58
			c-0.067-0.205-0.136-0.353-0.209-0.444c-0.118-0.149-0.253-0.246-0.403-0.292c-0.151-0.046-0.351-0.068-0.599-0.068h-0.916v2.434
			c0,0.244,0.018,0.436,0.052,0.577c0.034,0.142,0.101,0.249,0.201,0.32c0.1,0.073,0.235,0.12,0.407,0.141
			c0.171,0.021,0.415,0.032,0.733,0.032c0.125,0,0.292,0,0.497,0c0.206,0,0.38-0.008,0.522-0.023
			c0.144-0.015,0.294-0.043,0.449-0.083c0.155-0.04,0.264-0.094,0.33-0.163c0.175-0.183,0.36-0.461,0.552-0.833
			c0.192-0.373,0.315-0.646,0.369-0.822H221.166z"/>
		<path fill="#F5F5F5" d="M226.744,52.566c-0.484,0-0.949-0.095-1.392-0.286c-0.444-0.191-0.838-0.467-1.182-0.826
			c-0.339-0.359-0.61-0.797-0.813-1.315c-0.202-0.517-0.303-1.101-0.303-1.751c0-0.648,0.098-1.238,0.298-1.767
			c0.198-0.529,0.473-0.985,0.823-1.366c0.347-0.379,0.756-0.671,1.23-0.877c0.473-0.206,0.978-0.31,1.515-0.31
			c0.401,0,0.763,0.05,1.087,0.149c0.325,0.1,0.633,0.239,0.926,0.419l0.235-0.389h0.458l0.052,2.896h-0.469
			c-0.061-0.283-0.152-0.589-0.276-0.918c-0.122-0.331-0.265-0.61-0.428-0.84c-0.183-0.259-0.401-0.462-0.652-0.61
			c-0.252-0.147-0.539-0.22-0.864-0.22c-0.369,0-0.713,0.082-1.032,0.246c-0.318,0.164-0.593,0.407-0.826,0.728
			c-0.222,0.31-0.395,0.702-0.521,1.181c-0.127,0.477-0.189,1.01-0.189,1.598c0,0.519,0.066,0.996,0.197,1.429
			c0.131,0.434,0.319,0.815,0.563,1.143c0.245,0.325,0.534,0.578,0.867,0.762c0.334,0.183,0.707,0.274,1.119,0.274
			c0.308,0,0.592-0.048,0.851-0.145c0.26-0.097,0.484-0.226,0.675-0.387c0.19-0.168,0.359-0.359,0.503-0.572
			c0.145-0.213,0.263-0.447,0.355-0.699l0.429,0.206c-0.328,0.806-0.763,1.381-1.305,1.726
			C228.137,52.394,227.492,52.566,226.744,52.566z"/>
		<path fill="#F5F5F5" d="M240.086,44.653c-0.107,0.005-0.264,0.027-0.469,0.069c-0.206,0.042-0.374,0.104-0.504,0.189
			c-0.13,0.088-0.219,0.27-0.27,0.544c-0.049,0.274-0.074,0.611-0.074,1.007v3.533c0,0.45-0.094,0.841-0.28,1.174
			c-0.188,0.332-0.434,0.605-0.739,0.819c-0.301,0.206-0.619,0.354-0.953,0.443c-0.334,0.09-0.654,0.135-0.959,0.135
			c-0.489,0-0.924-0.064-1.305-0.192c-0.382-0.128-0.702-0.3-0.962-0.517c-0.257-0.218-0.449-0.467-0.579-0.748
			c-0.129-0.28-0.195-0.573-0.195-0.878v-4.804c0-0.133-0.021-0.245-0.066-0.334c-0.043-0.09-0.133-0.172-0.266-0.25
			c-0.095-0.053-0.217-0.096-0.366-0.128c-0.149-0.033-0.271-0.053-0.367-0.061v-0.406h3.384v0.406
			c-0.107,0.005-0.242,0.021-0.403,0.052c-0.163,0.03-0.281,0.06-0.358,0.086c-0.13,0.046-0.217,0.122-0.261,0.23
			c-0.043,0.107-0.066,0.223-0.066,0.348v4.485c0,0.217,0.025,0.446,0.072,0.684c0.048,0.238,0.142,0.461,0.284,0.666
			c0.149,0.21,0.351,0.382,0.606,0.516c0.257,0.133,0.607,0.199,1.054,0.199c0.42,0,0.772-0.067,1.057-0.199
			c0.284-0.134,0.508-0.31,0.672-0.527c0.157-0.206,0.267-0.422,0.333-0.647c0.064-0.224,0.097-0.451,0.097-0.68v-3.33
			c0-0.423-0.03-0.769-0.093-1.038c-0.061-0.269-0.15-0.446-0.269-0.529c-0.134-0.096-0.315-0.17-0.546-0.224
			c-0.231-0.053-0.408-0.083-0.53-0.091v-0.406h3.321V44.653z"/>
		<path fill="#F5F5F5" d="M249.824,52.371h-2.187c-0.485-0.76-0.923-1.417-1.313-1.97c-0.39-0.553-0.815-1.123-1.272-1.711h-0.833
			v2.576c0,0.134,0.021,0.251,0.063,0.352c0.042,0.101,0.131,0.178,0.269,0.232c0.069,0.026,0.189,0.052,0.361,0.074
			c0.171,0.023,0.317,0.036,0.435,0.04v0.407h-3.436v-0.407c0.093-0.007,0.225-0.021,0.399-0.04
			c0.174-0.019,0.294-0.043,0.364-0.074c0.115-0.05,0.197-0.122,0.249-0.218c0.052-0.095,0.077-0.217,0.077-0.366v-5.875
			c0-0.134-0.019-0.252-0.057-0.355c-0.038-0.102-0.128-0.181-0.269-0.235c-0.096-0.034-0.219-0.066-0.372-0.094
			c-0.154-0.029-0.283-0.047-0.39-0.055v-0.406h3.751c0.344,0,0.666,0.035,0.967,0.106s0.575,0.184,0.819,0.34
			c0.237,0.154,0.426,0.353,0.566,0.599c0.142,0.246,0.212,0.543,0.212,0.89c0,0.313-0.048,0.59-0.143,0.83
			c-0.096,0.24-0.237,0.448-0.423,0.624c-0.172,0.164-0.379,0.306-0.619,0.427c-0.24,0.12-0.505,0.223-0.795,0.306
			c0.4,0.531,0.733,0.977,0.999,1.34c0.265,0.362,0.59,0.803,0.976,1.322c0.168,0.23,0.32,0.399,0.455,0.508
			c0.136,0.108,0.27,0.197,0.403,0.266c0.1,0.049,0.224,0.088,0.373,0.114c0.149,0.027,0.272,0.042,0.372,0.046V52.371z
			 M246.813,46.317c0-0.491-0.142-0.882-0.423-1.169c-0.283-0.287-0.681-0.432-1.197-0.432h-0.973v3.482h0.75
			c0.527,0,0.965-0.169,1.317-0.507C246.637,47.355,246.813,46.896,246.813,46.317z"/>
		<path fill="#F5F5F5" d="M254.862,52.371h-3.659v-0.407c0.103-0.007,0.252-0.019,0.447-0.034s0.332-0.038,0.412-0.069
			c0.127-0.049,0.218-0.117,0.274-0.203c0.057-0.086,0.087-0.205,0.087-0.358v-5.886c0-0.134-0.021-0.245-0.063-0.335
			c-0.042-0.089-0.141-0.165-0.298-0.226c-0.115-0.046-0.258-0.088-0.433-0.129c-0.174-0.04-0.315-0.063-0.426-0.072v-0.406h3.659
			v0.406c-0.118,0.005-0.26,0.019-0.424,0.043c-0.164,0.025-0.307,0.056-0.429,0.095c-0.145,0.046-0.243,0.12-0.292,0.223
			c-0.049,0.103-0.074,0.217-0.074,0.344v5.88c0,0.127,0.027,0.238,0.082,0.335c0.056,0.097,0.15,0.175,0.284,0.232
			c0.081,0.03,0.211,0.063,0.393,0.1c0.181,0.036,0.334,0.056,0.461,0.06V52.371z"/>
		<path fill="#F5F5F5" d="M263.661,46.451h-0.395c-0.034-0.137-0.096-0.3-0.186-0.489c-0.09-0.189-0.19-0.367-0.301-0.536
			c-0.115-0.175-0.24-0.328-0.375-0.461c-0.136-0.131-0.267-0.206-0.394-0.225c-0.118-0.015-0.267-0.027-0.447-0.035
			c-0.181-0.007-0.347-0.012-0.5-0.012h-0.333v6.499c0,0.127,0.027,0.242,0.08,0.347c0.054,0.104,0.148,0.185,0.281,0.243
			c0.068,0.027,0.212,0.063,0.432,0.109c0.219,0.046,0.39,0.07,0.512,0.074v0.407h-3.836v-0.407c0.107-0.007,0.27-0.022,0.489-0.046
			c0.22-0.022,0.372-0.052,0.456-0.086c0.125-0.049,0.218-0.121,0.277-0.215c0.06-0.094,0.089-0.218,0.089-0.375v-6.55h-0.332
			c-0.118,0-0.265,0.004-0.441,0.009s-0.344,0.018-0.504,0.038c-0.125,0.015-0.257,0.09-0.392,0.225
			c-0.136,0.136-0.26,0.29-0.375,0.461c-0.115,0.172-0.216,0.354-0.304,0.548c-0.088,0.192-0.149,0.352-0.183,0.477h-0.401v-2.203
			h7.083V46.451z"/>
		<path fill="#F5F5F5" d="M272.443,44.653c-0.066,0.005-0.169,0.03-0.31,0.077c-0.141,0.048-0.243,0.095-0.304,0.141
			c-0.149,0.091-0.25,0.162-0.304,0.212c-0.053,0.049-0.156,0.179-0.308,0.389c-0.298,0.42-0.572,0.845-0.824,1.276
			c-0.252,0.432-0.568,0.979-0.945,1.644c-0.141,0.244-0.235,0.441-0.28,0.59c-0.046,0.148-0.069,0.364-0.069,0.646v1.551
			c0,0.138,0.028,0.257,0.083,0.359c0.055,0.101,0.15,0.182,0.284,0.243c0.08,0.03,0.223,0.068,0.429,0.111
			c0.206,0.045,0.372,0.068,0.498,0.072v0.407h-3.802v-0.407c0.107-0.007,0.267-0.021,0.481-0.042
			c0.213-0.021,0.362-0.049,0.447-0.083c0.137-0.057,0.231-0.136,0.283-0.235c0.052-0.1,0.077-0.222,0.077-0.367v-1.975
			c0-0.061-0.036-0.172-0.111-0.335c-0.074-0.162-0.163-0.342-0.266-0.541c-0.229-0.443-0.483-0.922-0.761-1.438
			c-0.279-0.515-0.522-0.956-0.727-1.323c-0.127-0.217-0.238-0.381-0.335-0.493c-0.097-0.11-0.209-0.208-0.335-0.292
			c-0.091-0.056-0.201-0.101-0.328-0.131c-0.128-0.03-0.244-0.049-0.347-0.057v-0.406h3.468v0.406
			c-0.389,0.008-0.665,0.035-0.824,0.08c-0.161,0.046-0.24,0.111-0.24,0.195c0,0.022,0.011,0.062,0.034,0.12
			c0.022,0.057,0.055,0.129,0.097,0.217c0.049,0.1,0.108,0.213,0.177,0.341c0.068,0.128,0.133,0.251,0.195,0.369
			c0.178,0.339,0.361,0.678,0.548,1.016c0.186,0.338,0.43,0.777,0.732,1.319c0.598-0.965,1.055-1.718,1.37-2.257
			c0.315-0.541,0.473-0.863,0.473-0.97c0-0.088-0.033-0.158-0.097-0.212c-0.066-0.053-0.151-0.095-0.258-0.125
			c-0.11-0.03-0.231-0.05-0.361-0.06c-0.129-0.009-0.25-0.02-0.36-0.032v-0.406h2.825V44.653z"/>
	</g>
</g>
</svg>
