<?xml version="1.0" encoding="utf-8"?>
<!-- Generator: Adobe Illustrator 17.0.2, SVG Export Plug-In . SVG Version: 6.00 Build 0)  -->
<!DOCTYPE svg PUBLIC "-//W3C//DTD SVG 1.1//EN" "http://www.w3.org/Graphics/SVG/1.1/DTD/svg11.dtd">
<svg version="1.1" id="svg3833" xmlns:svg="http://www.w3.org/2000/svg"
	 xmlns="http://www.w3.org/2000/svg" xmlns:xlink="http://www.w3.org/1999/xlink" x="0px" y="0px" width="300px" height="89px"
	 viewBox="0 0 300 89" enable-background="new 0 0 300 89" xml:space="preserve">
<g>
	<path fill="#EEEEEE" d="M227.29,44.193c0-4.93,0.01-9.861-0.01-14.791c-0.003-0.779-0.039-1.327,1.069-1.306
		c3.696,0.071,7.417-0.228,11.086,0.096c3.983,0.351,7.861,1.377,10.72,4.567c2.687,2.999,4.277,6.466,4.31,10.533
		c0.017,2.084,0.102,4.139-0.543,6.233c-1.044,3.39-2.682,6.258-5.646,8.253c-2.471,1.663-5.178,2.565-8.215,2.5
		c-3.696-0.079-7.395-0.012-11.093-0.022c-1.658-0.004-1.673-0.019-1.676-1.581C227.285,53.848,227.29,49.02,227.29,44.193z
		 M230.998,44.21c0,4.015,0.011,8.031-0.011,12.046c-0.003,0.622,0.125,0.935,0.824,0.924c1.853-0.03,3.712-0.101,5.558,0.015
		c1.826,0.115,3.551-0.522,5.282-0.793c2.097-0.328,4.287-1.548,5.6-3.355c2.495-3.433,2.945-7.506,2.449-11.593
		c-0.187-1.538-1.011-3.12-1.921-4.417c-0.99-1.411-2.267-2.75-3.705-3.678c-1.146-0.74-2.736-0.776-3.982-1.529
		c-3.046,0.417-5.956-0.952-9.014-0.663c-1.041,0.098-1.099,0.488-1.092,1.306C231.014,36.385,230.998,40.298,230.998,44.21z"/>
	<path fill="#EEEEEE" d="M143.86,44.243c0,5.047,0.001,10.094-0.001,15.141c0,0.297,0.083,0.658-0.258,0.812
		c-0.413,0.186-0.757,0.027-1.054-0.317c-1.311-1.517-2.849-2.787-3.998-4.508c-1.27-1.9-3.054-3.473-4.608-5.172
		c-2.255-2.465-4.231-5.179-6.659-7.499c-1.592-1.521-2.659-3.544-4.397-4.959c-0.129-0.105-0.289-0.173-0.435-0.259
		c-0.073,0.176-0.209,0.351-0.209,0.528c-0.012,3.502-0.009,7.004-0.009,10.506c0,3.605-0.011,7.21,0.011,10.815
		c0.004,0.609-0.093,0.975-0.81,0.936c-0.719-0.039-1.442-0.016-2.162-0.006c-0.467,0.006-0.782-0.123-0.75-0.673
		c0.018-0.308,0.003-0.618,0.003-0.927c0-9.682,0-19.364,0.002-29.045c0-0.407-0.05-0.834,0.057-1.215
		c0.095-0.337,0.605-0.408,0.773-0.257c0.991,0.887,2.137,1.712,2.791,2.818c0.355,0.601,0.737,1.149,1.189,1.652
		c2.098,2.331,4.32,4.558,6.305,6.98c2.741,3.345,5.459,6.7,8.546,9.737c0.22,0.217,0.601,0.42,0.625,0.658
		c0.078,0.764,0.537,1.548,1.104,1.434c0.554-0.112,0.22-1.088,0.222-1.671c0.023-6.695,0.011-13.39,0.018-20.085
		c0.001-1.522,0.017-1.524,1.414-1.544c0.412-0.006,0.827,0.031,1.235-0.008c0.745-0.071,1.103,0.118,1.076,0.987
		c-0.063,2.058-0.02,4.119-0.02,6.179C143.86,38.269,143.86,41.256,143.86,44.243z"/>
	<path fill="#EEEEEE" d="M194.536,44.196c0-5.047-0.002-10.094,0.005-15.141c0-0.288-0.142-0.646,0.213-0.833
		c0.406-0.215,0.717-0.057,1.061,0.234c1.399,1.18,2.39,2.695,3.489,4.123c1.036,1.346,2.748,2.119,3.288,3.893
		c0.053,0.174,0.267,0.31,0.426,0.439c2.386,1.931,4.039,4.533,6.046,6.8c2.176,2.456,4.661,4.679,6.413,7.506
		c0.091,0.146,0.284,0.229,0.43,0.341c0.086-0.17,0.242-0.338,0.247-0.511c0.026-0.823,0.012-1.648,0.012-2.472
		c0-6.386,0.04-12.772-0.036-19.157c-0.014-1.189,0.363-1.45,1.397-1.303c0.404,0.057,0.83,0.059,1.233,0
		c1.028-0.15,1.134,0.38,1.131,1.241c-0.029,7.828-0.017,15.656-0.017,23.483c0,2.266,0.005,4.532-0.009,6.798
		c-0.001,0.177-0.102,0.476-0.212,0.504c-0.259,0.067-0.664,0.121-0.812-0.023c-1.328-1.285-2.808-2.484-3.82-3.992
		c-0.444-0.661-0.935-1.274-1.456-1.838c-2.654-2.873-5.072-5.96-7.706-8.829c-2.329-2.537-4.35-5.359-6.919-7.677
		c-0.136-0.123-0.29-0.226-0.436-0.338c-0.086,0.17-0.24,0.338-0.247,0.511c-0.028,0.72-0.012,1.442-0.012,2.162
		c0,6.283-0.041,12.566,0.036,18.848c0.015,1.19-0.363,1.441-1.397,1.305c-0.506-0.066-1.031-0.041-1.543-0.004
		c-0.713,0.051-0.817-0.317-0.815-0.93C194.544,54.29,194.536,49.243,194.536,44.196z"/>
	<path fill="#EEEEEE" d="M170.434,44.061c0-4.841,0.012-9.681-0.011-14.522c-0.004-0.902-0.095-1.49,1.249-1.462
		c5.353,0.112,10.711,0.063,16.066,0.029c0.857-0.005,1.398,0.091,1.246,1.126c-0.059,0.403-0.056,0.829-0.001,1.233
		c0.14,1.022-0.092,1.447-1.299,1.403c-3.086-0.112-6.179-0.077-9.268-0.02c-1.406,0.026-2.841-0.293-4.22,0.237
		c-0.018,1.331-0.043,2.663-0.052,3.994c-0.009,1.339,0.046,2.68-0.019,4.016c-0.04,0.83,0.267,1.028,1.049,1.02
		c3.604-0.035,7.209-0.016,10.814-0.016c0.721,0,1.444,0.03,2.162-0.009c0.691-0.037,0.908,0.281,0.826,0.911
		c-0.013,0.101-0.004,0.206-0.002,0.309c0.059,2.486,0.059,2.492-2.319,2.495c-3.708,0.005-7.416,0.027-11.123-0.016
		c-0.963-0.011-1.48,0.008-1.431,1.282c0.125,3.291,0.07,6.59,0.023,9.886c-0.013,0.888,0.161,1.247,1.154,1.233
		c4.016-0.057,8.033-0.037,12.05-0.008c0.552,0.004,1.402-0.372,1.599,0.384c0.198,0.76,0.066,1.627-0.034,2.433
		c-0.043,0.342-0.499,0.255-0.796,0.255c-5.562,0.002-11.123-0.018-16.685,0.022c-0.871,0.006-0.993-0.338-0.99-1.078
		C170.445,54.155,170.434,49.108,170.434,44.061z"/>
	<path fill="#EEEEEE" d="M286.299,60.259c-1.388,0.764-1.671-0.734-2.119-1.567c-1.398-2.596-2.176-5.478-3.661-8.063
		c-0.372-0.647-0.53-0.884-1.192-0.882c-3.705,0.012-7.41,0.021-11.115-0.004c-1.009-0.007-1.598,0.243-2.033,1.325
		c-1.099,2.734-2.929,5.137-3.686,8.047c-0.178,0.685-0.687,1.198-1.545,1.151c-0.718-0.039-1.443,0.027-2.16-0.017
		c-0.777-0.048-0.691-0.552-0.455-1.058c1.449-3.105,2.885-6.216,4.366-9.306c2.674-5.583,5.386-11.148,8.061-16.73
		c0.575-1.2,0.829-2.533,1.601-3.67c0.196-0.289,0.318-0.687,0.585-0.982c0.525-0.58,0.924-0.535,1.31,0.188
		c2.649,4.961,4.432,10.344,7.383,15.158c0.038,1.739,1.176,3.01,1.876,4.472c1.603,3.347,2.846,6.86,4.669,10.106
		c0.094,0.167,0.225,0.322,0.281,0.5c0.245,0.771-0.157,1.299-1.003,1.33C287.155,60.269,286.846,60.259,286.299,60.259z
		 M273.253,46.663c1.544,0,3.088-0.003,4.632,0.001c0.749,0.002,0.918-0.54,0.604-0.979c-1.02-1.431-1.495-3.088-2.168-4.667
		c-0.672-1.575-1.419-3.12-2.189-4.65c-0.161-0.32-0.545-0.691-0.86-0.725c-0.295-0.032-0.147,0.517-0.263,0.764
		c-1.494,3.19-2.998,6.377-4.554,9.537c-0.197,0.401-0.535,0.684,0.168,0.705C270.164,46.694,271.709,46.663,273.253,46.663z"/>
	<path fill="#EEEEEE" d="M45.079,78.181c-0.794,0-1.309,0.001-1.824,0c-2.878-0.006-3.135-0.085-2.508-2.809
		c0.342-1.486,0.121-3.047,0.605-4.369c0.806-2.203,0.344-4.388,0.547-6.568c0.132-1.419-0.835-2.606-0.668-4.074
		c0.213-1.869,0.064-3.742,0.562-5.634c0.276-1.046,0.427-1.335,1.458-1.29c1.635,0.071,1.702,0.005,1.711,1.564
		c0.01,1.616,0.589,3.192,1.415,4.335c1.319,1.828,2.223,4,4.05,5.461c0.376,0.301,0.806,0.604,0.74,1.235
		c-0.358,3.447,0.952,6.782,0.669,10.25c-0.096,1.174-0.537,1.07-1.399,1.358C48.557,78.267,46.686,78.119,45.079,78.181z"/>
	<path fill="#EEEEEE" d="M158.692,46.042c0,4.314-0.062,8.63,0.039,12.942c0.029,1.233-0.422,1.405-1.413,1.283
		c-0.405-0.05-0.828-0.058-1.23,0.001c-1.036,0.152-1.123-0.395-1.12-1.246c0.027-8.012,0.022-16.025,0.009-24.037
		c-0.002-1.004,0.267-2.388-0.263-2.907c-0.538-0.527-1.911-0.211-2.919-0.244c-0.616-0.02-1.233,0.002-1.849-0.005
		c-1.756-0.018-1.765-0.02-1.757-1.81c0.009-2.265-0.271-1.884,1.98-1.891c4.931-0.017,9.862,0.021,14.792-0.028
		c0.967-0.009,1.183,0.308,1.169,1.213c-0.033,2.19-0.251,2.472-2.362,2.518c-1.628,0.035-3.255,0.077-4.883,0.115
		c-0.45,1.705-0.143,3.44-0.177,5.159C158.649,40.084,158.692,43.064,158.692,46.042z"/>
	<path fill="#EEEEEE" d="M89.476,44.507c0-13.794-0.003-27.587,0.007-41.381c0.001-0.732-0.386-1.71,1.069-1.602
		c1.328,0.099,0.752,1.037,0.753,1.587c0.029,27.587,0.027,55.174,0.018,82.762c0,0.732,0.386,1.71-1.069,1.602
		c-1.328-0.099-0.751-1.037-0.752-1.588C89.469,72.094,89.476,58.301,89.476,44.507z"/>
	<path fill="#EEEEEE" d="M111.724,44.516c0,4.834-0.017,9.668,0.016,14.501c0.006,0.844-0.072,1.413-1.116,1.249
		c-0.301-0.047-0.616-0.006-0.924-0.007c-1.662-0.009-1.679-0.009-1.681-1.583c-0.006-7.611-0.003-15.221-0.003-22.832
		c0-1.748-0.045-3.498,0.02-5.244c0.03-0.791-0.465-1.963,0.234-2.294c0.841-0.399,1.991-0.203,3.004-0.162
		c0.546,0.022,0.452,0.549,0.452,0.945c-0.003,1.543-0.001,3.085-0.001,4.628C111.724,37.316,111.724,40.916,111.724,44.516z"/>
	<path fill="#87B0C0" d="M35.109,41.719c-0.932-1.317-2.891,0.041-4.159-1.215c-0.156-0.154-0.703-0.151-0.888,0
		c-1.061,0.863-2.313,0.686-3.463,0.551c-1.127-0.132-1.923,1.26-3.086,0.516c-0.903-0.578-1.865-0.908-2.917-1.198
		c-0.829-0.228-1.819-0.706-2.535-1.257c-1.207-0.93-2.717-0.944-3.949-1.707c-1.119-0.693-1.595-1.554-1.268-2.679
		c0.204-0.703,1.12-1.065,1.846-0.745c3.309,1.459,6.641,2.868,9.913,4.404c0.729,0.342,1.403,0.275,2.062,0.212
		c2.536-0.246,4.823,0.791,7.207,1.298c0.717,0.153,1.365,0.68,2.011,1.088c0.231,0.146,0.625,0.395,0.41,0.708
		C36.192,41.839,35.71,41.719,35.109,41.719z"/>
	<path fill="#87B0C0" d="M46.498,52.877c0.204,0.184,0.56,0.346,0.6,0.565c0.564,3.105,3.038,4.797,5.032,6.832
		c0.468,0.478,0.905,0.961,1.609,1.285c1.258,0.579,2.158,1.7,2.688,3.04c1.081,2.731,2.169,5.458,3.241,8.192
		c0.222,0.565,0.401,1.457-0.166,1.592c-0.838,0.201-1.564,1.264-2.451,0.65c-0.483-0.334-0.743-1.107-0.93-1.733
		c-0.789-2.645-2.121-5.081-2.951-7.694c-0.478-1.507-1.372-2.576-2.435-3.61c-2.279-2.217-3.471-5.057-4.497-7.977
		C46.126,53.697,46.053,53.202,46.498,52.877z"/>
	<path fill="#87B0C0" d="M34.419,76.947c-1.336-0.083-1.817-0.592-1.801-1.855c0.006-0.499,0.14-0.902,0.387-1.382
		c0.995-1.933,1.804-3.961,2.71-5.941c0.688-1.503,1.576-2.945,1.231-4.715c1.142-1.939,0.161-4.276,1.181-6.277
		c0.211-0.414,0.625-0.828,0.636-1.253c0.019-0.754,0.616-0.987,0.974-1.436c0.501,0.641,0.515,1.279-0.051,1.88
		c-0.496,0.526-0.275,1.164-0.248,1.734c0.113,2.38-0.387,4.788,0.539,7.144c0.238,0.605,0.136,1.474-0.266,2.304
		c-1.36,2.807-2.502,5.721-3.727,8.594C35.681,76.454,35.529,77.36,34.419,76.947z"/>
	<path fill="#87B0C0" d="M35.086,48.832c-0.142,0.142-0.269,0.385-0.436,0.418c-1.549,0.301-2.321,1.74-3.556,2.521
		c-1.344,0.849-2.321,2.469-3.244,3.836c-0.837,1.24-1.655,1.831-3.032,2.385c-2.648,1.064-5.412,1.855-7.97,3.056
		c-1.268,0.595-1.645,0.177-2.106-0.565c-0.181-0.291-0.27-0.685-0.498-1.022c-0.307-0.453-0.274-0.798,0.417-1.084
		c2.455-1.014,4.91-2.117,7.397-2.946c2.602-0.867,4.762-2.154,6.673-3.977c1.515-1.446,3.482-2.007,5.273-2.912
		C34.309,48.387,34.813,48.41,35.086,48.832z"/>
	<path fill="#87B0C0" d="M36.328,15.883c0-0.307,0.026-0.617-0.005-0.922c-0.077-0.738,0.12-1.224,0.977-1.044
		c0.617,0.13,0.845-0.47,1.289-0.603c0.376-0.112,0.753-0.036,0.843,0.549c0.303,1.955,0.404,3.95,0.704,5.878
		c0.437,2.81,0.385,5.728,1.94,8.407c1.016,1.75,2.079,3.742,1.717,6.063c-0.118,0.755,1.278,2.017,0.352,2.29
		c-1.175,0.346-0.939-1.337-1.23-2.138c-0.802-2.205-1.815-4.268-3.503-5.922c-1.537-1.506-2.066-3.53-2.382-5.452
		C36.648,20.659,37.211,18.198,36.328,15.883z"/>
	<path fill="#87B0C0" d="M15.22,53.461c-1.242,0-1.869,0.074-2.471-0.017c-0.9-0.136-1.621-1.961-1.123-2.765
		c0.09-0.146,0.338-0.318,0.477-0.291c1.734,0.332,3.248-0.924,4.984-0.646c2.316,0.371,4.477-0.829,6.83-0.712
		c1.069,0.053,2.176-1.066,3.298-1.584c2.057-0.95,4.168-1.698,6.503-1.41c0.301,0.037,0.717,0.062,0.691,0.342
		c-0.029,0.314-0.486,0.216-0.765,0.298c-2.62,0.767-5.141,1.969-6.945,3.915c-1.389,1.498-3.116,1.976-4.675,2.124
		C19.551,52.949,17.064,53.126,15.22,53.461z"/>
	<path fill="#87B0C0" d="M32.861,44.191c-1.843-0.232-3.749,0.385-5.707,1.191c-3.425,1.41-4.215,1.935-8.472,0.663
		c-2.137,0.419-4.099-0.915-6.225-0.62c-0.666,0.093-0.921-0.224-0.854-0.874c0.031-0.305,0.006-0.617,0.005-0.925
		c-0.004-1.593,0.007-1.3,1.718-1.365c2.047-0.078,3.949,0.498,5.913,0.741c1.869,0.231,3.791,1.047,5.593,0.503
		c2.908-0.878,5.816-0.353,8.714-0.553c0.724-0.05,1.39-0.032,1.929,0.6c0.131,0.153,0.774-0.038,0.757,0.271
		c-0.03,0.526-0.574,0.355-0.931,0.363C34.581,44.202,33.861,44.191,32.861,44.191z"/>
	<path fill="#87B0C0" d="M54.897,45.427c-0.366,0-0.473,0.019-0.571-0.003c-0.817-0.186-1.753,0.408-2.478-0.376
		c0.743-0.538,1.615-0.004,2.362-0.255c2.75-0.924,5.43-2.056,7.527-4.119c1.438-1.415,2.951-2.251,5.025-2.063
		c2.506,0.227,4.914-1.028,7.449-0.598c0.561,0.095,1.413-0.343,1.619,0.374c0.216,0.752,0.083,1.626-0.009,2.435
		c-0.036,0.321-0.481,0.29-0.784,0.278c-2.509-0.093-4.926,0.662-7.447,0.736c-2.118,0.062-4.377,0.638-6.289,1.818
		C59.24,44.925,57.077,45.664,54.897,45.427z"/>
	<path fill="#87B0C0" d="M73.917,49.135c-1.509-0.661-3.677-0.545-5.772-1.116c-1.817-0.495-4.016-0.565-5.786-0.004
		c-2.133,0.677-4.182,0.307-6.256,0.489c-1.083,0.095-2.184,0.095-3.137-0.601c-0.151-0.11-0.493-0.191-0.485-0.249
		c0.047-0.34,0.323-0.403,0.627-0.372c3.224,0.322,6.168-0.615,9.125-1.784c0.985-0.389,1.936-0.96,2.88-1.191
		c0.893-0.219,1.996,0.467,3.102,0.563c2.62,0.227,5.214,0.759,7.816,1.183c0.321,0.052,0.506,0.255,0.475,0.634
		c-0.034,0.408-0.048,0.826,0.001,1.232c0.105,0.875-0.125,1.381-1.132,1.225C75.074,49.096,74.759,49.135,73.917,49.135z"/>
	<path fill="#87B0C0" d="M36.639,39.247c-0.205,0-0.498,0.089-0.602-0.013c-2.125-2.093-4.928-2.255-7.598-2.385
		c-2.04-0.099-3.501-0.799-5.032-2.072c-1.489-1.239-2.837-2.698-4.628-3.599c-0.694-0.349-1.212-1.078-1.763-1.677
		c-0.616-0.668-0.378-2.637,0.389-3.124c0.192-0.122,0.624-0.101,0.807,0.038c1.88,1.42,3.869,2.737,5.543,4.373
		c1.158,1.132,2.704,1.714,3.709,2.989c0.249,0.316,0.542,0.51,1.007,0.545c2.984,0.222,5.234,2.192,7.814,3.377
		c0.297,0.136,0.753,0.422,0.652,0.934C36.894,38.85,37.174,39.259,36.639,39.247z"/>
	<path fill="#87B0C0" d="M52.402,50.069c0.068-0.072,0.124-0.183,0.207-0.209c0.183-0.058,0.415-0.157,0.566-0.094
		c2.415,1.01,4.949,0.524,7.433,0.58c0.851,0.019,1.72,0.248,2.591-0.459c0.467-0.379,1.434-0.219,2.247,0.188
		c2.112,1.058,4.402,1.777,6.462,2.917c0.866,0.479,1.825,0.466,2.679,1.015c0.71,0.457,0.919,0.694,0.389,1.249
		c-0.428,0.449-0.285,0.926-0.336,1.408c-0.061,0.581-0.518,0.59-0.898,0.492c-0.919-0.238-1.854-0.47-2.719-0.85
		c-1.473-0.648-2.914-1.36-4.402-1.987c-1.901-0.801-3.73-1.35-5.827-1.606c-2.513-0.307-5.194-0.475-7.517-1.788
		C52.936,50.73,52.692,50.358,52.402,50.069z"/>
	<path fill="#87B0C0" d="M66.611,68.893c-0.176,0.857-0.94,1.291-1.528,1.792c-0.463,0.395-0.923-0.139-1.239-0.529
		c-1.681-2.076-3.625-4.004-4.939-6.293c-1.269-2.209-3.182-3.524-5.134-4.782c-1.667-1.074-2.763-2.656-4.251-3.856
		c-0.407-0.328-0.146-0.764-0.209-1.147c-0.033-0.2-0.006-0.41-0.006-0.616c0.176,0.073,0.403,0.098,0.519,0.225
		c1.754,1.911,3.836,3.346,6.219,4.359c0.175,0.074,0.313,0.344,0.468,0.345c3.131,0.004,4.267,2.407,5.837,4.514
		c1.288,1.728,2.483,3.525,3.796,5.235C66.32,68.368,66.696,68.474,66.611,68.893z"/>
	<path fill="#87B0C0" d="M71.546,62.344c0.446,0.857-0.624,1.138-0.721,1.898c-0.078,0.618-1.208,0.602-1.746,0.004
		c-1.215-1.35-2.965-2.025-4.13-3.45c-1.074-1.314-2.871-1.826-3.861-3.276c-0.357-0.523-0.934-0.227-1.387-0.366
		c-2.952-0.906-5.831-1.97-8.104-4.191c-0.205-0.2-0.617-0.405-0.402-0.715c0.1-0.144,0.591,0.028,0.885-0.036
		c0.616-0.133,0.862,0.426,1.292,0.611c2.5,1.072,5.069,1.931,7.837,1.862c1.373-0.034,2.48,0.45,3.416,1.422
		c1.863,1.934,3.987,3.541,6.224,5.015C71.244,61.384,71.708,61.728,71.546,62.344z"/>
	<path fill="#87B0C0" d="M41.276,35.393c-0.046,0.205-0.027,0.458-0.143,0.569c-0.377,0.363-0.543-0.139-0.623-0.287
		c-1.513-2.83-4.085-4.625-6.556-6.432c-1.417-1.037-2.014-2.372-2.568-3.849c-0.867-2.311-1.514-4.735-2.656-6.9
		c-0.557-1.057-0.291-1.435,0.357-1.955c0.363-0.291,0.883-0.266,1.29-0.632c0.378-0.339,0.759-0.195,1.045,0.477
		c0.854,2.01,1.78,3.983,2.456,6.071c0.437,1.349,1.117,2.617,1.635,3.941c0.256,0.653,0.529,1.244,1.092,1.71
		c1.78,1.472,2.594,3.677,3.981,5.456C40.893,33.955,41.63,34.594,41.276,35.393z"/>
	<path fill="#87B0C0" d="M48.688,35.515c0.093-0.671,0.036-1.296,0.376-2.008c0.497-1.041,0.543-2.378-0.048-3.473
		c-0.781-1.446,0.29-3.231-0.945-4.547c0.936-1.038,0.704-2.54,1.598-3.673c1.301-1.649,1.489-3.889,2.597-5.707
		c0.357-0.586,0.583-1.48,1.191-1.508c0.808-0.038,1.561,0.646,2.463,0.707c0.304,0.02,0.282,0.599,0.134,0.788
		c-1.451,1.839-1.846,4.18-2.91,6.218c-1.216,2.33-2.264,4.876-2.092,7.809c0.113,1.932-0.797,3.933-1.32,5.884
		c-0.074,0.276-0.552,0.444-0.843,0.662c-0.067-0.281-0.139-0.561-0.197-0.843C48.671,35.724,48.688,35.618,48.688,35.515z"/>
	<path fill="#87B0C0" d="M35.71,51.347c0.099,0.399-0.083,0.718-0.428,1.004c-2.512,2.079-3.394,5.093-4.49,7.969
		c-0.196,0.514,0.156,1.305-0.865,1.176c-2.521,2.509-5.79,4.043-8.385,6.454c-0.442,0.411-0.832,0.512-1.272,0.045
		c-0.416-0.441-1.01-0.824-1.188-1.347c-0.135-0.399-0.294-0.988,0.469-1.494c2.277-1.509,4.307-3.4,6.614-4.855
		c2.073-1.307,3.349-3.131,4.659-5.101c1.052-1.582,2.608-2.833,3.984-4.187c0.156-0.154,0.654-0.127,0.887,0.004
		C36.042,51.209,35.71,50.884,35.71,51.347z"/>
	<path fill="#87B0C0" d="M26.708,73.305c-0.582,0.159-1.172-0.413-1.441-1.004c-0.28-0.614-0.023-1.271,0.544-1.886
		c2.081-2.256,3.852-4.777,5.821-7.134c1.107-1.325,1.816-3.183,2.135-4.907c0.306-1.655,1.632-2.604,2.064-4.086
		c0.104-0.359,0.539-0.232,0.812-0.176c0.128,0.027,0.246,0.293,0.292,0.471c0.05,0.192,0.096,0.467-0.002,0.603
		c-1.111,1.549-1.036,3.466-1.661,5.158c-0.109,0.295-0.136,0.561-0.181,0.846c-0.185,1.166,0.485,2.475-0.442,3.498
		c-0.732,0.808-1.292,1.749-1.983,2.547c-1.554,1.795-3.078,3.601-4.354,5.599C27.931,73.429,27.441,73.149,26.708,73.305z"/>
	<path fill="#87B0C0" d="M71.189,30.595c0.262,0,0.469,0.015,0.673-0.003c0.866-0.075,1.289,0.484,1.53,1.167
		c0.244,0.691-0.284,1.748-1.071,1.901c-3.035,0.588-5.66,2.288-8.605,3.071c-0.685,0.182-1.009,0.611-1.445,0.993
		c-2.207,1.932-4.502,3.707-7.256,4.845c-0.472,0.195-0.882,0.411-1.383,0.376c-0.18-0.012-0.352-0.135-0.528-0.208
		c0.084-0.146,0.161-0.296,0.256-0.435c0.057-0.083,0.13-0.181,0.217-0.215c3.64-1.406,5.505-4.581,7.572-7.562
		c0.226-0.327,0.547-0.742,0.886-0.812c2.742-0.562,5.148-1.998,7.741-2.941C70.303,30.581,70.769,30.723,71.189,30.595z"/>
	<path fill="#87B0C0" d="M46.834,31.638c0,1.37,0.003,2.501-0.002,3.633c-0.001,0.294,0.077,0.795-0.243,0.785
		c-0.542-0.017-0.29-0.577-0.379-0.915c-0.662-2.501-0.999-5.168-2.127-7.441c-0.871-1.756-0.88-3.4-0.967-5.167
		c-0.055-1.111,0.885-1.949,0.673-3.147c-0.166-0.936-0.298-2.005,0.551-2.844c0.154-0.153-0.019-0.602,0.03-0.902
		c0.127-0.778-0.452-1.942,0.33-2.261c0.881-0.361,2.025-0.128,3.048-0.062c0.292,0.019,0.475,0.561,0.302,0.74
		c-0.911,0.941-0.332,2.143-0.636,3.147c-0.566,1.864-0.506,3.815-1.066,5.71c-0.406,1.375-0.533,3.136,0.257,4.741
		C47.239,28.941,46.714,30.464,46.834,31.638z"/>
	<path fill="#87B0C0" d="M60.932,18.188c0.683,0.322,1.439,0.471,1.836,0.93c0.327,0.379,0.26,1.078-0.198,1.638
		c-1.56,1.904-3.012,3.899-4.599,5.779c-1.163,1.378-1.485,2.523-2.568,4.787c-1.063,2.221-1.741,4.747-3.721,6.465
		c-0.136,0.118-0.345,0.151-0.521,0.223c0-0.205,0.025-0.414-0.005-0.615c-0.096-0.654,0.371-1.084,0.568-1.612
		c0.567-1.516,1.186-3.121,1.223-4.703c0.065-2.796,1.153-5.092,2.783-7.178c1.416-1.813,3.02-3.48,4.553-5.201
		C60.47,18.491,60.731,18.344,60.932,18.188z"/>
	<path fill="#87B0C0" d="M36.984,35.525c-0.925,0.314-1.837-0.351-2.161-0.709c-1.21-1.335-2.851-1.883-4.355-2.225
		c-1.697-0.385-2.542-1.37-3.413-2.59c-1.364-1.91-2.704-3.839-4.144-5.69c-1.112-1.429-1.084-2.248,0.114-3.633
		c0.631-0.73,0.861-0.303,1.347,0.093c1.188,0.968,1.761,2.378,2.666,3.546c1.433,1.849,2.647,3.871,4.128,5.678
		c0.65,0.793,1.684,1.321,2.632,1.791c0.369,0.183,0.755,0.341,0.949,0.652c0.623,0.999,1.854,1.139,2.612,1.942
		c0.267,0.283,0.175,0.56,0.204,0.848C37.624,35.858,37.127,35.386,36.984,35.525z"/>
	<path fill="#87B0C0" d="M67.668,23.311c0.129,0.139,0.529,0.457,0.784,0.865c0.97,1.553,0.881,1.671-0.629,2.722
		c-2.56,1.782-5.139,3.547-7.571,5.495c-0.958,0.768-1.677,1.932-2.262,3.044c-0.835,1.588-2.336,2.503-3.458,3.79
		c-0.133,0.153-0.713,0.141-0.867-0.013c-0.154-0.154-0.168-0.716-0.014-0.87c2.06-2.068,2.843-4.728,3.779-7.387
		c0.397-1.126,1.662-2.131,2.771-2.784c2.292-1.349,4.367-2.952,6.378-4.662C66.817,23.308,67.023,23.091,67.668,23.311z"/>
	<path fill="#EEEEEE" d="M48.07,46.671c-0.036,0.784,0.175,1.562-0.63,2.217c-0.933,0.759-1.837,1.467-3.086,1.478
		c-2.139,0.017-3.601-1.687-3.738-4.015c-0.064-1.09,0.526-1.633,1.107-2.334c0.718-0.866,1.534-1.135,2.648-1.089
		C46.612,43.02,48.07,44.416,48.07,46.671z"/>
	<path fill="#87B0C0" d="M38.927,38.015c-0.406-0.007-0.754-0.056-0.758-0.63c-0.002-0.382,0.179-0.565,0.489-0.599
		c0.422-0.046,0.768,0.044,0.773,0.614C39.434,37.782,39.247,37.921,38.927,38.015z"/>
	<path fill="#87B0C0" d="M53.632,39.247c0.187,1.011-0.225,1.423-1.236,1.236C52.209,39.472,52.621,39.06,53.632,39.247z"/>
	<path fill="#87B0C0" d="M36.567,50.448c0.014,0.007,0.315,0.128,0.304,0.174c-0.117,0.491-0.538,0.319-0.872,0.376
		c-0.295,0.051-0.421-0.029-0.279-0.292C35.857,50.455,36.095,50.286,36.567,50.448z"/>
	<path fill="#87B0C0" d="M41.658,36.864c0.361,0.207,0.228,0.541,0.211,0.815c-0.005,0.085-0.295,0.254-0.379,0.216
		c-0.354-0.16-0.218-0.515-0.199-0.789C41.298,37.015,41.537,36.94,41.658,36.864z"/>
	<path fill="#87B0C0" d="M37.535,42.157c-0.265,0.061-0.532,0.192-0.779,0.161c-0.28-0.036-0.524-0.257-0.404-0.59
		c0.022-0.061,0.361,0.005,0.551-0.012C37.202,41.688,37.412,41.786,37.535,42.157z"/>
	<path fill="#87B0C0" d="M52.401,40.756c-0.25,0.395-0.611,0.42-0.982,0.284c-0.252-0.092-0.293-0.31-0.104-0.387
		c0.246-0.1,0.531-0.103,0.792-0.174C52.399,40.4,52.492,40.483,52.401,40.756z"/>
	<path fill="#87B0C0" d="M46.216,37.382c0.026,0.301-0.041,0.57-0.403,0.508c-0.097-0.017-0.177-0.311-0.208-0.487
		c-0.051-0.295,0.034-0.569,0.396-0.506C46.098,36.913,46.146,37.212,46.216,37.382z"/>
	<path fill="#87B0C0" d="M51.249,49.355c0.083-0.083,0.151-0.151,0.22-0.22c0.069,0.137,0.161,0.269,0.193,0.415
		c0.011,0.051-0.125,0.134-0.193,0.203C51.395,49.619,51.321,49.484,51.249,49.355z"/>
	<path fill="#87B0C0" d="M38.132,40.224c-0.072,0.072-0.173,0.203-0.196,0.191c-0.134-0.073-0.3-0.155-0.362-0.28
		c-0.127-0.259,0.001-0.386,0.26-0.26C37.961,39.936,38.035,40.105,38.132,40.224z"/>
	<path fill="#87B0C0" d="M50.266,51.607c-0.095-0.122-0.292-0.276-0.266-0.36c0.075-0.239,0.262-0.279,0.364-0.116
		c0.088,0.141,0.121,0.316,0.178,0.476C50.45,51.607,50.358,51.607,50.266,51.607z"/>
	<path fill="#87B0C0" d="M50.542,51.607c0.428-0.016,0.634,0.19,0.618,0.618C50.732,52.241,50.526,52.035,50.542,51.607z"/>
	<path fill="#87B0C0" d="M37.923,52.275c0.072,0.072,0.203,0.173,0.191,0.196c-0.073,0.134-0.155,0.3-0.28,0.362
		c-0.259,0.127-0.386-0.001-0.26-0.26C37.635,52.446,37.804,52.372,37.923,52.275z"/>
	<path fill="#87B0C0" d="M37.564,39.865c-0.428,0.016-0.634-0.19-0.618-0.618C37.374,39.231,37.58,39.437,37.564,39.865z"/>
	<path fill="#87B0C0" d="M37.564,53.119c-0.122,0.095-0.276,0.292-0.36,0.266c-0.239-0.075-0.279-0.262-0.116-0.364
		c0.141-0.088,0.316-0.121,0.476-0.178C37.564,52.935,37.564,53.027,37.564,53.119z"/>
	<path fill="#87B0C0" d="M40.434,53.372c-0.13-0.072-0.264-0.146-0.398-0.22c0.069-0.069,0.152-0.205,0.203-0.193
		c0.145,0.032,0.278,0.125,0.415,0.193C40.585,53.221,40.517,53.289,40.434,53.372z"/>
	<path fill="#87B0C0" d="M39.638,38.718c0.13,0.072,0.264,0.146,0.398,0.22c-0.069,0.069-0.152,0.205-0.203,0.193
		c-0.145-0.032-0.278-0.125-0.415-0.193C39.487,38.869,39.555,38.801,39.638,38.718z"/>
	<path fill="#87B0C0" d="M49.03,53.461c-0.095-0.122-0.292-0.276-0.266-0.36c0.075-0.239,0.262-0.279,0.364-0.116
		c0.088,0.141,0.121,0.316,0.178,0.476C49.214,53.461,49.122,53.461,49.03,53.461z"/>
	<path fill="#87B0C0" d="M38.132,35.898c-0.072,0.072-0.173,0.203-0.196,0.191c-0.134-0.073-0.3-0.155-0.362-0.28
		c-0.127-0.259,0.001-0.386,0.26-0.26C37.961,35.61,38.035,35.779,38.132,35.898z"/>
	<path fill="#87B0C0" d="M51.16,38.287c-0.122,0.095-0.276,0.292-0.36,0.266c-0.239-0.075-0.279-0.262-0.116-0.364
		c0.141-0.088,0.316-0.121,0.476-0.178C51.16,38.103,51.16,38.195,51.16,38.287z"/>
	<path fill="#87B0C0" d="M48.379,37.393c0.069,0.137,0.161,0.269,0.193,0.415c0.011,0.051-0.125,0.135-0.193,0.203
		c-0.069-0.137-0.161-0.269-0.193-0.415C48.174,37.545,48.31,37.462,48.379,37.393z"/>
</g>
</svg>
