<?xml version="1.0" encoding="utf-8"?>
<!-- Generator: Adobe Illustrator 17.0.2, SVG Export Plug-In . SVG Version: 6.00 Build 0)  -->
<!DOCTYPE svg PUBLIC "-//W3C//DTD SVG 1.1//EN" "http://www.w3.org/Graphics/SVG/1.1/DTD/svg11.dtd">
<svg version="1.1" id="svg3833" xmlns:svg="http://www.w3.org/2000/svg"
	 xmlns="http://www.w3.org/2000/svg" xmlns:xlink="http://www.w3.org/1999/xlink" x="0px" y="0px" width="300px" height="89px"
	 viewBox="0 0 300 89" enable-background="new 0 0 300 89" xml:space="preserve">
<g id="layer1" transform="translate(-258.17931,-466.49638)">
	<path id="path448" fill="#AF9B81" stroke="#B59B0C" stroke-width="0.425" d="M281.183,488.329c0,0,2.705-0.704,4.808-0.263
		c2.102,0.438,0.38,1.669,0.38,1.669s-2.069,1.154-4.155,1.515c-2.086,0.356-0.952-2.426-0.952-2.426"/>
	<path id="path456" fill="#AF9B81" stroke="#B59B0C" stroke-width="0.5858" d="M273.739,479.27c0,0-1.746,4.774,0.923,6.731
		c2.491,1.819,4.719-0.571,5.059-0.64c0.283-0.061-0.818-0.697-0.818-0.697s-0.535,0.595-1.681,0.928
		c-3.091,0.891-4.139-3.195-3.127-5.957C274.128,479.55,273.93,479.112,273.739,479.27z"/>
	<path id="path440" fill="#AF9B81" stroke="#B59B0C" stroke-width="0.5858" d="M277.741,477.419c0,0-3.22,4.799-0.907,7.225
		c2.159,2.263,5.22,0.045,5.605,0.02c0.316-0.024-0.68-0.846-0.68-0.846s-0.745,0.559-2.066,0.749
		c-3.568,0.518-3.539-3.936-1.672-6.714C278.081,477.767,277.992,477.281,277.741,477.419z"/>
	<path id="path392" fill="#AF9B81" stroke="#B59B0C" stroke-width="0.5858" d="M280.406,487.815c0,0-0.903-6.03,2.418-9.801
		c3.325-3.767,5.252-5.042,5.974-7.071c0.721-2.037,0.863-3.905,0.655-4.123c-0.21-0.219-0.432,0.794-0.449,1.045
		c-0.045,0.676-0.546,2.571-1.353,3.701c-2.216,3.103-4.844,4.601-6.147,6.63c-0.94,1.462-2.694,4.398-2.167,8.375
		C279.862,490.545,280.406,487.815,280.406,487.815z"/>
	<path id="path408" fill="#AF9B81" stroke="#B59B0C" stroke-width="0.5858" d="M285.998,473.774c-1.7-1.713-1.336-4.5,0.049-5.605
		c0.053-0.045-0.004-0.49-0.206-0.51c0,0-2.835,2.259-1.045,5.479c0.235,0.425,0.495,0.79,0.758,1.094L285.998,473.774z"/>
	<path id="path416" fill="#AF9B81" stroke="#B59B0C" stroke-width="0.5858" d="M281.584,479.444c-1.289-1.717-0.883-4.179,0.4-5.201
		c0.049-0.045,0-0.489-0.21-0.506c0,0-2.83,2.256-1.041,5.475c0.134,0.244,0.272,0.458,0.414,0.66L281.584,479.444z"/>
	<path id="path400" fill="#AF9B81" stroke="#B59B0C" stroke-width="0.5858" d="M295.447,475.288c0,0,1.178,6.006-2.239,7.432
		c-3.184,1.324-5.326-2.089-5.702-2.267c-0.32-0.159,1.056-0.552,1.056-0.552s0.51,0.843,1.77,1.568
		c3.402,1.969,5.322-2.397,4.642-5.864C294.953,475.491,295.252,475.05,295.447,475.288z"/>
	<path id="path384" fill="#AF9B81" stroke="#B59B0C" stroke-width="0.5858" d="M280.992,488.002c0,0,2.022-6.127,7.792-7.731
		c5.771-1.608,8.562-1.487,10.562-3.228c1.993-1.742,4.075-5.152,3.722-5.205c-0.393-0.053-1.218,0.948-1.392,1.219
		c-0.454,0.733-2.313,2.892-3.82,3.612c-2.783,1.321-8.704,1.77-10.559,2.73c-1.855,0.964-5.503,2.839-7.383,7.825
		C278.032,492.202,280.992,488.002,280.992,488.002z"/>
	<path id="path424" fill="#AF9B81" stroke="#B59B0C" stroke-width="0.5858" d="M298.837,476.869
		c-1.056-2.847,0.235-5.853,2.532-7.108c0.089-0.053,0.668-0.693,0.376-0.79c0,0-5.107,2.163-4.026,7.278
		c0.081,0.385,0.178,0.737,0.295,1.065L298.837,476.869z"/>
	<path id="path432" fill="#AF9B81" stroke="#B59B0C" stroke-width="0.5858" d="M287.169,477.747c0,0,3.006,4.978,0.292,7.865
		c-2.536,2.685-5.61,0.531-6.023,0.539c-0.34,0.004,0.81-0.992,0.81-0.992s0.75,0.542,2.147,0.631
		c3.782,0.24,4.175-4.657,2.438-7.541C286.772,478.164,286.913,477.621,287.169,477.747z"/>
	<path id="path460" fill="#AF9B81" d="M361.797,479.512c-0.786,1.013-0.786,2.511-0.786,3.811v10.846c0,1.3,0,2.798,0.786,3.75
		l-4.236,0.174l0.142-1.904c0-0.089-0.074-0.117-0.178-0.117c-0.074,0-0.215,0.174-0.425,0.316c-1.389,0.956-3.56,1.993-6.873,1.993
		c-4.132,0-6.869-1.357-6.979-4.905v-10.153c0-1.3,0-2.798-0.782-3.811h4.771c-0.786,1.013-0.786,2.511-0.786,3.811v8.424
		c0.11,3.087,1.672,4.961,5.698,4.961c4.132,0,5.411-2.106,5.516-5.54c0.037-1.098,0.142-2.22,0.142-3.318v-4.528
		c0-1.3,0-2.798-0.782-3.811"/>
	<path id="path464" fill="#AF9B81" d="M365.106,497.919c1.247-2.365,1.247-5.884,1.247-8.424v-6.143c0-1.414-0.073-2.973-1.137-3.84
		h3.592c0.676,0,0.999,0,1.426,0.462c0.744,0.81,3.025,3.896,4.126,5.163l7.087,8.108c0.247,0.288,0.535,0.693,0.745,0.693
		c0.251,0,0.251-0.287,0.251-0.546v-10.185c0-1.961-0.357-2.94-0.854-3.694h3.701c-0.854,1.329-1.069,2.827-1.069,4.302v11.538
		c0,0.952,0.036,1.819,0.073,2.685h-2.527l-13.029-15.033c-0.142-0.17-0.251-0.316-0.393-0.316c-0.141,0-0.215,0.174-0.215,0.433
		v7.411c0,2.309-0.068,5.224,1.069,7.387"/>
	<path id="path468" fill="#AF9B81" d="M389.183,483.291c0-1.296,0-2.798-0.782-3.779h4.771c-0.786,0.981-0.786,2.483-0.786,3.779
		v10.85c0,1.296,0,2.798,0.786,3.778h-4.771c0.782-0.98,0.782-2.482,0.782-3.778"/>
	<path id="path472" fill="#AF9B81" d="M401.977,498.038l-0.535-1.474c-1.672-4.614-4.164-11.713-6.69-16.07l-0.571-0.981h3.172
		c0.708,0,0.886,0.665,1.065,1.098c1.851,4.471,3.916,8.914,5.411,13.474c0.178,0.546,0.357,0.835,0.571,0.835
		c0.215,0,0.425-0.462,0.603-0.896c1.033-2.535,5.374-10.76,5.374-13.47c0-0.376-0.068-0.721-0.178-1.041h4.419l-0.644,0.924
		c-3.382,4.904-6.123,10.733-8.545,16.042l-0.709,1.559"/>
	<path id="path476" fill="#AF9B81" d="M419.975,496.766h4.094c2.207,0,4.484-0.433,6.161-1.644l-0.644,2.653
		c-0.96,0.06-2.135,0.145-3.418,0.145H415.88c0.782-0.98,0.891-2.482,0.891-3.778v-10.85c0-1.296,0-2.798-0.786-3.779h12.426
		l0.142,2.224c-1.244-0.867-3.167-1.069-5.269-1.069h-3.309v6.897c2.742,0,5.626,0,8.364-0.202
		c-1.244,1.644-5.266,1.644-7.476,1.644h-0.887"/>
	<path id="path480" fill="#AF9B81" d="M436.454,487.823c0.534,0.057,1.069,0.085,1.604,0.085c3.455,0,5.342-1.498,5.342-4.24
		c0-2.883-2.033-3.232-5.201-3.289h-1.672c-0.036,0.433-0.073,0.924-0.073,1.385V487.823z M447.526,495.238
		c1.03,1.122,1.531,1.584,2.989,2.681H447.6c-1.531,0-2.211-0.664-2.993-1.587l-4.342-5.018c-1.498-1.733-1.745-2.223-3.81-2.365
		v5.192c0,1.296,0,2.798,0.785,3.778h-4.949c1.033-1.328,0.96-2.713,0.96-3.952v-10.676c0-1.296,0-2.798-0.782-3.779
		c2.989,0,5.836-0.287,8.614-0.287c3.633,0,5.517,1.616,5.517,3.868c0,2.652-2.706,4.381-5.265,5.22"/>
	<path id="path484" fill="#AF9B81" d="M450.621,494.316c1.069,1.211,2.6,2.911,6.338,2.911c2.705,0,4.734-1.296,4.734-3.604
		c0-4.848-10.181-4.24-10.181-9.579c0-3.349,3.382-4.993,7.156-4.993c1.852,0,3.666,0.174,5.484,0.174v2.681
		c-1.603-1.353-2.563-1.701-4.949-1.701c-2.495,0-4.345,1.013-4.345,3.176c0,4.443,10.181,3.892,10.181,9.404
		c0,3.576-4.305,5.598-8.294,5.598c-1.742,0-4.483-0.462-6.123-1.009"/>
	<path id="path488" fill="#AF9B81" d="M468.72,483.291c0-1.296,0-2.798-0.782-3.779h4.766c-0.781,0.981-0.781,2.483-0.781,3.779
		v10.85c0,1.296,0,2.798,0.781,3.778h-4.766c0.782-0.98,0.782-2.482,0.782-3.778"/>
	<path id="path492" fill="#AF9B81" d="M481.121,497.919c0.782-0.98,0.782-2.482,0.782-3.778v-13.183h-4.735
		c-0.818,0-1.636,0.085-2.527,0.631l0.712-2.078h17.905c-0.608,1.244-2.779,1.446-4.236,1.446h-3.917v13.183
		c0,1.296,0,2.798,0.782,3.778"/>
	<path id="path496" fill="#AF9B81" d="M499.346,497.919c0.786-0.98,0.786-2.482,0.786-3.778v-2.624c0-2.022-1.07-3.953-2.496-6.318
		c-1.421-2.365-3.24-4.617-4.698-5.687H496c1.28,0,1.531,0.259,2.171,1.098c1.389,1.791,3.025,5.078,3.701,7.124
		c0.142,0.433,0.284,0.867,0.567,0.867c0.215,0,0.466-0.49,0.822-1.009l2.422-3.491c0.818-1.154,1.6-2.567,1.6-3.434
		c0-0.429-0.142-0.807-0.535-1.155h4.488l-4.059,5.107c-2.495,3.087-3.843,4.504-3.843,8.311v1.211c0,1.296,0,2.798,0.782,3.778"/>
	<path id="path500" fill="#AF9B81" d="M531.482,480.323c-5.127,0-7.334,3.807-7.334,7.961c0,3.807,1.604,8.829,7.334,8.829
		c5.123,0,7.33-3.811,7.33-7.963C538.812,485.34,537.212,480.323,531.482,480.323z M531.195,498.382
		c-7.472,0-10.749-4.155-10.749-9.291c0-5.479,3.917-10.04,11.32-10.04c7.476,0,10.753,4.155,10.753,9.291
		C542.518,493.821,538.602,498.382,531.195,498.382"/>
	<path id="path504" fill="#AF9B81" d="M549.424,494.141c0,1.296,0,2.798,0.781,3.778h-4.77c0.786-0.98,0.786-2.482,0.786-3.778
		v-10.85c0-1.296,0.068-2.798-0.713-3.779h11.037c0.886,0,1.636,0,1.636,0.259v2.252h-0.178c-0.996-1.328-3.24-1.356-4.912-1.356
		h-3.665v7.415c2.737,0,5.625,0,8.363-0.202c-1.243,1.644-5.269,1.644-7.476,1.644h-0.886"/>
	<path id="path508" fill="#AF9B81" d="M341.71,536.703c2.134,2.713,5.196,6.528,12.672,6.528c5.411,0,9.469-2.907,9.469-8.08
		c0-10.849-20.362-9.493-20.362-21.444c0-7.497,6.763-11.178,14.312-11.178c3.702,0,7.335,0.389,10.964,0.389v6.006
		c-3.204-3.038-5.128-3.811-9.894-3.811c-4.986,0-8.687,2.259-8.687,7.107c0,9.947,20.358,8.719,20.358,21.06
		c0,8.01-8.614,12.535-16.589,12.535c-3.487,0-8.97-1.037-12.242-2.264"/>
	<path id="path512" fill="#AF9B81" d="M412.616,503.562c-1.571,2.259-1.571,5.621-1.571,8.529v24.288c0,2.908,0,6.269,1.571,8.4
		l-8.476,0.389l0.287-4.265c0-0.194-0.142-0.259-0.357-0.259c-0.141,0-0.429,0.389-0.854,0.713
		c-2.779,2.131-6.548,4.459-13.17,4.459c-8.258,0-13.742-3.038-13.956-10.984V512.09c0-2.907,0-6.269-1.568-8.529h9.542
		c-1.567,2.259-1.567,5.621-1.567,8.529v18.865c0.215,6.909,3.349,11.108,11.392,11.108c8.258,0,10.251-4.713,10.465-12.404
		c0.073-2.455,0.283-4.973,0.283-7.428V512.09c0-2.907,0-6.269-1.563-8.529"/>
	<path id="path516" fill="#AF9B81" d="M425.835,522.167c1.07,0.13,2.139,0.195,3.208,0.195c6.905,0,10.68-3.358,10.68-9.498
		c0-6.459-4.058-7.233-10.396-7.362h-3.346c-0.073,0.967-0.146,2.065-0.146,3.098V522.167z M447.98,538.772
		c2.061,2.518,3.062,3.551,5.977,6.006h-5.835c-3.063,0-4.415-1.483-5.982-3.552l-8.683-11.243
		c-2.993-3.875-3.491-4.973-7.622-5.297v11.631c0,2.908,0,6.265,1.568,8.461h-9.894c2.065-2.969,1.924-6.071,1.924-8.85v-23.902
		c0-2.908,0-6.265-1.568-8.464c5.978,0,11.676-0.644,17.228-0.644c7.262,0,11.037,3.616,11.037,8.654
		c0,5.946-5.411,9.821-10.538,11.697"/>
	<path id="path520" fill="#AF9B81" d="M462.122,522.167c1.066,0.13,2.135,0.195,3.204,0.195c6.905,0,10.68-3.358,10.68-9.498
		c0-6.459-4.058-7.233-10.396-7.362h-3.346c-0.068,0.967-0.142,2.065-0.142,3.098V522.167z M484.818,538.772
		c2.065,2.518,3.066,3.551,5.982,6.006h-5.836c-3.062,0-4.415-1.483-5.982-3.552l-8.687-11.243
		c-2.989-3.875-3.487-4.973-7.617-5.297v11.631c0,2.908,0,6.265,1.567,8.461h-9.898c2.066-2.969,1.924-6.071,1.924-8.85v-23.902
		c0-2.908,0-6.265-1.568-8.464c5.982,0,11.676-0.644,17.228-0.644c7.266,0,11.037,3.616,11.037,8.654
		c0,5.946-5.407,9.821-10.534,11.697"/>
	<path id="path524" fill="#AF9B81" d="M499.65,542.193h8.189c4.411,0,8.967-0.967,12.316-3.681l-1.284,5.945
		c-1.924,0.125-4.273,0.32-6.837,0.32H491.46c1.568-2.196,1.782-5.553,1.782-8.461v-24.291c0-2.908,0-6.265-1.572-8.464h24.851
		l0.284,4.973c-2.496-1.937-6.339-2.39-10.538-2.39h-6.618v15.442c5.479,0,11.246,0,16.73-0.453
		c-2.49,3.682-10.538,3.682-14.952,3.682h-1.778"/>
	<path id="path528" fill="#AF9B81" d="M530.939,544.778c1.568-2.196,1.568-5.553,1.568-8.461v-5.88c0-4.525-2.134-8.85-4.982-14.147
		c-2.851-5.297-6.483-10.336-9.4-12.729h6.123c2.564,0,3.229,0.478,4.342,2.454c2.734,4.864,5.394,11.218,7.403,15.96
		c0.397,0.928,0.571,1.937,1.143,1.937c0.425,0,0.924-1.098,1.636-2.26l4.84-7.816c1.64-2.588,3.204-5.751,3.204-7.691
		c0-0.968-0.283-1.806-1.065-2.584h8.97l-8.116,11.433c-4.986,6.913-7.691,10.081-7.691,18.609v2.713c0,2.908,0,6.265,1.568,8.461"
		/>
	<path id="path532" fill="#AF9B81" d="M286.488,548.957c11.632-2.163,25.644-0.531,33.177,0.571
		c4.192,0.615,5.598,0.283,5.598,0.283s-4.383-0.871-6.841-1.568c-12.15-3.45-44.764-9.124-46.619,6.841
		C271.803,555.085,275.93,550.925,286.488,548.957"/>
	<path id="path536" fill="#AF9B81" d="M277.871,538.881c1.247,0,2.259,1.057,2.259,2.361c0,1.304-1.012,2.366-2.259,2.366
		c-1.252,0-2.26-1.062-2.26-2.366C275.61,539.938,276.619,538.881,277.871,538.881z M322.068,523.22
		c-0.191-1.41,0.389-8.052,0.389-8.052l0.574,7.043c0,0,1.332-2.061,1.54-6.439c0.247-5.163-2.317-8.728-6.331-10.047
		c-2.004-0.66-3.795-0.267-5.046-0.138c-3.953,0.409-7.464,0.077-8.963,0.142c-8.894,0.404-11.137-2.415-12.846-5.047
		c-3.272-5.046-3.892-4.313-7.12-10.764c-2.714-5.423-5.201-2.041-9.619-0.648c-1.308,0.413-5.743,2.069-6.099,2.231
		c-0.36,0.162-0.255,1.122-0.239,1.466c0.016,0.247,1.089,1.332,1.409,1.466c0.32,0.138,6.686,1.757,8.504,2.231
		c0,0,0.677,1.466-0.874,6.877c-1.187,4.119,0.198,6.492,0.198,6.492s-2.402-1.661-4.584-3.183
		c-2.207-1.544-9.201,1.551-13.328,4.539c-1.685,1.219-1.442,2.925-1.442,2.925l2.033,4.475l1.903-1.09l0.024-0.011l0,0
		c-0.705-0.207-1.219-0.867-1.219-1.644c0-0.939,0.753-1.71,1.681-1.71c0.927,0,1.685,0.77,1.685,1.71
		c0,0.04-0.004,0.077-0.004,0.117l-0.004,0.024c0.259-0.603,0.855-1.029,1.543-1.029c0.928,0,1.681,0.769,1.681,1.71
		c0,0.943-0.753,1.709-1.681,1.709c-0.049,0-0.093-0.004-0.138-0.008l-0.004,0.004c0.454,0.308,0.753,0.831,0.753,1.421
		c0,0.945-0.757,1.71-1.685,1.71c-0.928,0-1.681-0.765-1.681-1.71c0-0.162,0.024-0.319,0.065-0.466l-0.008-0.004l-0.024,0.008
		l-1.98,0.911l1.976,3.949l5.597-2.722l6.022,14.341l-2.596,8.346l8.566,3.151l3.098-8.516l-6.395-3.694l-10.517-24.858l0.219-0.097
		c1.053-0.393,2.102-0.75,3.086-1.028c2.049-0.58,8.027,8.314,9.186,9.059c1.721,1.105,2.73,0.915,3.786,0.964l-0.053-0.045
		c-0.134-0.102-0.275-0.215-0.429-0.333c-5.39-4.171-3.207-12.032-3.207-12.032c0.113,8.01,4.807,13.138,4.949,13.474l0.045,0.068
		c0.102,0.163,0.206,0.348,0.312,0.555c1.543,3.018-0.81,24.738-0.81,24.738l2.316-0.952c0,0,4.16-21.583,4.787-21.465
		c10.1,1.814,14.787-6.087,18.683,8.732c0.566,2.146-11.746,12.692-11.746,12.692s2.411,0.404,4.127-0.867
		c4.629-3.439,13.041-12.138,12.624-12.429c-0.584-0.405-2.313-3.828-2.313-4.431c0-0.47,0.353-2.284,0.871-2.871l-0.004-0.004
		c-0.13-0.065-0.267-0.138-0.421-0.215c-5.626-2.844-5.626-11.855-5.626-11.855c1.965,8.307,7.011,12.324,7.428,12.777
		c1.827,1.969,5.557,6.743,5.868,8.696c0.385,2.418-8.979,13.515-8.979,13.515s3.698,0.547,4.313-0.984
		c0.458-1.138,9.862-12.936,9.668-13.94C325.372,531.158,322.262,524.629,322.068,523.22"/>
</g>
</svg>
